M48
METRIC,000.000
T33C0.300
T32C1.000
%
T33
X038650Y068900
X039300Y064600
X039620Y071120
X040050Y072950
X040350Y078000
X041500Y072000
X042650Y072250
X047650Y064550
X050250Y074100
X050850Y067850
X054600Y062750
X057200Y070500
X057300Y067700
X058800Y075800
X060600Y067350
X060950Y075150
X062150Y071050
X062150Y068650
X062850Y077150
X063200Y063950
X063800Y068600
X065200Y060400
X066850Y072850
X066850Y071850
X066850Y070900
X066850Y069850
X066850Y068850
X066850Y067850
X066850Y066850
X067300Y059850
X067350Y064050
X067350Y061650
X067850Y072850
X067850Y071850
X067850Y070900
X067850Y069850
X067850Y068850
X067850Y067850
X067850Y066850
X068350Y078200
X068350Y075800
X068850Y072850
X068850Y071850
X068850Y070900
X068850Y069850
X068850Y068850
X068850Y067850
X068850Y066850
X069850Y072850
X069850Y071850
X069850Y070900
X069850Y069850
X069850Y068850
X069850Y067850
X069850Y066850
X070350Y064050
X070350Y061850
X070850Y078200
X070850Y075800
X070850Y072850
X070850Y071850
X070850Y070900
X070850Y069850
X070850Y068850
X070850Y067850
X070850Y066850
X071850Y072850
X071850Y071850
X071850Y070900
X071850Y069850
X071850Y068850
X071850Y067850
X071850Y066850
X072850Y072850
X072850Y071850
X072850Y070900
X072850Y069850
X072850Y068850
X072850Y067850
X072850Y066850
X073700Y062500
X075200Y062550
X075850Y069350
X075850Y066850
X075950Y064700
X077700Y073100
X078250Y072550
X078250Y069350
X078250Y066850
X078850Y077900
X078900Y070250
X078900Y062950
X080800Y064950
X082500Y080400
X083850Y078450
X084650Y069250
X084650Y068250
X085250Y068750
X085800Y077900
X085800Y069250
X085800Y068250
X085800Y067400
X085800Y066650
X085800Y065900
X085800Y065150
X085800Y064400
X086350Y068750
X086950Y069250
X086950Y068250
X090850Y078650
X093050Y064300
X093050Y063650
X098900Y066650
X104200Y063500
T32
X035560Y081280
X035560Y058420
X038100Y081280
X038100Y058420
X040640Y081280
X040640Y058420
X043180Y081280
X043180Y058420
X045720Y081280
X045720Y058420
X048260Y081280
X048260Y058420
X050800Y081280
X050800Y058420
X053340Y081280
X053340Y058420
X055880Y081280
X055880Y058420
X058420Y081280
X058420Y058420
X060960Y081280
X060960Y058420
X063500Y081280
X063500Y058420
X066040Y081280
X066040Y058420
X068580Y081280
X068580Y058420
X071120Y081280
X071120Y058420
X073660Y081280
X073660Y058420
X076200Y081280
X076200Y058420
X078740Y081280
X078740Y058420
X081280Y081280
X081280Y058420
X083820Y081280
X083820Y058420
X086360Y081280
X086360Y058420
X088900Y081280
X088900Y058420
X091440Y081280
X091440Y058420
X093980Y081280
X093980Y058420
X096520Y081280
X096520Y058420
X099060Y081280
X099060Y058420
X101600Y081280
X101600Y058420
X104140Y081280
X104140Y058420
M30
