G04 start of page 10 for group -4078 idx -4078 *
G04 Title: (unknown), bottomsilk *
G04 Creator: pcb 1.99z *
G04 CreationDate: Sun Aug  4 21:18:56 2019 UTC *
G04 For: matt *
G04 Format: Gerber/RS-274X *
G04 PCB-Dimensions (mm): 152.40 127.00 *
G04 PCB-Coordinate-Origin: lower left *
%MOMM*%
%FSLAX43Y43*%
%LNBOTTOMSILK*%
%ADD46C,0.002*%
G54D46*G36*
X43634Y64556D02*X43429D01*
Y65251D01*
X43412Y65354D01*
X43376Y65430D01*
X43318Y65497D01*
X43243Y65545D01*
X43153Y65563D01*
X43048Y65540D01*
X42973Y65475D01*
X42927Y65375D01*
X42912Y65249D01*
Y64556D01*
X42707D01*
Y65270D01*
X42691Y65375D01*
X42653Y65446D01*
X42597Y65506D01*
X42526Y65548D01*
X42441Y65563D01*
X42331Y65539D01*
X42253Y65470D01*
X42206Y65358D01*
X42191Y65208D01*
Y64556D01*
X41986D01*
Y65234D01*
X41996Y65371D01*
X42024Y65481D01*
X42066Y65568D01*
X42118Y65634D01*
X42178Y65682D01*
X42242Y65713D01*
X42306Y65729D01*
X42367Y65734D01*
X42508Y65714D01*
X42620Y65653D01*
X42689Y65590D01*
X42750Y65504D01*
X42755D01*
X42805Y65597D01*
X42878Y65670D01*
X42970Y65718D01*
X43079Y65734D01*
X43208Y65717D01*
X43309Y65670D01*
X43386Y65602D01*
X43443Y65522D01*
X43450D01*
X43460Y65708D01*
X43643D01*
X43637Y65562D01*
X43634Y65397D01*
Y64556D01*
G37*
G36*
X41266Y67532D02*Y68685D01*
X41476D01*
Y67532D01*
X41266D01*
G37*
G36*
X42797D02*X42587D01*
Y68228D01*
X42572Y68325D01*
X42532Y68408D01*
X42469Y68476D01*
X42388Y68522D01*
X42292Y68540D01*
X42167Y68512D01*
X42084Y68438D01*
X42039Y68329D01*
X42025Y68197D01*
Y67532D01*
X41816D01*
Y68220D01*
X41826Y68355D01*
X41857Y68464D01*
X41902Y68550D01*
X41959Y68614D01*
X42024Y68660D01*
X42092Y68690D01*
X42159Y68706D01*
X42223Y68711D01*
X42355Y68693D01*
X42463Y68644D01*
X42547Y68576D01*
X42604Y68497D01*
X42609D01*
X42621Y68685D01*
X42806D01*
X42799Y68539D01*
X42797Y68373D01*
Y67532D01*
G37*
G36*
X44331Y69137D02*Y68192D01*
X44287Y67874D01*
X44166Y67662D01*
X43984Y67543D01*
X43755Y67506D01*
X43513Y67545D01*
X43321Y67668D01*
X43194Y67883D01*
X43148Y68199D01*
Y69137D01*
X43358D01*
Y68185D01*
X43385Y67957D01*
X43464Y67798D01*
X43587Y67705D01*
X43748Y67675D01*
X43825Y67682D01*
X43897Y67704D01*
X43960Y67742D01*
X44015Y67796D01*
X44060Y67866D01*
X44094Y67954D01*
X44115Y68060D01*
X44122Y68185D01*
Y69137D01*
X44331D01*
G37*
G36*
X38164Y69223D02*Y68537D01*
X38169D01*
X38220Y68603D01*
X38295Y68658D01*
X38394Y68697D01*
X38517Y68711D01*
X38716Y68669D01*
X38881Y68546D01*
X38993Y68351D01*
X39034Y68092D01*
X38996Y67853D01*
X38891Y67668D01*
X38733Y67548D01*
X38538Y67506D01*
X38407Y67523D01*
X38297Y67571D01*
X38210Y67643D01*
X38148Y67732D01*
X38218Y67822D01*
X38289Y67742D01*
X38379Y67692D01*
X38481Y67675D01*
X38629Y67709D01*
X38736Y67801D01*
X38800Y67938D01*
X38822Y68104D01*
X38798Y68280D01*
X38731Y68420D01*
X38622Y68513D01*
X38477Y68547D01*
X38367Y68528D01*
X38278Y68476D01*
X38212Y68399D01*
X38174Y68306D01*
X38164Y68216D01*
Y68015D01*
X38174Y67928D01*
X38218Y67822D01*
X38148Y67732D01*
X38143D01*
X38134Y67532D01*
X37945D01*
X37953Y67672D01*
X37955Y67830D01*
Y69223D01*
X38164D01*
G37*
G36*
X39219Y68070D02*X39212Y68168D01*
X39233Y68342D01*
X39308Y68519D01*
X39453Y68656D01*
X39686Y68711D01*
X39912Y68663D01*
X40083Y68531D01*
X40191Y68333D01*
X40229Y68089D01*
X40190Y67853D01*
X40078Y67670D01*
X39900Y67551D01*
X39662Y67509D01*
X39535Y67515D01*
X39428Y67533D01*
X39342Y67557D01*
X39277Y67582D01*
X39314Y67732D01*
X39446Y67690D01*
X39634Y67673D01*
X39783Y67696D01*
X39907Y67766D01*
X39993Y67890D01*
X40026Y68070D01*
X40024Y68220D01*
X39997Y68335D01*
X39938Y68445D01*
X39841Y68528D01*
X39703Y68561D01*
X39624Y68552D01*
X39559Y68527D01*
X39508Y68489D01*
X39470Y68441D01*
X39443Y68387D01*
X39426Y68330D01*
X39417Y68274D01*
X39415Y68220D01*
X40024D01*
X40026Y68070D01*
X39219D01*
G37*
G36*
X40870Y68897D02*Y68685D01*
X41049D01*
Y68526D01*
X40870D01*
Y67899D01*
X40851Y67721D01*
X40789Y67596D01*
X40694Y67532D01*
X40563Y67509D01*
X40455Y67518D01*
X40377Y67537D01*
X40387Y67697D01*
X40438Y67686D01*
X40508Y67682D01*
X40582Y67697D01*
X40630Y67741D01*
X40657Y67811D01*
X40665Y67906D01*
Y68526D01*
X40365D01*
Y68685D01*
X40665D01*
Y68961D01*
X40870Y68897D01*
G37*
G36*
X41373Y68880D02*X41319Y68890D01*
X41278Y68918D01*
X41252Y68959D01*
X41242Y69009D01*
X41252Y69060D01*
X41278Y69102D01*
X41319Y69130D01*
X41371Y69140D01*
X41425Y69130D01*
X41466Y69102D01*
X41492Y69060D01*
X41502Y69009D01*
X41493Y68959D01*
X41467Y68918D01*
X41428Y68890D01*
X41376Y68880D01*
X41373D01*
G37*
G36*
X44469Y64529D02*X44464Y64686D01*
X44604Y64720D01*
X44713Y64814D01*
X44784Y64954D01*
X44810Y65130D01*
X44805Y65212D01*
X44789Y65292D01*
X44763Y65368D01*
X44726Y65436D01*
X44677Y65493D01*
X44616Y65538D01*
X44543Y65567D01*
X44457Y65577D01*
X44371Y65566D01*
X44299Y65536D01*
X44239Y65489D01*
X44192Y65430D01*
X44156Y65362D01*
X44131Y65288D01*
X44117Y65212D01*
X44112Y65136D01*
X44139Y64956D01*
X44212Y64813D01*
X44323Y64720D01*
X44462Y64686D01*
X44464D01*
X44469Y64529D01*
X44264Y64565D01*
X44081Y64676D01*
X43948Y64867D01*
X43898Y65144D01*
X43938Y65384D01*
X44051Y65571D01*
X44226Y65692D01*
X44452Y65734D01*
X44676Y65693D01*
X44857Y65573D01*
X44979Y65381D01*
X45024Y65122D01*
X44981Y64876D01*
X44864Y64689D01*
X44689Y64571D01*
X44472Y64529D01*
X44469D01*
G37*
G36*
X45499Y66247D02*Y65561D01*
X45504D01*
X45554Y65626D01*
X45629Y65682D01*
X45729Y65720D01*
X45851Y65734D01*
X46050Y65692D01*
X46215Y65570D01*
X46328Y65375D01*
X46368Y65115D01*
X46330Y64876D01*
X46225Y64691D01*
X46068Y64572D01*
X45873Y64529D01*
X45741Y64547D01*
X45631Y64594D01*
X45544Y64666D01*
X45482Y64756D01*
X45553Y64845D01*
X45624Y64766D01*
X45714Y64716D01*
X45816Y64698D01*
X45963Y64732D01*
X46070Y64824D01*
X46135Y64961D01*
X46156Y65127D01*
X46133Y65303D01*
X46065Y65443D01*
X45956Y65536D01*
X45811Y65570D01*
X45702Y65551D01*
X45612Y65499D01*
X45546Y65423D01*
X45508Y65330D01*
X45499Y65239D01*
Y65039D01*
X45508Y64951D01*
X45553Y64845D01*
X45482Y64756D01*
X45478D01*
X45468Y64556D01*
X45280D01*
X45287Y64696D01*
X45289Y64853D01*
Y66247D01*
X45499D01*
G37*
G36*
X45112Y68070D02*X45105Y68168D01*
X45126Y68342D01*
X45201Y68519D01*
X45346Y68656D01*
X45579Y68711D01*
X45805Y68663D01*
X45976Y68531D01*
X46084Y68333D01*
X46122Y68089D01*
X46083Y67853D01*
X45970Y67670D01*
X45792Y67551D01*
X45555Y67509D01*
X45428Y67515D01*
X45321Y67533D01*
X45235Y67557D01*
X45169Y67582D01*
X45207Y67732D01*
X45339Y67690D01*
X45526Y67673D01*
X45676Y67696D01*
X45800Y67766D01*
X45885Y67890D01*
X45919Y68070D01*
X45917Y68220D01*
X45890Y68335D01*
X45830Y68445D01*
X45734Y68528D01*
X45596Y68561D01*
X45516Y68552D01*
X45452Y68527D01*
X45401Y68489D01*
X45363Y68441D01*
X45336Y68387D01*
X45318Y68330D01*
X45310Y68274D01*
X45307Y68220D01*
X45917D01*
X45919Y68070D01*
X45112D01*
G37*
G36*
X46629Y65394D02*X46627Y65573D01*
X46619Y65708D01*
X46805D01*
X46813Y65535D01*
X46817D01*
X46867Y65607D01*
X46942Y65671D01*
X47044Y65717D01*
X47177Y65734D01*
X47371Y65694D01*
X47538Y65576D01*
X47654Y65385D01*
X47698Y65125D01*
X47662Y64901D01*
X47560Y64722D01*
X47405Y64603D01*
X47208Y64560D01*
X47084Y64575D01*
X46981Y64617D01*
X46899Y64678D01*
X46841Y64753D01*
X46901Y64846D01*
X46968Y64778D01*
X47051Y64735D01*
X47146Y64720D01*
X47294Y64753D01*
X47400Y64844D01*
X47465Y64975D01*
X47486Y65135D01*
X47461Y65317D01*
X47390Y65454D01*
X47281Y65542D01*
X47143Y65573D01*
X47038Y65555D01*
X46953Y65507D01*
X46891Y65436D01*
X46850Y65348D01*
X46838Y65256D01*
Y65049D01*
X46856Y64936D01*
X46901Y64846D01*
X46841Y64753D01*
X46836D01*
Y64627D01*
X46864Y64440D01*
X46942Y64315D01*
X47060Y64245D01*
X47208Y64222D01*
X47402Y64250D01*
X47546Y64315D01*
X47598Y64153D01*
X47519Y64112D01*
X47424Y64082D01*
X47320Y64064D01*
X47215Y64058D01*
X47104Y64065D01*
X46992Y64089D01*
X46887Y64131D01*
X46794Y64196D01*
X46722Y64284D01*
X46670Y64399D01*
X46639Y64544D01*
X46629Y64725D01*
Y65394D01*
G37*
G36*
X47359Y67532D02*X47150D01*
Y68228D01*
X47135Y68328D01*
X47093Y68409D01*
X47030Y68475D01*
X46950Y68521D01*
X46854Y68537D01*
X46729Y68510D01*
X46647Y68437D01*
X46602Y68328D01*
X46588Y68197D01*
Y67532D01*
X46378D01*
Y68218D01*
X46389Y68354D01*
X46419Y68463D01*
X46464Y68549D01*
X46521Y68614D01*
X46585Y68660D01*
X46652Y68690D01*
X46719Y68706D01*
X46780Y68711D01*
X46894Y68696D01*
X46995Y68652D01*
X47082Y68588D01*
X47145Y68504D01*
X47150D01*
Y69223D01*
X47359D01*
Y67532D01*
G37*
G36*
X48210D02*X48000D01*
Y68961D01*
X47510D01*
Y69137D01*
X48698D01*
Y68961D01*
X48210D01*
Y67532D01*
G37*
G36*
X48936Y64556D02*X48726D01*
Y65251D01*
X48712Y65348D01*
X48671Y65431D01*
X48608Y65500D01*
X48527Y65546D01*
X48431Y65563D01*
X48306Y65536D01*
X48224Y65461D01*
X48178Y65352D01*
X48164Y65220D01*
Y64556D01*
X47955D01*
Y65244D01*
X47966Y65379D01*
X47996Y65488D01*
X48042Y65573D01*
X48098Y65638D01*
X48163Y65684D01*
X48231Y65714D01*
X48298Y65730D01*
X48362Y65734D01*
X48494Y65716D01*
X48602Y65668D01*
X48686Y65599D01*
X48743Y65520D01*
X48748D01*
X48760Y65708D01*
X48945D01*
X48938Y65562D01*
X48936Y65397D01*
Y64556D01*
G37*
G36*
X49391Y65904D02*X49337Y65914D01*
X49296Y65942D01*
X49270Y65983D01*
X49260Y66032D01*
X49270Y66084D01*
X49296Y66125D01*
X49337Y66153D01*
X49389Y66163D01*
X49443Y66153D01*
X49484Y66125D01*
X49511Y66084D01*
X49520Y66032D01*
X49511Y65983D01*
X49486Y65942D01*
X49446Y65914D01*
X49394Y65904D01*
X49391D01*
G37*
G36*
X49284Y64556D02*Y65708D01*
X49494D01*
Y64556D01*
X49284D01*
G37*
G36*
X50803D02*X50596D01*
Y65168D01*
X50441Y65344D01*
X49915Y64556D01*
X49669D01*
X50296Y65480D01*
X49715Y66161D01*
X49972D01*
X50462Y65558D01*
X50589Y65387D01*
X50596D01*
Y66161D01*
X50803D01*
Y64556D01*
G37*
G36*
X50252Y67532D02*X50042D01*
Y68228D01*
X50028Y68325D01*
X49987Y68408D01*
X49924Y68476D01*
X49843Y68522D01*
X49747Y68540D01*
X49622Y68512D01*
X49540Y68438D01*
X49495Y68329D01*
X49481Y68197D01*
Y67532D01*
X49271D01*
Y68220D01*
X49282Y68355D01*
X49312Y68464D01*
X49358Y68550D01*
X49415Y68614D01*
X49479Y68660D01*
X49547Y68690D01*
X49615Y68706D01*
X49678Y68711D01*
X49810Y68693D01*
X49919Y68644D01*
X50002Y68576D01*
X50059Y68497D01*
X50064D01*
X50076Y68685D01*
X50262D01*
X50254Y68539D01*
X50252Y68373D01*
Y67532D01*
G37*
G36*
X50707Y68880D02*X50653Y68890D01*
X50612Y68918D01*
X50586Y68959D01*
X50577Y69009D01*
X50586Y69060D01*
X50612Y69102D01*
X50653Y69130D01*
X50705Y69140D01*
X50759Y69130D01*
X50800Y69102D01*
X50827Y69060D01*
X50836Y69009D01*
X50827Y68959D01*
X50802Y68918D01*
X50762Y68890D01*
X50710Y68880D01*
X50707D01*
G37*
G36*
X50600Y67532D02*Y68685D01*
X50810D01*
Y67532D01*
X50600D01*
G37*
G36*
X37323Y72200D02*Y71514D01*
X37327D01*
X37378Y71579D01*
X37453Y71635D01*
X37553Y71673D01*
X37675Y71688D01*
X37874Y71645D01*
X38039Y71523D01*
X38152Y71328D01*
X38192Y71069D01*
X38154Y70829D01*
X38049Y70644D01*
X37892Y70525D01*
X37696Y70483D01*
X37565Y70500D01*
X37455Y70548D01*
X37368Y70619D01*
X37306Y70709D01*
X37376Y70798D01*
X37447Y70719D01*
X37538Y70669D01*
X37640Y70651D01*
X37787Y70685D01*
X37894Y70778D01*
X37958Y70914D01*
X37980Y71080D01*
X37957Y71256D01*
X37889Y71396D01*
X37780Y71490D01*
X37635Y71523D01*
X37525Y71504D01*
X37436Y71452D01*
X37370Y71376D01*
X37332Y71283D01*
X37323Y71192D01*
Y70992D01*
X37332Y70904D01*
X37376Y70798D01*
X37306Y70709D01*
X37302D01*
X37292Y70509D01*
X37104D01*
X37111Y70649D01*
X37113Y70807D01*
Y72200D01*
X37323D01*
G37*
G36*
X37578Y75176D02*Y74490D01*
X37583D01*
X37634Y74556D01*
X37709Y74611D01*
X37808Y74650D01*
X37931Y74664D01*
X38130Y74622D01*
X38295Y74499D01*
X38407Y74304D01*
X38448Y74045D01*
X38410Y73806D01*
X38305Y73621D01*
X38147Y73502D01*
X37952Y73459D01*
X37821Y73476D01*
X37711Y73524D01*
X37624Y73596D01*
X37562Y73685D01*
X37632Y73775D01*
X37703Y73696D01*
X37793Y73645D01*
X37895Y73628D01*
X38043Y73662D01*
X38150Y73754D01*
X38214Y73891D01*
X38236Y74057D01*
X38212Y74233D01*
X38144Y74373D01*
X38036Y74466D01*
X37891Y74500D01*
X37781Y74481D01*
X37692Y74429D01*
X37626Y74352D01*
X37588Y74260D01*
X37578Y74169D01*
Y73968D01*
X37588Y73881D01*
X37632Y73775D01*
X37562Y73685D01*
X37557D01*
X37548Y73486D01*
X37359D01*
X37367Y73625D01*
X37369Y73783D01*
Y75176D01*
X37578D01*
G37*
G36*
X38377Y71047D02*X38370Y71144D01*
X38391Y71319D01*
X38466Y71496D01*
X38611Y71632D01*
X38844Y71688D01*
X39071Y71639D01*
X39242Y71507D01*
X39350Y71310D01*
X39387Y71066D01*
X39348Y70830D01*
X39236Y70646D01*
X39058Y70527D01*
X38820Y70485D01*
X38693Y70492D01*
X38586Y70510D01*
X38500Y70533D01*
X38435Y70559D01*
X38472Y70709D01*
X38605Y70667D01*
X38792Y70650D01*
X38941Y70672D01*
X39065Y70743D01*
X39151Y70866D01*
X39185Y71047D01*
X39183Y71197D01*
X39155Y71312D01*
X39096Y71422D01*
X38999Y71505D01*
X38861Y71538D01*
X38782Y71529D01*
X38717Y71503D01*
X38667Y71465D01*
X38628Y71418D01*
X38601Y71364D01*
X38584Y71307D01*
X38575Y71250D01*
X38573Y71197D01*
X39183D01*
X39185Y71047D01*
X38377D01*
G37*
G36*
X39685Y73486D02*X39476D01*
Y74181D01*
X39461Y74278D01*
X39420Y74361D01*
X39358Y74429D01*
X39276Y74476D01*
X39180Y74493D01*
X39055Y74465D01*
X38973Y74391D01*
X38928Y74282D01*
X38914Y74150D01*
Y73486D01*
X38704D01*
Y74174D01*
X38715Y74308D01*
X38745Y74417D01*
X38791Y74503D01*
X38848Y74567D01*
X38912Y74613D01*
X38980Y74643D01*
X39048Y74659D01*
X39111Y74664D01*
X39243Y74646D01*
X39352Y74597D01*
X39436Y74529D01*
X39492Y74450D01*
X39497D01*
X39509Y74638D01*
X39695D01*
X39687Y74492D01*
X39685Y74326D01*
Y73486D01*
G37*
G36*
X40022Y74193D02*X40026Y74280D01*
X40041Y74364D01*
X40068Y74444D01*
X40109Y74515D01*
X40167Y74576D01*
X40244Y74623D01*
X40342Y74653D01*
X40463Y74664D01*
X40672Y74636D01*
X40843Y74564D01*
X40796Y74424D01*
X40656Y74487D01*
X40494Y74509D01*
X40415Y74502D01*
X40353Y74482D01*
X40307Y74451D01*
X40274Y74413D01*
X40252Y74370D01*
X40239Y74325D01*
X40233Y74282D01*
X40232Y74242D01*
Y74219D01*
X40528Y74192D01*
X40745Y74110D01*
X40879Y73975D01*
X40925Y73790D01*
X40902Y73668D01*
X40836Y73562D01*
X40726Y73487D01*
X40572Y73459D01*
X40456Y73473D01*
X40358Y73511D01*
X40278Y73566D01*
X40220Y73630D01*
X40273Y73736D01*
X40333Y73674D01*
X40416Y73630D01*
X40519Y73614D01*
X40594Y73626D01*
X40656Y73662D01*
X40699Y73725D01*
X40715Y73814D01*
X40703Y73890D01*
X40671Y73950D01*
X40621Y73996D01*
X40556Y74030D01*
X40482Y74053D01*
X40400Y74066D01*
X40314Y74073D01*
X40227Y74074D01*
Y73873D01*
X40236Y73807D01*
X40273Y73736D01*
X40220Y73630D01*
X40212D01*
X40193Y73486D01*
X40005D01*
X40018Y73616D01*
X40022Y73762D01*
Y74193D01*
G37*
G36*
X40058Y70509D02*X39848D01*
Y71125D01*
X39840Y71223D01*
X39805Y71330D01*
X39745Y71414D01*
X39662Y71470D01*
X39560Y71490D01*
X39488Y71485D01*
Y71683D01*
X39545Y71688D01*
X39648Y71670D01*
X39739Y71619D01*
X39814Y71540D01*
X39867Y71435D01*
X39874D01*
X39883Y71661D01*
X40067D01*
X40059Y71492D01*
X40058Y71302D01*
Y70509D01*
G37*
G36*
X40404Y71661D02*X40614D01*
Y70956D01*
X40633Y70849D01*
X40672Y70779D01*
X40733Y70717D01*
X40812Y70674D01*
X40909Y70657D01*
X41029Y70684D01*
X41108Y70759D01*
X41153Y70876D01*
X41166Y71026D01*
Y71661D01*
X41376D01*
Y70987D01*
X41366Y70850D01*
X41339Y70739D01*
X41298Y70651D01*
X41245Y70584D01*
X41184Y70536D01*
X41117Y70505D01*
X41047Y70488D01*
X40978Y70483D01*
X40840Y70503D01*
X40731Y70555D01*
X40650Y70624D01*
X40598Y70697D01*
X40592D01*
X40580Y70509D01*
X40395D01*
X40404Y70826D01*
Y71661D01*
G37*
G36*
X42107Y71873D02*Y71661D01*
X42286D01*
Y71502D01*
X42107D01*
Y70876D01*
X42088Y70698D01*
X42026Y70573D01*
X41931Y70508D01*
X41800Y70485D01*
X41692Y70494D01*
X41614Y70513D01*
X41624Y70673D01*
X41675Y70662D01*
X41745Y70659D01*
X41819Y70674D01*
X41868Y70717D01*
X41894Y70788D01*
X41902Y70882D01*
Y71502D01*
X41603D01*
Y71661D01*
X41902D01*
Y71938D01*
X42107Y71873D01*
G37*
G36*
X42467Y70709D02*X42573Y70672D01*
X42724Y70654D01*
X42883Y70684D01*
X43010Y70770D01*
X43094Y70905D01*
X43124Y71085D01*
X43098Y71254D01*
X43019Y71392D01*
X42892Y71486D01*
X42717Y71521D01*
X42571Y71503D01*
X42474Y71466D01*
X42426Y71626D01*
X42546Y71668D01*
X42717Y71688D01*
X42972Y71642D01*
X43167Y71514D01*
X43292Y71319D01*
X43336Y71073D01*
X43295Y70833D01*
X43179Y70647D01*
X42998Y70528D01*
X42762Y70485D01*
X42653Y70492D01*
X42559Y70509D01*
X42484Y70530D01*
X42431Y70552D01*
X42467Y70709D01*
G37*
G36*
X43589Y71216D02*X43593Y71303D01*
X43608Y71387D01*
X43635Y71467D01*
X43676Y71538D01*
X43734Y71599D01*
X43811Y71646D01*
X43909Y71677D01*
X44030Y71688D01*
X44239Y71660D01*
X44411Y71587D01*
X44363Y71447D01*
X44223Y71510D01*
X44061Y71533D01*
X43982Y71526D01*
X43920Y71506D01*
X43874Y71475D01*
X43841Y71436D01*
X43820Y71393D01*
X43807Y71348D01*
X43800Y71305D01*
X43799Y71266D01*
Y71242D01*
X44095Y71216D01*
X44312Y71133D01*
X44446Y70999D01*
X44492Y70814D01*
X44470Y70692D01*
X44403Y70586D01*
X44293Y70511D01*
X44139Y70483D01*
X44024Y70497D01*
X43925Y70534D01*
X43845Y70589D01*
X43787Y70654D01*
X43840Y70759D01*
X43900Y70697D01*
X43983Y70654D01*
X44087Y70637D01*
X44162Y70649D01*
X44224Y70686D01*
X44266Y70748D01*
X44282Y70837D01*
X44270Y70913D01*
X44238Y70973D01*
X44188Y71019D01*
X44124Y71053D01*
X44049Y71076D01*
X43967Y71090D01*
X43881Y71096D01*
X43794Y71097D01*
Y70897D01*
X43804Y70830D01*
X43840Y70759D01*
X43787Y70654D01*
X43780D01*
X43761Y70509D01*
X43572D01*
X43585Y70639D01*
X43589Y70785D01*
Y71216D01*
G37*
G36*
X44870Y70509D02*Y71502D01*
X44594D01*
Y71661D01*
X44873D01*
Y71723D01*
X44863Y71850D01*
X44827Y71956D01*
X44758Y72029D01*
X44649Y72057D01*
X44570Y72049D01*
X44513Y72031D01*
X44487Y72192D01*
X44563Y72215D01*
X44665Y72226D01*
X44811Y72201D01*
X44944Y72119D01*
X45006Y72039D01*
X45049Y71943D01*
X45072Y71834D01*
X45080Y71716D01*
Y71661D01*
X45239D01*
Y71502D01*
X45080D01*
Y70509D01*
X44870D01*
G37*
G36*
X45446Y71661D02*X45656D01*
Y70956D01*
X45675Y70849D01*
X45714Y70779D01*
X45774Y70717D01*
X45854Y70674D01*
X45951Y70657D01*
X46070Y70684D01*
X46150Y70759D01*
X46194Y70876D01*
X46208Y71026D01*
Y71661D01*
X46417D01*
Y70987D01*
X46408Y70850D01*
X46381Y70739D01*
X46339Y70651D01*
X46286Y70584D01*
X46225Y70536D01*
X46158Y70505D01*
X46089Y70488D01*
X46020Y70483D01*
X45881Y70503D01*
X45772Y70555D01*
X45692Y70624D01*
X45639Y70697D01*
X45634D01*
X45622Y70509D01*
X45436D01*
X45446Y70826D01*
Y71661D01*
G37*
G36*
X47731Y70509D02*X47522D01*
Y71204D01*
X47507Y71302D01*
X47466Y71384D01*
X47404Y71453D01*
X47322Y71499D01*
X47226Y71516D01*
X47102Y71489D01*
X47019Y71414D01*
X46974Y71305D01*
X46960Y71173D01*
Y70509D01*
X46750D01*
Y71197D01*
X46761Y71332D01*
X46791Y71441D01*
X46837Y71526D01*
X46894Y71591D01*
X46958Y71637D01*
X47026Y71667D01*
X47094Y71683D01*
X47157Y71688D01*
X47289Y71669D01*
X47398Y71621D01*
X47482Y71552D01*
X47538Y71473D01*
X47543D01*
X47555Y71661D01*
X47741D01*
X47733Y71515D01*
X47731Y71350D01*
Y70509D01*
G37*
G36*
X48068Y71216D02*X48072Y71303D01*
X48087Y71387D01*
X48114Y71467D01*
X48155Y71538D01*
X48213Y71599D01*
X48290Y71646D01*
X48388Y71677D01*
X48509Y71688D01*
X48718Y71660D01*
X48890Y71587D01*
X48842Y71447D01*
X48702Y71510D01*
X48540Y71533D01*
X48461Y71526D01*
X48399Y71506D01*
X48353Y71475D01*
X48320Y71436D01*
X48298Y71393D01*
X48285Y71348D01*
X48279Y71305D01*
X48278Y71266D01*
Y71242D01*
X48574Y71216D01*
X48791Y71133D01*
X48925Y70999D01*
X48971Y70814D01*
X48948Y70692D01*
X48882Y70586D01*
X48772Y70511D01*
X48618Y70483D01*
X48502Y70497D01*
X48404Y70534D01*
X48324Y70589D01*
X48266Y70654D01*
X48319Y70759D01*
X48379Y70697D01*
X48462Y70654D01*
X48565Y70637D01*
X48640Y70649D01*
X48702Y70686D01*
X48745Y70748D01*
X48761Y70837D01*
X48749Y70913D01*
X48717Y70973D01*
X48667Y71019D01*
X48602Y71053D01*
X48528Y71076D01*
X48446Y71090D01*
X48360Y71096D01*
X48273Y71097D01*
Y70897D01*
X48282Y70830D01*
X48319Y70759D01*
X48266Y70654D01*
X48258D01*
X48239Y70509D01*
X48051D01*
X48064Y70639D01*
X48068Y70785D01*
Y71216D01*
G37*
G36*
X49412Y70509D02*X49207D01*
X49308Y72114D01*
X49572D01*
X49857Y71338D01*
X50029Y70794D01*
X50034D01*
X50196Y71338D01*
X50470Y72114D01*
X50734D01*
X50846Y70509D01*
X50648D01*
X50605Y71197D01*
X50586Y71567D01*
X50574Y71907D01*
X50570D01*
X50386Y71283D01*
X50124Y70518D01*
X49967D01*
X49684Y71297D01*
X49481Y71907D01*
X49476D01*
X49468Y71569D01*
X49450Y71214D01*
X49412Y70509D01*
G37*
G36*
X41899Y75176D02*Y74490D01*
X41904D01*
X41954Y74556D01*
X42030Y74611D01*
X42129Y74650D01*
X42252Y74664D01*
X42450Y74622D01*
X42616Y74499D01*
X42728Y74304D01*
X42768Y74045D01*
X42730Y73806D01*
X42625Y73621D01*
X42468Y73502D01*
X42273Y73459D01*
X42142Y73476D01*
X42031Y73524D01*
X41944Y73596D01*
X41883Y73685D01*
X41953Y73775D01*
X42024Y73696D01*
X42114Y73645D01*
X42216Y73628D01*
X42364Y73662D01*
X42470Y73754D01*
X42535Y73891D01*
X42556Y74057D01*
X42533Y74233D01*
X42465Y74373D01*
X42357Y74466D01*
X42211Y74500D01*
X42102Y74481D01*
X42012Y74429D01*
X41947Y74352D01*
X41908Y74260D01*
X41899Y74169D01*
Y73968D01*
X41908Y73881D01*
X41953Y73775D01*
X41883Y73685D01*
X41878D01*
X41868Y73486D01*
X41680D01*
X41687Y73625D01*
X41689Y73783D01*
Y75176D01*
X41899D01*
G37*
G36*
X42954Y74023D02*X42947Y74121D01*
X42968Y74295D01*
X43042Y74472D01*
X43188Y74609D01*
X43420Y74664D01*
X43647Y74616D01*
X43818Y74484D01*
X43926Y74286D01*
X43964Y74042D01*
X43925Y73806D01*
X43812Y73623D01*
X43634Y73504D01*
X43397Y73462D01*
X43270Y73468D01*
X43163Y73486D01*
X43077Y73510D01*
X43011Y73535D01*
X43049Y73685D01*
X43181Y73643D01*
X43368Y73626D01*
X43518Y73649D01*
X43642Y73720D01*
X43727Y73843D01*
X43761Y74023D01*
X43759Y74174D01*
X43732Y74288D01*
X43672Y74398D01*
X43576Y74482D01*
X43438Y74514D01*
X43358Y74505D01*
X43294Y74480D01*
X43243Y74442D01*
X43205Y74394D01*
X43178Y74340D01*
X43160Y74283D01*
X43152Y74227D01*
X43149Y74174D01*
X43759D01*
X43761Y74023D01*
X42954D01*
G37*
G36*
X45201Y73486D02*X44992D01*
Y74181D01*
X44977Y74278D01*
X44936Y74361D01*
X44873Y74429D01*
X44792Y74476D01*
X44696Y74493D01*
X44571Y74465D01*
X44489Y74391D01*
X44444Y74282D01*
X44430Y74150D01*
Y73486D01*
X44220D01*
Y74174D01*
X44231Y74308D01*
X44261Y74417D01*
X44307Y74503D01*
X44364Y74567D01*
X44428Y74613D01*
X44496Y74643D01*
X44564Y74659D01*
X44627Y74664D01*
X44759Y74646D01*
X44868Y74597D01*
X44951Y74529D01*
X45008Y74450D01*
X45013D01*
X45025Y74638D01*
X45211D01*
X45203Y74492D01*
X45201Y74326D01*
Y73486D01*
G37*
G36*
X45532Y74324D02*X45529Y74502D01*
X45522Y74638D01*
X45708D01*
X45715Y74464D01*
X45720D01*
X45770Y74537D01*
X45844Y74601D01*
X45946Y74647D01*
X46079Y74664D01*
X46273Y74624D01*
X46440Y74506D01*
X46557Y74314D01*
X46601Y74054D01*
X46564Y73831D01*
X46463Y73652D01*
X46308Y73533D01*
X46110Y73490D01*
X45986Y73505D01*
X45883Y73546D01*
X45802Y73608D01*
X45743Y73683D01*
X45803Y73775D01*
X45870Y73707D01*
X45954Y73665D01*
X46048Y73650D01*
X46196Y73683D01*
X46302Y73773D01*
X46367Y73905D01*
X46389Y74064D01*
X46363Y74246D01*
X46292Y74384D01*
X46184Y74472D01*
X46046Y74502D01*
X45940Y74485D01*
X45856Y74437D01*
X45793Y74366D01*
X45753Y74278D01*
X45741Y74186D01*
Y73978D01*
X45758Y73866D01*
X45803Y73775D01*
X45743Y73683D01*
X45739D01*
Y73557D01*
X45767Y73370D01*
X45844Y73245D01*
X45962Y73174D01*
X46110Y73152D01*
X46304Y73180D01*
X46448Y73245D01*
X46500Y73083D01*
X46421Y73042D01*
X46326Y73012D01*
X46222Y72994D01*
X46117Y72988D01*
X46006Y72995D01*
X45895Y73018D01*
X45790Y73061D01*
X45696Y73126D01*
X45624Y73214D01*
X45573Y73328D01*
X45542Y73474D01*
X45532Y73654D01*
Y74324D01*
G37*
G36*
X46973Y74833D02*X46918Y74844D01*
X46877Y74872D01*
X46851Y74912D01*
X46842Y74962D01*
X46852Y75014D01*
X46878Y75055D01*
X46918Y75083D01*
X46971Y75093D01*
X47024Y75083D01*
X47066Y75055D01*
X47092Y75014D01*
X47102Y74962D01*
X47093Y74912D01*
X47067Y74872D01*
X47027Y74844D01*
X46975Y74833D01*
X46973D01*
G37*
G36*
X46866Y73486D02*Y74638D01*
X47076D01*
Y73486D01*
X46866D01*
G37*
G36*
X48098Y73543D02*X47953Y73484D01*
X47774Y73462D01*
X47594Y73487D01*
X47459Y73559D01*
X47375Y73669D01*
X47346Y73810D01*
X47365Y73925D01*
X47423Y74018D01*
X47518Y74094D01*
X47648Y74155D01*
X47745Y74197D01*
X47813Y74240D01*
X47852Y74290D01*
X47865Y74352D01*
X47852Y74413D01*
X47816Y74463D01*
X47756Y74497D01*
X47674Y74509D01*
X47533Y74486D01*
X47438Y74442D01*
X47388Y74593D01*
X47508Y74644D01*
X47669Y74664D01*
X47835Y74637D01*
X47960Y74565D01*
X48040Y74457D01*
X48067Y74326D01*
X48049Y74229D01*
X47992Y74141D01*
X47896Y74064D01*
X47760Y74000D01*
X47662Y73957D01*
X47597Y73911D01*
X47560Y73857D01*
X47548Y73790D01*
X47562Y73722D01*
X47602Y73668D01*
X47672Y73632D01*
X47770Y73619D01*
X47924Y73645D01*
X48048Y73700D01*
X48098Y73543D01*
G37*
G36*
X48288Y74023D02*X48281Y74121D01*
X48302Y74295D01*
X48377Y74472D01*
X48522Y74609D01*
X48755Y74664D01*
X48982Y74616D01*
X49153Y74484D01*
X49261Y74286D01*
X49298Y74042D01*
X49259Y73806D01*
X49147Y73623D01*
X48969Y73504D01*
X48731Y73462D01*
X48604Y73468D01*
X48498Y73486D01*
X48412Y73510D01*
X48346Y73535D01*
X48384Y73685D01*
X48516Y73643D01*
X48703Y73626D01*
X48852Y73649D01*
X48976Y73720D01*
X49062Y73843D01*
X49096Y74023D01*
X49094Y74174D01*
X49066Y74288D01*
X49007Y74398D01*
X48910Y74482D01*
X48772Y74514D01*
X48693Y74505D01*
X48628Y74480D01*
X48578Y74442D01*
X48540Y74394D01*
X48512Y74340D01*
X48495Y74283D01*
X48486Y74227D01*
X48484Y74174D01*
X49094D01*
X49096Y74023D01*
X48288D01*
G37*
G36*
X50805Y73490D02*X50632Y73475D01*
X50427Y73471D01*
X50011Y73530D01*
X49715Y73702D01*
X49544Y73971D01*
X49484Y74326D01*
X49544Y74662D01*
X49712Y74902D01*
X49978Y75051D01*
X50362Y75102D01*
X50353Y74938D01*
X50066Y74894D01*
X49863Y74770D01*
X49742Y74575D01*
X49703Y74319D01*
X49747Y74029D01*
X49878Y73815D01*
X50092Y73682D01*
X50386Y73638D01*
X50502Y73639D01*
X50596Y73647D01*
Y74916D01*
X50494Y74932D01*
X50353Y74938D01*
X50362Y75102D01*
X50597Y75093D01*
X50805Y75069D01*
Y73490D01*
G37*
G36*
X57094Y69530D02*X57031Y69486D01*
X56999Y69467D01*
X56959Y69480D01*
X56916Y69517D01*
X56874Y69571D01*
X56837Y69639D01*
X56805Y69702D01*
X56773Y69742D01*
X56729Y69768D01*
X56662Y69788D01*
X56540Y69818D01*
X56548Y69980D01*
X56554Y70073D01*
X56565Y70122D01*
X56590Y70140D01*
X56635Y70143D01*
X56711Y70150D01*
X56754Y70168D01*
X56764Y70197D01*
X56740Y70237D01*
X56693Y70276D01*
X56645Y70302D01*
X56607Y70328D01*
X56600Y70373D01*
X56623Y70436D01*
X56678Y70516D01*
X56721Y70574D01*
X56743Y70622D01*
X56749Y70673D01*
X56743Y70742D01*
X56737Y70809D01*
X56740Y70855D01*
X56756Y70890D01*
X56787Y70924D01*
X56872Y70999D01*
X56939Y71037D01*
X57004Y71045D01*
X57086Y71028D01*
X57187Y71009D01*
X57242Y71027D01*
X57285Y71045D01*
X57333Y71042D01*
X57373Y71022D01*
X57390Y70989D01*
X57410Y70926D01*
X57461Y70895D01*
X57528Y70898D01*
X57596Y70941D01*
X57664Y70971D01*
X57733Y70944D01*
X57793Y70868D01*
X57833Y70753D01*
X57848Y70691D01*
X57866Y70660D01*
X57902Y70650D01*
X57966Y70653D01*
X58027Y70656D01*
X58061Y70650D01*
X58075Y70632D01*
X58077Y70595D01*
X58070Y70544D01*
X58051Y70513D01*
X58019Y70480D01*
X57978Y70483D01*
X57989Y70541D01*
X57378Y70532D01*
X56768Y70523D01*
X56705Y70453D01*
X56642Y70382D01*
X56704Y70342D01*
X56759Y70299D01*
X56806Y70254D01*
X56849Y70230D01*
X56960Y70216D01*
X57194Y70210D01*
X57604Y70208D01*
X58362D01*
X58378Y70267D01*
X58386Y70310D01*
X58386Y70332D01*
X58369Y70337D01*
X58329Y70345D01*
X58271Y70354D01*
X58202Y70364D01*
X58076Y70385D01*
X58006Y70407D01*
X57977Y70438D01*
X57978Y70483D01*
X58019Y70480D01*
X58047Y70454D01*
X58142Y70430D01*
X58312Y70405D01*
X58454Y70388D01*
X58440Y70282D01*
X58426Y70222D01*
X58393Y70163D01*
X58332Y70092D01*
X58232Y69995D01*
X58125Y69898D01*
X58052Y69844D01*
X57993Y69819D01*
X57929Y69813D01*
X57868Y69814D01*
X57833Y69824D01*
X57815Y69850D01*
X57803Y69896D01*
X57779Y69970D01*
X57741Y70027D01*
X57693Y70063D01*
X57637Y70076D01*
X57604Y70073D01*
X57585Y70059D01*
X57577Y70028D01*
X57575Y69975D01*
X57560Y69883D01*
X57506Y69814D01*
X57461Y69760D01*
X57454Y69714D01*
X57484Y69602D01*
X57470Y69539D01*
X57406Y69523D01*
X57293Y69552D01*
X57227Y69574D01*
X57183Y69579D01*
X57144Y69565D01*
X57094Y69530D01*
G37*
G36*
X57611Y64091D02*X57565Y64030D01*
X57514Y64020D01*
X57459Y64062D01*
X57397Y64156D01*
X57349Y64238D01*
X57306Y64278D01*
X57252Y64286D01*
X57171Y64269D01*
X57114Y64262D01*
X57098Y64287D01*
X57089Y64327D01*
X57065Y64370D01*
X57043Y64394D01*
X57016Y64401D01*
X56968Y64392D01*
X56886Y64364D01*
X56603Y64250D01*
X56390Y64133D01*
X56302Y64088D01*
X56227Y64075D01*
X56165Y64104D01*
X56104Y64171D01*
X56046Y64274D01*
X55995Y64407D01*
X55952Y64514D01*
X55914Y64566D01*
X55919Y64609D01*
X55971Y64587D01*
X56009Y64527D01*
X56052Y64412D01*
X56093Y64311D01*
X56132Y64240D01*
X56153Y64233D01*
X56164Y64302D01*
X56170Y64481D01*
X56172Y64804D01*
X56172Y65419D01*
X56073Y65419D01*
X56000Y65415D01*
X55950Y65399D01*
X55918Y65370D01*
X55897Y65322D01*
X55859Y65272D01*
X55788Y65234D01*
X55696Y65204D01*
Y64908D01*
X55696Y64612D01*
X55832D01*
X55919Y64609D01*
X55914Y64566D01*
X55811Y64561D01*
X55619Y64521D01*
X55384Y64456D01*
X55152Y64378D01*
X55028Y64345D01*
X54881Y64320D01*
X54717Y64301D01*
Y64468D01*
X54470Y64450D01*
X54223Y64433D01*
X54206Y64517D01*
X54180Y64590D01*
X54134Y64612D01*
X54060Y64580D01*
X53948Y64496D01*
X53880Y64442D01*
X53814Y64396D01*
X53758Y64361D01*
X53719Y64344D01*
X53673Y64340D01*
X53679Y64388D01*
X53716Y64400D01*
X53770Y64432D01*
X53842Y64483D01*
X53930Y64553D01*
X54056Y64657D01*
Y68991D01*
X52767D01*
X52644Y68897D01*
X52566Y68834D01*
X52530Y68788D01*
X52532Y68744D01*
X52564Y68686D01*
X52606Y68621D01*
X53632D01*
X53364Y68270D01*
X53107Y67934D01*
X52912Y67677D01*
X52772Y67490D01*
X52678Y67359D01*
X52623Y67273D01*
X52598Y67221D01*
X52595Y67191D01*
X52607Y67172D01*
X52639Y67124D01*
X52657Y67075D01*
X52665Y67064D01*
X52684Y67073D01*
X52722Y67111D01*
X52785Y67186D01*
X52880Y67306D01*
X53015Y67480D01*
X53195Y67715D01*
X53427Y68020D01*
X53606Y68255D01*
Y67659D01*
X52825Y66619D01*
X52669Y66410D01*
X52522Y66214D01*
X52390Y66036D01*
X52274Y65880D01*
X52179Y65751D01*
X52107Y65652D01*
X52061Y65589D01*
X52045Y65565D01*
X52068Y65556D01*
X52122Y65552D01*
X52227Y65537D01*
X52279Y65496D01*
X52276Y65438D01*
X52213Y65368D01*
X52166Y65326D01*
X52153Y65303D01*
X52173Y65298D01*
X52219Y65291D01*
X52285Y65283D01*
X52362Y65276D01*
X52561Y65260D01*
X53103Y66043D01*
X53646Y66827D01*
X53652Y65607D01*
X53657Y65134D01*
X53663Y64746D01*
X53671Y64484D01*
X53679Y64388D01*
X53673Y64340D01*
X53596Y64341D01*
X53499Y64348D01*
X53393Y64359D01*
X53256Y64373D01*
X53164Y64377D01*
X53098Y64370D01*
X53039Y64350D01*
X52967Y64310D01*
X52928Y64269D01*
X52894Y64236D01*
X52831Y64233D01*
X52747Y64258D01*
X52647Y64312D01*
X52556Y64363D01*
X52475Y64389D01*
X52391Y64393D01*
X52293Y64376D01*
X52248Y64367D01*
X52219Y64372D01*
X52200Y64394D01*
X52182Y64438D01*
X52163Y64483D01*
X52138Y64508D01*
X52096Y64518D01*
X52023Y64520D01*
X51907Y64533D01*
X51820Y64577D01*
X51739Y64670D01*
X51694Y64776D01*
X51691Y64869D01*
X51738Y64925D01*
X51767Y64927D01*
X51820Y64924D01*
X51890Y64915D01*
X51968Y64901D01*
X52045Y64886D01*
X52108Y64875D01*
X52153Y64867D01*
X52170Y64864D01*
X52175Y64887D01*
X52177Y64942D01*
X52184Y65000D01*
X52212Y65036D01*
X52275Y65057D01*
X52285Y65010D01*
X52243Y64978D01*
X52230Y64915D01*
X52233Y64860D01*
X52244Y64842D01*
X52226Y64801D01*
X52043Y64832D01*
X51885Y64857D01*
X51799Y64861D01*
X51762Y64843D01*
X51754Y64799D01*
X51772Y64733D01*
X51814Y64666D01*
X51874Y64618D01*
X51949Y64590D01*
X52022Y64586D01*
X52078Y64608D01*
X52121Y64654D01*
X52171Y64720D01*
X52226Y64801D01*
X52244Y64842D01*
X52268Y64862D01*
X52311Y64918D01*
X52345Y64974D01*
X52353Y65008D01*
X52333Y65019D01*
X52285Y65010D01*
X52275Y65057D01*
X52386Y65073D01*
X52462Y65083D01*
X52509Y65096D01*
X52533Y65116D01*
X52542Y65145D01*
X52542Y65177D01*
X52519Y65195D01*
X52461Y65205D01*
X52351Y65212D01*
X52256Y65219D01*
X52186Y65230D01*
X52137Y65247D01*
X52105Y65269D01*
X52081Y65297D01*
X52077Y65320D01*
X52097Y65347D01*
X52144Y65388D01*
X52205Y65444D01*
X52230Y65479D01*
X52215Y65487D01*
X52171Y65493D01*
X52108Y65497D01*
X52030Y65499D01*
X51916Y65500D01*
X51859Y65507D01*
X51842Y65524D01*
X51849Y65558D01*
X51872Y65645D01*
X51865Y65696D01*
X51822Y65721D01*
X51736Y65732D01*
X51682Y65736D01*
X51639Y65743D01*
X51604Y65756D01*
X51575Y65779D01*
X51546Y65814D01*
X51586Y65847D01*
X51632Y65801D01*
X51687Y65800D01*
X51754Y65846D01*
X51837Y65941D01*
X52015Y66172D01*
X52158Y66357D01*
X52267Y66502D01*
X52346Y66610D01*
X52398Y66685D01*
X52425Y66732D01*
X52430Y66754D01*
X52418Y66756D01*
X52362Y66753D01*
X52312Y66780D01*
X52296Y66791D01*
X52277Y66792D01*
X52253Y66779D01*
X52220Y66747D01*
X52172Y66694D01*
X52108Y66613D01*
X52022Y66502D01*
X51911Y66357D01*
X51814Y66227D01*
X51735Y66122D01*
X51676Y66038D01*
X51632Y65973D01*
X51603Y65924D01*
X51587Y65889D01*
X51582Y65864D01*
X51586Y65847D01*
X51546Y65814D01*
X51517Y65864D01*
X51484Y65933D01*
X51443Y66022D01*
X51396Y66128D01*
X51360Y66216D01*
X51334Y66288D01*
X51318Y66348D01*
X51309Y66401D01*
X51309Y66450D01*
X51314Y66498D01*
X51326Y66550D01*
X51378Y66698D01*
X51452Y66809D01*
X51566Y66903D01*
X51734Y66995D01*
X51862Y67055D01*
X51958Y67090D01*
X52041Y67108D01*
X52128Y67113D01*
X52234Y67105D01*
X52297Y67076D01*
X52328Y67017D01*
X52336Y66918D01*
X52343Y66848D01*
X52359Y66810D01*
X52407Y66817D01*
X52477Y66861D01*
X52544Y66923D01*
X52584Y66985D01*
X52598Y67052D01*
X52584Y67105D01*
X52537Y67150D01*
X52456Y67192D01*
X52361Y67245D01*
X52336Y67304D01*
X52348Y67397D01*
X52380Y67516D01*
X52425Y67644D01*
X52478Y67761D01*
X52532Y67878D01*
X52554Y67960D01*
X52542Y68011D01*
X52497Y68037D01*
X52427Y68067D01*
X52398Y68117D01*
X52411Y68196D01*
X52462Y68311D01*
X52520Y68437D01*
X52544Y68536D01*
X52534Y68613D01*
X52492Y68677D01*
X52463Y68709D01*
X52451Y68734D01*
X52454Y68762D01*
X52472Y68800D01*
X52496Y68834D01*
X52535Y68876D01*
X52583Y68920D01*
X52635Y68962D01*
X52699Y69014D01*
X52743Y69062D01*
X52773Y69113D01*
X52794Y69174D01*
X52837Y69272D01*
X52904Y69348D01*
X52990Y69399D01*
X53089Y69420D01*
X53180Y69437D01*
X53265Y69478D01*
X53332Y69533D01*
X53367Y69594D01*
X53371Y69661D01*
X53370Y69797D01*
X53366Y69983D01*
X53359Y70199D01*
X53352Y70415D01*
X53348Y70600D01*
X53348Y70735D01*
X53352Y70800D01*
X53396Y70865D01*
X53481Y70940D01*
X53540Y70986D01*
X53585Y71036D01*
X53622Y71097D01*
X53656Y71177D01*
X53714Y71321D01*
X53768Y71449D01*
X53820Y71565D01*
X53971Y71548D01*
X53962Y71499D01*
X53893Y71494D01*
X53839Y71454D01*
X53790Y71369D01*
X53736Y71227D01*
X53700Y71135D01*
X53661Y71059D01*
X53615Y70993D01*
X53560Y70932D01*
X53516Y70888D01*
X53480Y70850D01*
X53456Y70823D01*
X53447Y70810D01*
X53455Y70796D01*
X53474Y70767D01*
X53504Y70728D01*
X53539Y70682D01*
X53632Y70566D01*
X53520Y70552D01*
X53442Y70537D01*
X53414Y70519D01*
X53419Y70462D01*
X53421Y70354D01*
Y70208D01*
X54057D01*
X54050Y70850D01*
X54042Y71492D01*
X53962Y71499D01*
X53971Y71548D01*
X54275Y71518D01*
X54453Y71516D01*
X54527Y71544D01*
X54516Y71603D01*
X54464Y71641D01*
X54364Y71658D01*
X54263Y71676D01*
X54214Y71718D01*
X54186Y71752D01*
X54147Y71767D01*
X54090Y71762D01*
X54011Y71738D01*
X53932Y71719D01*
X53891Y71737D01*
X53888Y71793D01*
X53921Y71889D01*
X53960Y71861D01*
X53956Y71819D01*
X53972Y71794D01*
X54009Y71790D01*
X54024Y71798D01*
X54035Y71820D01*
X54043Y71865D01*
X54049Y71942D01*
X54052Y72060D01*
X54054Y72227D01*
X54056Y72454D01*
X54056Y72748D01*
Y73696D01*
X53932Y73658D01*
X53823Y73632D01*
X53734Y73622D01*
X53658D01*
X53665Y73059D01*
X53672Y72497D01*
X53814Y72421D01*
X53931Y72342D01*
X53992Y72257D01*
X54020Y72165D01*
X54028Y72072D01*
X54017Y71985D01*
X53987Y71915D01*
X53960Y71861D01*
X53921Y71889D01*
X53972Y72050D01*
X53964Y72180D01*
X53896Y72288D01*
X53764Y72380D01*
X53600Y72481D01*
X53447Y72596D01*
X53322Y72714D01*
X53242Y72819D01*
X53191Y72941D01*
X53154Y73083D01*
X53210Y73079D01*
X53231Y72984D01*
X53286Y72869D01*
X53363Y72757D01*
X53450Y72667D01*
X53498Y72629D01*
X53543Y72594D01*
X53580Y72566D01*
X53604Y72550D01*
X53604Y72560D01*
X53584Y72598D01*
X53546Y72659D01*
X53496Y72736D01*
X53438Y72822D01*
X53377Y72910D01*
X53317Y72993D01*
X53262Y73066D01*
X53234Y73100D01*
X53218Y73113D01*
X53212Y73106D01*
X53210Y73079D01*
X53154Y73083D01*
X53116Y73215D01*
X53061Y73305D01*
X53016Y73368D01*
X53000Y73429D01*
X53014Y73483D01*
X53057Y73527D01*
X53152Y73568D01*
X53301Y73610D01*
X53489Y73647D01*
X53697Y73675D01*
X53894Y73709D01*
X54022Y73754D01*
X54102Y73793D01*
X54164Y73802D01*
X54219Y73781D01*
X54276Y73727D01*
X54320Y73684D01*
X54364Y73660D01*
X54426Y73650D01*
X54526Y73648D01*
X54656Y73653D01*
X54731Y73669D01*
X54760Y73700D01*
X54747Y73746D01*
X54716Y73786D01*
X54661Y73820D01*
X54578Y73852D01*
X54460Y73885D01*
X54372Y73914D01*
X54337Y73944D01*
X54354Y73975D01*
X54423Y74010D01*
X54491Y74042D01*
X54512Y74069D01*
X54487Y74100D01*
X54414Y74138D01*
X54290Y74218D01*
X54103Y74359D01*
X53901Y74524D01*
X53732Y74676D01*
X53668Y74741D01*
X53630Y74792D01*
X53611Y74839D01*
X53606Y74892D01*
X53615Y74968D01*
X53638Y75018D01*
X53672Y74984D01*
X53664Y74901D01*
X53666Y74853D01*
X53688Y74805D01*
X53741Y74745D01*
X53836Y74657D01*
X53907Y74594D01*
X53969Y74542D01*
X54014Y74507D01*
X54036Y74494D01*
X54043Y74514D01*
X54050Y74569D01*
X54054Y74649D01*
X54056Y74747D01*
Y75000D01*
X53864Y74992D01*
X53672Y74984D01*
X53638Y75018D01*
X53677Y75033D01*
X53764Y75043D01*
X53902Y75048D01*
X54095Y75050D01*
X54520D01*
X54590Y74971D01*
X54652Y74916D01*
X54701Y74911D01*
X54739Y74957D01*
X54769Y75054D01*
X54795Y75160D01*
X54824Y75233D01*
X54855Y75275D01*
X54890Y75288D01*
X54928Y75271D01*
X54966Y75225D01*
X54998Y75156D01*
X55019Y75072D01*
X55045Y74994D01*
X55093Y74966D01*
X55142Y74950D01*
X55156Y74918D01*
X55138Y74869D01*
X55086Y74801D01*
X55038Y74733D01*
X55019Y74678D01*
X55032Y74640D01*
X55075Y74627D01*
X55118Y74650D01*
X55162Y74706D01*
X55206Y74766D01*
X55241Y74783D01*
X55264Y74756D01*
X55274Y74686D01*
X55280Y74616D01*
X55301Y74634D01*
X55337Y74666D01*
X55383Y74680D01*
X55417Y74670D01*
X55427Y74634D01*
X55411Y74569D01*
X55370Y74467D01*
X55345Y74383D01*
X55350Y74332D01*
X55383Y74321D01*
X55438Y74356D01*
X55502Y74406D01*
X55541Y74414D01*
X55557Y74377D01*
X55552Y74296D01*
X55546Y74211D01*
X55562Y74180D01*
X55599Y74204D01*
X55656Y74283D01*
X55716Y74358D01*
X55766Y74389D01*
X55788Y74377D01*
X55799Y74343D01*
X55801Y74292D01*
X55795Y74228D01*
X55781Y74153D01*
X55733Y74172D01*
X55743Y74252D01*
X55740Y74298D01*
X55727Y74300D01*
X55708Y74249D01*
X55700Y74184D01*
X55702Y74120D01*
X55714Y74097D01*
X55733Y74172D01*
X55781Y74153D01*
X55760Y74072D01*
X55732Y73989D01*
X55697Y73908D01*
X55658Y73819D01*
X55634Y73745D01*
X55622Y73680D01*
X55622Y73617D01*
X55628Y73552D01*
X55640Y73519D01*
X55667Y73508D01*
X55716Y73510D01*
X55788Y73505D01*
X55821Y73475D01*
X55813Y73426D01*
X55763Y73364D01*
X55723Y73399D01*
X55748Y73422D01*
X55766Y73452D01*
X55754Y73463D01*
X55729Y73454D01*
X55708Y73434D01*
X55698Y73407D01*
X55704Y73395D01*
X55723Y73399D01*
X55763Y73364D01*
X55726Y73327D01*
X55710Y73303D01*
X55713Y73287D01*
X55734Y73272D01*
X55794Y73266D01*
X55889Y73302D01*
X56000Y73358D01*
X56047Y73301D01*
X56091Y73176D01*
X56037Y73035D01*
X56001Y72974D01*
X56004Y72942D01*
X56045Y72939D01*
X56127Y72963D01*
X56215Y72988D01*
X56279Y72991D01*
X56318Y72973D01*
X56331Y72933D01*
X56347Y72894D01*
X56384Y72867D01*
X56429Y72838D01*
X56438Y72796D01*
X56413Y72757D01*
X56358Y72731D01*
X56317Y72720D01*
X56293Y72704D01*
X56281Y72678D01*
X56278Y72639D01*
X56294Y72566D01*
X56335Y72507D01*
X56392Y72471D01*
X56458Y72465D01*
X56558Y72464D01*
X56596Y72418D01*
X56584Y72388D01*
X56549Y72367D01*
X56488Y72356D01*
X56402Y72352D01*
X56292Y72366D01*
X56184Y72403D01*
X56171Y72444D01*
X56172Y72674D01*
X56172Y72904D01*
X56061Y72899D01*
X55980Y72905D01*
X55941Y72935D01*
X55943Y72987D01*
X55985Y73063D01*
X56036Y73165D01*
X56018Y73245D01*
X55980Y73264D01*
X55895Y73236D01*
X55810Y73210D01*
X55745Y73207D01*
X55719Y73208D01*
X55704Y73188D01*
X55698Y73136D01*
X55696Y73040D01*
X55698Y72938D01*
X55706Y72882D01*
X55728Y72858D01*
X55771Y72846D01*
X55849Y72806D01*
X55931Y72730D01*
X56013Y72632D01*
X56093Y72537D01*
X56171Y72444D01*
X56213Y72460D01*
X56249Y72438D01*
X56299Y72418D01*
X56360Y72400D01*
X56299Y72463D01*
X56249Y72502D01*
X56213Y72505D01*
Y72460D01*
X56171Y72444D01*
X56184Y72403D01*
X56090Y72458D01*
X56024Y72523D01*
X55941Y72633D01*
X55867Y72714D01*
X55798Y72770D01*
X55732Y72802D01*
X55659Y72818D01*
X55615Y72810D01*
X55606Y72770D01*
X55631Y72717D01*
X55682Y72667D01*
X55749Y72632D01*
X55741Y72585D01*
X55716Y72583D01*
X55703Y72557D01*
X55699Y72492D01*
X55702Y72374D01*
X55709Y72155D01*
X55795Y72138D01*
X55868Y72115D01*
X55923Y72086D01*
X55966Y72034D01*
X56011Y71959D01*
X56051Y71900D01*
X56078Y71898D01*
X56079Y71932D01*
X56055Y71970D01*
X56026Y72030D01*
X56014Y72119D01*
X55997Y72224D01*
X55941Y72322D01*
X55878Y72413D01*
X55829Y72497D01*
X55787Y72556D01*
X55741Y72585D01*
X55749Y72632D01*
X55828Y72590D01*
X55881Y72522D01*
X55932Y72435D01*
X55999Y72340D01*
X56038Y72286D01*
X56061Y72236D01*
X56072Y72186D01*
X56073Y72126D01*
X56073Y72066D01*
X56082Y72025D01*
X56102Y71995D01*
X56138Y71967D01*
X56173Y71942D01*
X56188Y71925D01*
X56184Y71911D01*
X56162Y71896D01*
X56133Y71869D01*
X56146Y71835D01*
X56165Y71791D01*
X56112Y71775D01*
X56098Y71806D01*
X56076Y71784D01*
X56056Y71711D01*
X56049Y71652D01*
X56053Y71609D01*
X56070Y71574D01*
X56102Y71537D01*
X56156Y71499D01*
X56186Y71503D01*
X56186Y71538D01*
X56147Y71596D01*
X56107Y71658D01*
X56107Y71723D01*
X56112Y71775D01*
X56165Y71791D01*
X56168Y71736D01*
X56182Y71667D01*
X56232Y71588D01*
X56290Y71498D01*
X56330Y71403D01*
X56376Y71301D01*
X56450Y71195D01*
X56506Y71115D01*
X56538Y71039D01*
X56490Y71031D01*
X56475Y71070D01*
X56439Y71125D01*
X56387Y71190D01*
X56344Y71124D01*
X56318Y71069D01*
X56317Y71030D01*
X56354Y71009D01*
X56412Y71003D01*
X56466Y71010D01*
X56490Y71031D01*
X56538Y71039D01*
X56542Y70976D01*
X56518Y70937D01*
X56467Y70934D01*
X56379Y70947D01*
X56277Y70984D01*
X56205Y71046D01*
X56158Y71139D01*
X56132Y71269D01*
X56120Y71351D01*
X56103Y71413D01*
X56080Y71460D01*
X56047Y71500D01*
X56013Y71539D01*
X55995Y71576D01*
X55990Y71623D01*
X55995Y71689D01*
X55995Y71808D01*
X55961Y71921D01*
X55920Y71997D01*
X55872Y72046D01*
X55810Y72076D01*
X55724Y72091D01*
X55672Y72094D01*
X55642Y72082D01*
X55622Y72046D01*
X55602Y71975D01*
X55557Y71864D01*
X55487Y71781D01*
X55420Y71715D01*
X55404Y71675D01*
X55438Y71664D01*
X55522Y71686D01*
X55582Y71705D01*
X55624Y71713D01*
X55654Y71708D01*
X55680Y71692D01*
X55714Y71612D01*
X55725Y71476D01*
X55712Y71330D01*
X55676Y71217D01*
X55630Y71136D01*
X55751Y71010D01*
X55709Y70984D01*
X55702Y70794D01*
X55698Y70605D01*
X55702Y70416D01*
X55707Y70317D01*
X55714Y70266D01*
X55727Y70254D01*
X55747Y70272D01*
X55798Y70304D01*
X55884Y70300D01*
X55973Y70297D01*
X56044Y70316D01*
X56104Y70348D01*
X56042Y70371D01*
X56010Y70387D01*
X55993Y70410D01*
X55989Y70450D01*
X55994Y70514D01*
X55998Y70586D01*
X55985Y70642D01*
X55942Y70709D01*
X55858Y70809D01*
X55709Y70984D01*
X55751Y71010D01*
X55851Y70904D01*
X55927Y70820D01*
X55984Y70755D01*
X56022Y70703D01*
X56045Y70662D01*
X56056Y70625D01*
X56058Y70589D01*
X56053Y70550D01*
X56044Y70488D01*
X56053Y70452D01*
X56090Y70429D01*
X56165Y70405D01*
X56187Y70386D01*
X56180Y70355D01*
X56146Y70317D01*
X56089Y70276D01*
X56003Y70243D01*
X55904Y70242D01*
X55848Y70248D01*
X55810Y70242D01*
X55783Y70223D01*
X55756Y70186D01*
X55711Y70119D01*
X55662Y70058D01*
X55618Y70014D01*
X55590Y69996D01*
X55583Y70035D01*
X55590Y70129D01*
X55598Y70202D01*
X55596Y70242D01*
X55580Y70258D01*
X55547Y70261D01*
X55484Y70236D01*
X55414Y70162D01*
X55358Y70086D01*
X55324Y70041D01*
X55306Y70038D01*
X55271Y70046D01*
X55224Y70064D01*
X55170Y70090D01*
X55061Y70136D01*
X54991Y70144D01*
X54944Y70146D01*
X54892Y70177D01*
X54858Y70202D01*
X54819Y70214D01*
X54766Y70217D01*
X54691Y70211D01*
X54590Y70192D01*
X54550Y70169D01*
X54589Y70142D01*
X54675Y70112D01*
X54794Y70074D01*
X54890Y70024D01*
X54966Y69962D01*
X55019Y69888D01*
X55048Y69833D01*
X55056Y69796D01*
X55044Y69762D01*
X55011Y69714D01*
X54979Y69666D01*
X54965Y69623D01*
X54968Y69566D01*
X54984Y69476D01*
X55004Y69354D01*
X55000Y69278D01*
X54971Y69244D01*
X54916Y69245D01*
X54880Y69252D01*
X54860Y69245D01*
X54851Y69219D01*
X54850Y69168D01*
X54842Y69094D01*
X54819Y69061D01*
X54775Y69066D01*
X54708Y69109D01*
X54637Y69157D01*
X54589Y69176D01*
X54562Y69160D01*
X54561Y69117D01*
X54584Y69062D01*
X54627Y69009D01*
X54678Y68947D01*
X54667Y68890D01*
X54643Y68836D01*
X54642Y68804D01*
X54665Y68792D01*
X54713Y68796D01*
X54763Y68798D01*
X54806Y68784D01*
X54839Y68759D01*
X54863Y68724D01*
X54874Y68684D01*
X54872Y68642D01*
X54856Y68599D01*
X54823Y68561D01*
X54783Y68515D01*
X54774Y68472D01*
X54796Y68433D01*
X54850Y68396D01*
X54916Y68340D01*
X54928Y68275D01*
X54887Y68208D01*
X54794Y68143D01*
X54733Y68105D01*
X54683Y68061D01*
X54650Y68016D01*
X54638Y67974D01*
X54650Y67960D01*
X54685Y67968D01*
X54745Y67999D01*
X54828Y68053D01*
X54938Y68117D01*
X54991Y68119D01*
X55005Y68091D01*
X54987Y68060D01*
X54964Y68018D01*
X54956Y67967D01*
X54965Y67924D01*
X54989Y67906D01*
X55022Y67930D01*
X55053Y67985D01*
X55094Y68050D01*
X55153Y68096D01*
X55225Y68113D01*
X55303Y68081D01*
X55349Y68055D01*
X55380Y68047D01*
X55407Y68058D01*
X55442Y68089D01*
X55493Y68127D01*
X55539Y68142D01*
X55576Y68135D01*
X55600Y68105D01*
X55633Y68076D01*
X55695Y68065D01*
X55738Y68067D01*
X55760Y68077D01*
X55765Y68100D01*
X55759Y68143D01*
X55754Y68187D01*
X55764Y68225D01*
X55793Y68265D01*
X55844Y68317D01*
X55895Y68362D01*
X55937Y68388D01*
X55972Y68399D01*
X56007Y68397D01*
X56059Y68372D01*
X56084Y68329D01*
X56083Y68261D01*
X56058Y68162D01*
X56035Y68086D01*
X56028Y68033D01*
X56036Y67989D01*
X56060Y67934D01*
X56123Y67851D01*
X56210Y67783D01*
X56290Y67732D01*
X56333Y67687D01*
X56341Y67645D01*
X56315Y67603D01*
X56272Y67578D01*
X56220Y67579D01*
X56158Y67606D01*
X56083Y67660D01*
X56019Y67702D01*
X55967Y67712D01*
X55923Y67689D01*
X55885Y67632D01*
X55844Y67478D01*
X55836Y67298D01*
X55859Y67148D01*
X55822Y67118D01*
X55777Y67278D01*
X55780Y67464D01*
X55835Y67643D01*
X55893Y67729D01*
X55957Y67769D01*
X56030Y67762D01*
X56113Y67709D01*
X56173Y67668D01*
X56226Y67645D01*
X56264Y67644D01*
X56278Y67666D01*
X56263Y67689D01*
X56225Y67708D01*
X56153Y67744D01*
X56083Y67803D01*
X56024Y67874D01*
X55987Y67947D01*
X55974Y67999D01*
X55971Y68047D01*
X55980Y68103D01*
X56001Y68174D01*
X56026Y68279D01*
X56016Y68332D01*
X55971Y68334D01*
X55892Y68282D01*
X55848Y68241D01*
X55824Y68206D01*
X55816Y68167D01*
X55821Y68113D01*
X55826Y68060D01*
X55822Y68028D01*
X55802Y68010D01*
X55765Y67997D01*
X55696Y67980D01*
Y66792D01*
X55697Y66331D01*
X55698Y65954D01*
X55701Y65698D01*
X55704Y65605D01*
X55741Y65620D01*
X55782Y65659D01*
X55815Y65706D01*
X55828Y65750D01*
X55853Y65866D01*
X55918Y65958D01*
X56008Y66012D01*
X56109Y66016D01*
X56146Y66011D01*
X56164Y66030D01*
X56172Y66094D01*
X56173Y66219D01*
X56173Y66438D01*
X56229Y66351D01*
X56263Y66303D01*
X56294Y66279D01*
X56335Y66274D01*
X56400Y66281D01*
X56464Y66288D01*
X56509Y66282D01*
X56548Y66261D01*
X56595Y66218D01*
X56652Y66165D01*
X56675Y66150D01*
X56658Y66184D01*
X56610Y66254D01*
X56543Y66345D01*
X56464Y66448D01*
X56384Y66550D01*
X56312Y66638D01*
X56256Y66702D01*
X56226Y66729D01*
X56202Y66744D01*
X56167Y66773D01*
X56126Y66814D01*
X56084Y66861D01*
X55992Y66957D01*
X55909Y67019D01*
X55822Y67118D01*
X55859Y67148D01*
X55910Y67086D01*
X55932Y67074D01*
X55976Y67040D01*
X56034Y66989D01*
X56102Y66928D01*
X56198Y66840D01*
X56265Y66793D01*
X56324Y66773D01*
X56397Y66769D01*
X56464Y66766D01*
X56513Y66754D01*
X56554Y66729D01*
X56598Y66686D01*
X56652Y66637D01*
X56712Y66616D01*
X56806Y66622D01*
X56962Y66652D01*
X57030Y66657D01*
X57072Y66634D01*
X57092Y66574D01*
X57098Y66471D01*
X57040Y66484D01*
X57034Y66546D01*
X57022Y66579D01*
X56999Y66592D01*
X56956Y66591D01*
X56895Y66583D01*
X56871Y66566D01*
X56882Y66529D01*
X56927Y66466D01*
X56985Y66400D01*
X57024Y66372D01*
X57039Y66405D01*
X57040Y66484D01*
X57098Y66471D01*
X57087Y66363D01*
X57046Y66300D01*
X57008Y66254D01*
X56993Y66208D01*
X56970Y66160D01*
X56908Y66120D01*
X56819Y66092D01*
X56716Y66081D01*
X56623Y66090D01*
X56596Y66120D01*
X56577Y66163D01*
X56531Y66199D01*
X56469Y66221D01*
X56404Y66221D01*
X56365Y66210D01*
X56343Y66190D01*
X56333Y66153D01*
X56331Y66089D01*
X56323Y65991D01*
X56304Y65920D01*
X56272Y65885D01*
X56230Y65871D01*
X56185Y65879D01*
X56146Y65909D01*
X56101Y65938D01*
X56040Y65947D01*
X55980Y65938D01*
X55935Y65910D01*
X55908Y65851D01*
X55889Y65763D01*
X55864Y65679D01*
X55820Y65613D01*
X55760Y65566D01*
X55689Y65540D01*
X55614Y65535D01*
X55537Y65553D01*
X55465Y65595D01*
X55403Y65661D01*
X55356Y65708D01*
X55297Y65734D01*
X55229Y65738D01*
X55156Y65721D01*
X55119Y65690D01*
X55116Y65649D01*
X55145Y65605D01*
X55203Y65568D01*
X55273Y65528D01*
X55329Y65475D01*
X55366Y65414D01*
X55379Y65351D01*
X55384Y65321D01*
X55403Y65302D01*
X55446Y65289D01*
X55518Y65280D01*
X55647Y65273D01*
X55739Y65284D01*
X55801Y65315D01*
X55843Y65369D01*
X55888Y65426D01*
X55941Y65457D01*
X56142Y65488D01*
X56278Y65479D01*
X56365Y65429D01*
X56418Y65332D01*
X56459Y65250D01*
X56511Y65211D01*
X56569Y65215D01*
X56627Y65265D01*
X56671Y65308D01*
X56701Y65287D01*
X56716Y65226D01*
X56712Y65136D01*
X56705Y65072D01*
X56712Y65032D01*
X56737Y65002D01*
X56789Y64969D01*
X56868Y64911D01*
X56926Y64848D01*
X56978Y64797D01*
X57053Y64789D01*
X57096Y64791D01*
X57127Y64782D01*
X57151Y64761D01*
X57172Y64725D01*
X57226Y64658D01*
X57306Y64601D01*
X57386Y64545D01*
X57437Y64482D01*
X57458Y64445D01*
X57492Y64424D01*
X57553Y64415D01*
X57660Y64414D01*
X57795Y64409D01*
X57875Y64392D01*
X57911Y64359D01*
X57914Y64305D01*
X57859Y64315D01*
X57830Y64340D01*
X57765Y64356D01*
X57701Y64354D01*
X57697Y64323D01*
X57730Y64293D01*
X57791Y64282D01*
X57848Y64292D01*
X57859Y64315D01*
X57914Y64305D01*
X57892Y64255D01*
X57839Y64234D01*
X57702Y64188D01*
X57611Y64091D01*
G37*
G36*
X59528Y70426D02*X60140Y70540D01*
X60144Y70541D01*
X60175Y70568D01*
X60176Y70571D01*
X60363Y71008D01*
X60365Y71012D01*
X60362Y71053D01*
X60360Y71056D01*
X60004Y71575D01*
X60002Y71578D01*
X60005Y71615D01*
X60008Y71618D01*
X60456Y72065D01*
X60492Y72069D01*
X60495Y72066D01*
X61024Y71704D01*
X61027Y71702D01*
X61068Y71699D01*
X61071Y71700D01*
X61495Y71874D01*
X61499Y71875D01*
X61526Y71906D01*
X61527Y71910D01*
X61644Y72542D01*
X61645Y72546D01*
X61669Y72570D01*
X62314D01*
X62338Y72546D01*
X62339Y72542D01*
X62457Y71910D01*
X62458Y71906D01*
X62484Y71875D01*
X62488Y71874D01*
X62912Y71700D01*
X62915Y71699D01*
X62956Y71702D01*
X62960Y71704D01*
X63488Y72066D01*
X63491Y72069D01*
X63528Y72065D01*
X63530Y72063D01*
X63976Y71618D01*
X63978Y71615D01*
X63982Y71578D01*
X63979Y71575D01*
X63623Y71056D01*
X63621Y71053D01*
X63618Y71012D01*
X63620Y71008D01*
X63808Y70571D01*
X63809Y70568D01*
X63840Y70541D01*
X63844Y70540D01*
X64455Y70426D01*
X64459Y70426D01*
X64482Y70402D01*
Y69756D01*
X64459Y69732D01*
X64455Y69731D01*
X63859Y69620D01*
X63855Y69620D01*
X63824Y69593D01*
X63823Y69589D01*
X63637Y69124D01*
X63636Y69120D01*
X63638Y69080D01*
X63641Y69076D01*
X63980Y68582D01*
X63982Y68579D01*
X63978Y68543D01*
X63976Y68540D01*
X63530Y68095D01*
X63528Y68092D01*
X63491Y68089D01*
X63488Y68091D01*
X63003Y68424D01*
X63000Y68426D01*
X62960Y68428D01*
X62956Y68426D01*
X62743Y68311D01*
X62739Y68310D01*
X62709Y68321D01*
X62707Y68324D01*
X62266Y69390D01*
X62265Y69394D01*
X62276Y69428D01*
X62279Y69430D01*
X62333Y69463D01*
X62335Y69464D01*
X62364Y69486D01*
X62367Y69489D01*
X62402Y69512D01*
X62498Y69598D01*
X62600Y69736D01*
X62665Y69897D01*
X62688Y70031D01*
Y70110D01*
X62674Y70216D01*
X62633Y70346D01*
X62569Y70465D01*
X62484Y70568D01*
X62381Y70653D01*
X62263Y70717D01*
X62132Y70757D01*
X62027Y70771D01*
X61957D01*
X61852Y70757D01*
X61721Y70717D01*
X61602Y70653D01*
X61499Y70568D01*
X61415Y70465D01*
X61350Y70346D01*
X61310Y70216D01*
X61296Y70110D01*
Y70031D01*
X61319Y69897D01*
X61384Y69736D01*
X61485Y69598D01*
X61581Y69512D01*
X61617Y69489D01*
X61620Y69486D01*
X61648Y69464D01*
X61651Y69463D01*
X61704Y69430D01*
X61707Y69428D01*
X61719Y69394D01*
X61717Y69390D01*
X61276Y68324D01*
X61275Y68321D01*
X61244Y68310D01*
X61241Y68311D01*
X61027Y68426D01*
X61024Y68428D01*
X60984Y68426D01*
X60980Y68424D01*
X60495Y68091D01*
X60492Y68089D01*
X60456Y68092D01*
X60453Y68095D01*
X60008Y68540D01*
X60005Y68543D01*
X60002Y68579D01*
X60004Y68582D01*
X60343Y69076D01*
X60345Y69080D01*
X60348Y69120D01*
X60346Y69124D01*
X60160Y69589D01*
X60159Y69593D01*
X60129Y69620D01*
X60125Y69620D01*
X59528Y69731D01*
X59524Y69732D01*
X59501Y69756D01*
Y70402D01*
X59524Y70426D01*
X59528Y70426D01*
G37*
G36*
X60516Y65843D02*X60382D01*
Y66272D01*
X60342Y66352D01*
X60274Y66385D01*
X60230D01*
X60171Y66358D01*
X60163Y66352D01*
X60066Y66468D01*
X60076Y66476D01*
X60173Y66519D01*
X60230D01*
X60303Y66499D01*
X60369Y66453D01*
X60379Y66440D01*
X60382D01*
Y66511D01*
X60516D01*
Y65843D01*
G37*
G36*
X59512Y66126D02*Y66267D01*
X59535Y66354D01*
X59595Y66443D01*
X59683Y66499D01*
X59762Y66519D01*
X59812D01*
X59886Y66502D01*
X59974Y66445D01*
X60038Y66339D01*
X60063Y66216D01*
Y66133D01*
X60036Y66007D01*
X59967Y65903D01*
X59871Y65850D01*
X59793Y65835D01*
X59735D01*
X59638Y65861D01*
X59542Y65924D01*
X59526Y65943D01*
X59623Y66026D01*
X59633Y66016D01*
X59692Y65979D01*
X59750Y65962D01*
X59798D01*
X59884Y66003D01*
X59929Y66096D01*
Y66237D01*
X59928Y66263D01*
X59887Y66353D01*
X59813Y66393D01*
X59763D01*
X59689Y66353D01*
X59648Y66263D01*
X59647Y66237D01*
X59929D01*
Y66126D01*
X59512D01*
G37*
G36*
X58787Y67182D02*Y67322D01*
X58810Y67409D01*
X58870Y67498D01*
X58958Y67555D01*
X59037Y67574D01*
X59087D01*
X59160Y67557D01*
X59249Y67500D01*
X59314Y67394D01*
X59338Y67271D01*
Y67188D01*
X59311Y67062D01*
X59242Y66958D01*
X59146Y66905D01*
X59068Y66891D01*
X59010D01*
X58912Y66916D01*
X58817Y66980D01*
X58801Y66998D01*
X58898Y67082D01*
X58908Y67071D01*
X58967Y67034D01*
X59025Y67017D01*
X59073D01*
X59159Y67058D01*
X59204Y67151D01*
Y67292D01*
X59203Y67318D01*
X59162Y67408D01*
X59088Y67448D01*
X59038D01*
X58964Y67408D01*
X58923Y67318D01*
X58922Y67292D01*
X59204D01*
Y67182D01*
X58787D01*
G37*
G36*
X59471Y67095D02*X59480Y67085D01*
X59531Y67045D01*
X59588Y67025D01*
X59625D01*
X59680Y67037D01*
X59735Y67074D01*
X59769Y67138D01*
X59781Y67209D01*
Y67256D01*
X59769Y67326D01*
X59735Y67391D01*
X59680Y67428D01*
X59625Y67440D01*
X59588D01*
X59531Y67421D01*
X59480Y67380D01*
X59471Y67370D01*
X59372Y67458D01*
X59387Y67475D01*
X59476Y67542D01*
X59578Y67574D01*
X59640D01*
X59725Y67556D01*
X59822Y67495D01*
X59890Y67389D01*
X59915Y67271D01*
Y67193D01*
X59890Y67076D01*
X59822Y66970D01*
X59725Y66910D01*
X59640Y66891D01*
X59578D01*
X59476Y66923D01*
X59387Y66990D01*
X59372Y67006D01*
X59471Y67095D01*
G37*
G36*
X60350Y66898D02*X60216D01*
Y67327D01*
X60175Y67407D01*
X60108Y67440D01*
X60063D01*
X60005Y67413D01*
X59997Y67407D01*
X59899Y67523D01*
X59910Y67531D01*
X60007Y67574D01*
X60064D01*
X60137Y67555D01*
X60202Y67509D01*
X60213Y67495D01*
X60216D01*
Y67566D01*
X60350D01*
Y66898D01*
G37*
G36*
X62344Y67010D02*X62322Y66990D01*
X62205Y66920D01*
X62088Y66890D01*
X62022D01*
X61941Y66904D01*
X61853Y66944D01*
X61794Y67009D01*
X61773Y67074D01*
Y67115D01*
X61784Y67171D01*
X61818Y67233D01*
X61878Y67276D01*
X61944Y67295D01*
X61967Y67296D01*
X62077Y67304D01*
X62094Y67306D01*
X62147Y67327D01*
X62166Y67357D01*
Y67382D01*
X62140Y67425D01*
X62073Y67448D01*
X62027D01*
X61954Y67431D01*
X61885Y67395D01*
X61872Y67386D01*
X61789Y67483D01*
X61805Y67497D01*
X61901Y67550D01*
X62014Y67574D01*
X62076D01*
X62150Y67561D01*
X62229Y67522D01*
X62281Y67458D01*
X62300Y67391D01*
Y67350D01*
X62286Y67292D01*
X62246Y67234D01*
X62185Y67197D01*
X62127Y67181D01*
X62108Y67179D01*
X61989Y67168D01*
X61978Y67168D01*
X61931Y67152D01*
X61907Y67115D01*
Y67087D01*
X61945Y67039D01*
X62016Y67017D01*
X62069D01*
X62157Y67039D01*
X62236Y67088D01*
X62250Y67103D01*
X62344Y67010D01*
G37*
G36*
X62365Y65843D02*X62230D01*
Y66782D01*
X62365D01*
Y66440D01*
X62423Y66366D01*
X62384Y66317D01*
X62368Y66251D01*
X62365Y66196D01*
Y66160D01*
X62368Y66104D01*
X62384Y66037D01*
X62423Y65989D01*
X62478Y65970D01*
X62515D01*
X62571Y65988D01*
X62611Y66035D01*
X62627Y66102D01*
X62630Y66159D01*
Y66197D01*
X62627Y66254D01*
X62611Y66320D01*
X62571Y66367D01*
X62515Y66385D01*
X62478D01*
X62423Y66366D01*
X62365Y66440D01*
X62377Y66452D01*
X62444Y66497D01*
X62514Y66519D01*
X62564D01*
X62643Y66494D01*
X62707Y66445D01*
X62716Y66432D01*
X62723Y66424D01*
X62740Y66396D01*
X62754Y66349D01*
X62762Y66280D01*
X62764Y66203D01*
Y66152D01*
X62762Y66075D01*
X62754Y66006D01*
X62740Y65959D01*
X62723Y65931D01*
X62716Y65922D01*
X62707Y65910D01*
X62643Y65860D01*
X62564Y65835D01*
X62513D01*
X62441Y65857D01*
X62375Y65902D01*
X62365Y65913D01*
Y65843D01*
G37*
G36*
X63241Y66898D02*X63106D01*
Y67323D01*
X63068Y67402D01*
X62997Y67440D01*
X62950D01*
X62879Y67402D01*
X62841Y67323D01*
Y66898D01*
X62707D01*
Y67368D01*
X62727Y67443D01*
X62779Y67515D01*
X62851Y67560D01*
X62910Y67574D01*
X62954D01*
X63027Y67555D01*
X63093Y67509D01*
X63104Y67495D01*
X63106D01*
Y67566D01*
X63241D01*
Y66898D01*
G37*
G36*
X63217Y65843D02*X63083D01*
Y66272D01*
X63042Y66352D01*
X62975Y66385D01*
X62930D01*
X62872Y66358D01*
X62864Y66352D01*
X62767Y66468D01*
X62777Y66476D01*
X62874Y66519D01*
X62931D01*
X63004Y66499D01*
X63070Y66453D01*
X63080Y66440D01*
X63083D01*
Y66511D01*
X63217D01*
Y65843D01*
G37*
G36*
X63355Y67182D02*Y67322D01*
X63378Y67409D01*
X63438Y67498D01*
X63525Y67555D01*
X63604Y67574D01*
X63655D01*
X63728Y67557D01*
X63817Y67500D01*
X63881Y67394D01*
X63906Y67271D01*
Y67188D01*
X63879Y67062D01*
X63809Y66958D01*
X63714Y66905D01*
X63636Y66891D01*
X63577D01*
X63480Y66916D01*
X63385Y66980D01*
X63368Y66998D01*
X63466Y67082D01*
X63476Y67071D01*
X63535Y67034D01*
X63593Y67017D01*
X63641D01*
X63727Y67058D01*
X63772Y67151D01*
Y67292D01*
X63771Y67318D01*
X63730Y67408D01*
X63656Y67448D01*
X63606D01*
X63532Y67408D01*
X63491Y67318D01*
X63490Y67292D01*
X63772D01*
Y67182D01*
X63355D01*
G37*
G36*
X64531Y65843D02*X64396D01*
Y66268D01*
X64359Y66347D01*
X64287Y66385D01*
X64240D01*
X64169Y66347D01*
X64132Y66268D01*
Y65843D01*
X63997D01*
Y66313D01*
X64018Y66388D01*
X64070Y66460D01*
X64141Y66504D01*
X64201Y66519D01*
X64245D01*
X64318Y66499D01*
X64385Y66453D01*
X64396Y66440D01*
X64396Y66970D01*
X64338Y67044D01*
X64377Y67092D01*
X64393Y67159D01*
X64396Y67214D01*
Y67250D01*
X64393Y67306D01*
X64377Y67372D01*
X64338Y67421D01*
X64283Y67440D01*
X64246D01*
X64190Y67422D01*
X64150Y67375D01*
X64134Y67308D01*
X64131Y67251D01*
Y67213D01*
X64134Y67156D01*
X64150Y67090D01*
X64190Y67043D01*
X64246Y67025D01*
X64283D01*
X64338Y67044D01*
X64396Y66970D01*
X64384Y66958D01*
X64317Y66912D01*
X64247Y66890D01*
X64197D01*
X64118Y66915D01*
X64054Y66965D01*
X64044Y66977D01*
X64037Y66986D01*
X64021Y67014D01*
X64007Y67061D01*
X63999Y67130D01*
X63997Y67206D01*
Y67258D01*
X63999Y67335D01*
X64007Y67404D01*
X64021Y67451D01*
X64038Y67479D01*
X64054Y67500D01*
X64118Y67550D01*
X64197Y67574D01*
X64248D01*
X64320Y67553D01*
X64385Y67508D01*
X64396Y67496D01*
Y67566D01*
X64531D01*
Y65843D01*
G37*
G36*
X65196Y67233D02*Y67193D01*
X65179Y67072D01*
X65136Y66990D01*
X65124Y66976D01*
X65114Y66966D01*
X65047Y66918D01*
X64952Y66891D01*
X64921D01*
Y67025D01*
X64937D01*
X64984Y67039D01*
X65024Y67067D01*
X65028Y67074D01*
X65035Y67083D01*
X65054Y67130D01*
X65061Y67208D01*
Y67259D01*
X65054Y67335D01*
X65035Y67382D01*
X65028Y67391D01*
X65024Y67398D01*
X64984Y67426D01*
X64937Y67440D01*
X64905D01*
X64857Y67426D01*
X64817Y67398D01*
X64812Y67391D01*
X64806Y67382D01*
X64787Y67335D01*
X64780Y67258D01*
Y67206D01*
X64787Y67130D01*
X64806Y67083D01*
X64812Y67074D01*
X64817Y67067D01*
X64857Y67039D01*
X64905Y67025D01*
X64921D01*
Y66891D01*
X64889D01*
X64794Y66918D01*
X64727Y66966D01*
X64718Y66976D01*
X64705Y66990D01*
X64662Y67072D01*
X64645Y67193D01*
Y67273D01*
X64662Y67394D01*
X64705Y67475D01*
X64718Y67489D01*
X64727Y67499D01*
X64794Y67547D01*
X64889Y67574D01*
X64952D01*
X65047Y67547D01*
X65114Y67499D01*
X65124Y67489D01*
X65136Y67475D01*
X65179Y67394D01*
X65196Y67273D01*
Y67233D01*
G37*
G36*
X63499Y65843D02*X63365D01*
Y66325D01*
X63385Y66403D01*
X63442Y66471D01*
X63530Y66508D01*
X63615Y66519D01*
X63676D01*
X63774Y66497D01*
X63856Y66440D01*
X63868Y66422D01*
X63763Y66341D01*
X63757Y66351D01*
X63717Y66382D01*
X63657Y66393D01*
X63610D01*
X63532Y66374D01*
X63499Y66324D01*
Y66237D01*
X63709D01*
X63780Y66221D01*
X63848Y66178D01*
X63889Y66116D01*
X63902Y66058D01*
Y66019D01*
X63887Y65959D01*
X63841Y65894D01*
X63766Y65851D01*
X63692Y65835D01*
X63640D01*
X63561Y65852D01*
X63509Y65891D01*
X63502Y65902D01*
X63533Y65981D01*
X63579Y65965D01*
X63632Y65962D01*
X63674D01*
X63747Y65987D01*
X63776Y66031D01*
Y66061D01*
X63748Y66105D01*
X63682Y66126D01*
X63499D01*
Y66062D01*
X63507Y66016D01*
X63533Y65981D01*
X63502Y65902D01*
X63499D01*
Y65843D01*
G37*
G36*
X60798D02*X60664D01*
Y66325D01*
X60684Y66403D01*
X60742Y66471D01*
X60829Y66508D01*
X60914Y66519D01*
X60975D01*
X61073Y66497D01*
X61155Y66440D01*
X61168Y66422D01*
X61062Y66341D01*
X61056Y66351D01*
X61016Y66382D01*
X60956Y66393D01*
X60910D01*
X60831Y66374D01*
X60798Y66324D01*
Y66237D01*
X61008D01*
X61079Y66221D01*
X61147Y66178D01*
X61188Y66116D01*
X61202Y66058D01*
Y66019D01*
X61186Y65959D01*
X61140Y65894D01*
X61066Y65851D01*
X60991Y65835D01*
X60940D01*
X60860Y65852D01*
X60808Y65891D01*
X60801Y65902D01*
X60832Y65981D01*
X60878Y65965D01*
X60931Y65962D01*
X60973D01*
X61046Y65987D01*
X61075Y66031D01*
Y66061D01*
X61047Y66105D01*
X60981Y66126D01*
X60798D01*
Y66062D01*
X60806Y66016D01*
X60832Y65981D01*
X60801Y65902D01*
X60798D01*
Y65843D01*
G37*
G36*
X61696Y67233D02*X61562D01*
Y67259D01*
X61555Y67335D01*
X61536Y67382D01*
X61529Y67391D01*
X61524Y67398D01*
X61485Y67426D01*
X61437Y67440D01*
X61405D01*
X61357Y67426D01*
X61318Y67398D01*
X61313Y67391D01*
X61307Y67382D01*
X61287Y67335D01*
X61280Y67258D01*
Y67206D01*
X61287Y67130D01*
X61307Y67083D01*
X61313Y67074D01*
X61318Y67067D01*
X61357Y67039D01*
X61405Y67025D01*
X61437D01*
X61485Y67039D01*
X61524Y67067D01*
X61529Y67074D01*
X61536Y67083D01*
X61555Y67130D01*
X61562Y67208D01*
Y67233D01*
X61696D01*
Y67193D01*
X61680Y67072D01*
X61637Y66990D01*
X61624Y66976D01*
X61615Y66966D01*
X61548Y66918D01*
X61453Y66891D01*
X61390D01*
X61295Y66918D01*
X61228Y66966D01*
X61218Y66976D01*
X61205Y66990D01*
X61163Y67072D01*
X61146Y67193D01*
Y67273D01*
X61163Y67394D01*
X61205Y67475D01*
X61218Y67489D01*
X61228Y67499D01*
X61295Y67547D01*
X61390Y67574D01*
X61453D01*
X61548Y67547D01*
X61615Y67499D01*
X61624Y67489D01*
X61637Y67475D01*
X61680Y67394D01*
X61696Y67273D01*
Y67233D01*
G37*
G36*
X61544Y65843D02*X61426D01*
X61212Y66511D01*
X61355D01*
X61482Y66044D01*
X61485D01*
X61637Y66511D01*
X61734D01*
X61886Y66044D01*
X61888D01*
X62016Y66511D01*
X62158D01*
X61945Y65843D01*
X61826D01*
X61687Y66311D01*
X61684D01*
X61544Y65843D01*
G37*
G36*
X61031Y67122D02*Y67097D01*
X61011Y67022D01*
X60958Y66950D01*
X60887Y66906D01*
X60827Y66891D01*
X60783D01*
X60710Y66910D01*
X60645Y66956D01*
X60634Y66970D01*
X60632D01*
Y66898D01*
X60497D01*
Y67566D01*
X60632D01*
Y67142D01*
X60670Y67063D01*
X60740Y67025D01*
X60788D01*
X60859Y67063D01*
X60896Y67142D01*
Y67566D01*
X61031D01*
Y67122D01*
G37*
G36*
X87558Y65969D02*X87184Y66171D01*
X87103Y66543D01*
X87074Y66932D01*
X87130Y67480D01*
X87288Y67990D01*
X87539Y68452D01*
X87870Y68854D01*
X88272Y69185D01*
X88734Y69436D01*
X89244Y69594D01*
X89791Y69649D01*
X90339Y69594D01*
X90849Y69436D01*
X91310Y69185D01*
X91713Y68854D01*
X92044Y68452D01*
X92295Y67990D01*
X92453Y67480D01*
X92508Y66932D01*
X92453Y66385D01*
X92295Y65875D01*
X92044Y65414D01*
X91713Y65011D01*
X91310Y64680D01*
X90849Y64429D01*
X90339Y64271D01*
X89791Y64216D01*
X88857Y64381D01*
X88063Y64836D01*
X88048Y65089D01*
X88404Y65222D01*
X89042Y64861D01*
X89791Y64730D01*
X90236Y64775D01*
X90649Y64903D01*
X91023Y65106D01*
X91349Y65375D01*
X91618Y65701D01*
X91821Y66075D01*
X91949Y66489D01*
X91994Y66932D01*
X91863Y67681D01*
X91502Y68320D01*
X88404Y65222D01*
X88048Y65089D01*
X87982Y65379D01*
X88081Y65545D01*
X91179Y68643D01*
X90540Y69004D01*
X89791Y69135D01*
X89348Y69090D01*
X88934Y68962D01*
X88560Y68759D01*
X88234Y68490D01*
X87965Y68164D01*
X87762Y67790D01*
X87634Y67376D01*
X87589Y66932D01*
X87720Y66184D01*
X88081Y65545D01*
X87982Y65379D01*
X87830Y65680D01*
X87558Y65969D01*
G37*
G36*
X90016Y68289D02*X90195Y68328D01*
X90451Y68341D01*
X91286D01*
Y65638D01*
X90993D01*
Y66737D01*
X90425D01*
X90036Y66795D01*
X89782Y66967D01*
X89642Y67232D01*
X89596Y67563D01*
X89898Y67548D01*
X89929Y67332D01*
X90023Y67179D01*
X90185Y67087D01*
X90420Y67056D01*
X90993D01*
Y68022D01*
X90425D01*
X90232Y68012D01*
X90109Y67980D01*
X89960Y67823D01*
X89898Y67548D01*
X89596Y67563D01*
X89624Y67818D01*
X89710Y68029D01*
X89844Y68189D01*
X90016Y68289D01*
G37*
G36*
X88040Y67187D02*X88160Y67386D01*
X88315Y67528D01*
X88497Y67612D01*
X88698Y67640D01*
X88971Y67575D01*
X89190Y67377D01*
X89070Y67179D01*
X88912Y67320D01*
X88734Y67368D01*
X88545Y67322D01*
X88389Y67187D01*
X88284Y66955D01*
X88248Y66621D01*
X88284Y66292D01*
X88394Y66056D01*
X88550Y65915D01*
X88728Y65867D01*
X88980Y65946D01*
X89156Y66177D01*
X89202Y66366D01*
X89218Y66632D01*
X89181Y66948D01*
X89070Y67179D01*
X89190Y67377D01*
Y68341D01*
X89496D01*
Y65638D01*
X89213D01*
Y65884D01*
X88997Y65667D01*
X88715Y65594D01*
X88423Y65662D01*
X88170Y65864D01*
X87995Y66192D01*
X87937Y66632D01*
X87963Y66934D01*
X88040Y67187D01*
G37*
G36*
X90725Y63823D02*X90870Y63791D01*
X90914Y63736D01*
X90924Y63690D01*
X90890Y63725D01*
X90754Y63760D01*
X90689Y63740D01*
X90662Y63684D01*
X90706Y63636D01*
X90819Y63594D01*
X90930Y63539D01*
X90967Y63453D01*
X90927Y63354D01*
X90805Y63321D01*
X90675Y63372D01*
X90698Y63408D01*
X90780Y63390D01*
X90854Y63462D01*
X90746Y63543D01*
X90670Y63566D01*
Y63462D01*
X90698Y63408D01*
X90675Y63372D01*
Y63324D01*
X90529D01*
Y63693D01*
X90574Y63783D01*
X90725Y63823D01*
G37*
G36*
X91073Y63748D02*X91142Y63785D01*
X91229Y63796D01*
X91321Y63783D01*
X91400Y63736D01*
X91454Y63652D01*
X91473Y63546D01*
X91456Y63451D01*
X91405Y63375D01*
X91324Y63333D01*
X91219Y63321D01*
X91153Y63325D01*
X91072Y63338D01*
X91055Y63433D01*
X91141Y63410D01*
X91207Y63404D01*
X91261Y63412D01*
X91308Y63438D01*
X91338Y63480D01*
X91348Y63535D01*
X91347Y63561D01*
X91344Y63614D01*
X91334Y63647D01*
X91321Y63674D01*
X91297Y63699D01*
X91265Y63716D01*
X91228Y63721D01*
X91198Y63718D01*
X91173Y63708D01*
X91155Y63691D01*
X91142Y63668D01*
X91136Y63645D01*
X91134Y63613D01*
X91344Y63614D01*
X91347Y63561D01*
X91020Y63562D01*
X91015Y63605D01*
X91030Y63686D01*
X91073Y63748D01*
G37*
G36*
X88918Y63786D02*X88955Y63781D01*
X88988Y63768D01*
X89015Y63748D01*
X89044Y63712D01*
X89042Y63775D01*
X89103Y63774D01*
X89164Y63775D01*
X89163Y63733D01*
X89164Y63656D01*
X89168Y63533D01*
X89180Y63321D01*
X89114Y63322D01*
X89052Y63321D01*
X89053Y63374D01*
X89051Y63484D01*
X89045Y63564D01*
X89032Y63613D01*
X89006Y63652D01*
X88971Y63675D01*
X88925Y63683D01*
X88877Y63676D01*
X88881Y63781D01*
X88918Y63786D01*
G37*
G36*
X87501Y65897D02*X87789Y65577D01*
X87926Y65246D01*
X87969Y64938D01*
X87971Y64686D01*
X87891Y64583D01*
X87782Y64714D01*
X87772Y65121D01*
X87681Y65235D01*
Y64887D01*
X87586Y64983D01*
Y65347D01*
X87489Y65486D01*
Y65099D01*
X87324Y65264D01*
X87328Y65292D01*
X87332Y65362D01*
X87324Y65453D01*
X87292Y65544D01*
X87290Y65513D01*
X87282Y65444D01*
X87267Y65367D01*
X87243Y65315D01*
X87182Y65357D01*
X87043Y65449D01*
X86896Y65546D01*
X86809Y65600D01*
X86856Y65560D01*
X86982Y65448D01*
X87162Y65277D01*
X87374Y65062D01*
X87595Y64816D01*
X87801Y64552D01*
X87969Y64286D01*
X88075Y64029D01*
X88002Y63956D01*
X87979Y64018D01*
X87921Y64165D01*
X87845Y64336D01*
X87770Y64470D01*
X87728Y64445D01*
X87627Y64387D01*
X87504Y64324D01*
X87393Y64285D01*
X87289Y64279D01*
X87168Y64304D01*
X87039Y64369D01*
X86913Y64481D01*
X86804Y64614D01*
X86692Y64781D01*
X86573Y65010D01*
X86444Y65328D01*
X86423Y65393D01*
X86395Y65484D01*
X86369Y65570D01*
X86354Y65623D01*
X86292Y65816D01*
X86231Y65946D01*
X86164Y66038D01*
X86090Y66115D01*
Y66184D01*
X86239Y66196D01*
X86605Y66193D01*
X87066Y66113D01*
X87501Y65897D01*
G37*
G36*
X90109Y63941D02*Y63911D01*
X90112Y63789D01*
X90204Y63796D01*
X90310Y63782D01*
X90397Y63734D01*
X90459Y63644D01*
X90481Y63530D01*
X90468Y63448D01*
X90430Y63381D01*
X90366Y63337D01*
X90285Y63321D01*
X90236Y63327D01*
X90191Y63344D01*
X90156Y63370D01*
X90122Y63409D01*
X90167Y63448D01*
X90204Y63422D01*
X90248Y63413D01*
X90307Y63430D01*
X90345Y63474D01*
X90357Y63538D01*
X90344Y63609D01*
X90306Y63670D01*
X90249Y63703D01*
X90181Y63713D01*
X90117Y63704D01*
X90123Y63571D01*
X90139Y63495D01*
X90167Y63448D01*
X90122Y63409D01*
X90126Y63332D01*
X90065Y63333D01*
X90007Y63332D01*
X89998Y63632D01*
X89980Y63941D01*
X90045Y63940D01*
X90109Y63941D01*
G37*
G36*
X88434Y63748D02*X88503Y63785D01*
X88590Y63796D01*
X88682Y63783D01*
X88761Y63736D01*
X88815Y63652D01*
X88834Y63546D01*
X88818Y63451D01*
X88766Y63375D01*
X88685Y63333D01*
X88580Y63321D01*
X88514Y63325D01*
X88433Y63338D01*
X88416Y63433D01*
X88502Y63410D01*
X88568Y63404D01*
X88622Y63412D01*
X88669Y63438D01*
X88699Y63480D01*
X88709Y63535D01*
X88708Y63561D01*
X88704Y63614D01*
X88696Y63647D01*
X88682Y63674D01*
X88658Y63699D01*
X88626Y63716D01*
X88589Y63721D01*
X88559Y63718D01*
X88534Y63708D01*
X88516Y63691D01*
X88503Y63668D01*
X88497Y63645D01*
X88496Y63613D01*
X88704Y63614D01*
X88708Y63561D01*
X88381Y63562D01*
X88376Y63605D01*
X88391Y63686D01*
X88434Y63748D01*
G37*
G36*
X89912Y63622D02*X89919Y63532D01*
X89766Y63534D01*
X89610Y63532D01*
X89604Y63622D01*
X89758Y63620D01*
X89912Y63622D01*
G37*
G36*
X87880Y63562D02*X87876Y63605D01*
X87891Y63686D01*
X87934Y63748D01*
X88002Y63785D01*
X88089Y63796D01*
X88181Y63783D01*
X88260Y63736D01*
X88314Y63652D01*
X88334Y63546D01*
X88317Y63451D01*
X88265Y63375D01*
X88184Y63333D01*
X88080Y63321D01*
X88013Y63325D01*
X87932Y63338D01*
X87916Y63433D01*
X88001Y63410D01*
X88068Y63404D01*
X88121Y63412D01*
X88168Y63438D01*
X88198Y63480D01*
X88208Y63535D01*
X88207Y63561D01*
X88204Y63614D01*
X88195Y63647D01*
X88181Y63674D01*
X88157Y63699D01*
X88125Y63716D01*
X88089Y63721D01*
X88058Y63718D01*
X88034Y63708D01*
X88015Y63691D01*
X88002Y63668D01*
X87996Y63645D01*
X87995Y63613D01*
X88204Y63614D01*
X88207Y63561D01*
X87880Y63562D01*
G37*
G36*
X89358Y63840D02*X89346Y63855D01*
X89327Y63865D01*
X89302Y63868D01*
X89223Y63853D01*
X89228Y63938D01*
X89336Y63953D01*
X89384Y63948D01*
X89428Y63932D01*
X89459Y63904D01*
X89474Y63863D01*
X89478Y63790D01*
Y63772D01*
X89538D01*
X89540Y63728D01*
X89543Y63685D01*
X89488D01*
X89501Y63395D01*
X89507Y63321D01*
X89443Y63322D01*
X89378Y63321D01*
X89365Y63685D01*
X89258D01*
X89253Y63772D01*
X89367D01*
Y63789D01*
X89365Y63818D01*
X89358Y63840D01*
G37*
G36*
X91651Y63930D02*X91663Y63592D01*
X91679Y63321D01*
X91611Y63322D01*
X91549Y63321D01*
X91547Y63404D01*
X91532Y63768D01*
X91521Y63930D01*
X91585Y63930D01*
X91651Y63930D01*
G37*
G36*
X83575Y64863D02*X83587Y64923D01*
X83620Y64972D01*
X83669Y65005D01*
X83730Y65017D01*
X83790Y65005D01*
X83839Y64972D01*
X83872Y64923D01*
X83884Y64863D01*
X83872Y64803D01*
X83839Y64754D01*
X83790Y64720D01*
X83730Y64708D01*
X83669Y64720D01*
X83620Y64754D01*
X83587Y64803D01*
X83575Y64863D01*
G37*
G36*
X84180Y64939D02*X84187Y64863D01*
X84177Y64771D01*
X84151Y64685D01*
X84109Y64607D01*
X84053Y64540D01*
X83898Y64695D01*
X83927Y64730D01*
X83948Y64770D01*
X83962Y64815D01*
X83967Y64863D01*
X83962Y64911D01*
X83948Y64955D01*
X83927Y64996D01*
X83898Y65031D01*
X83862Y65060D01*
X83822Y65082D01*
X83777Y65096D01*
X83730Y65100D01*
X83682Y65096D01*
X83637Y65082D01*
X83596Y65060D01*
X83561Y65031D01*
X83532Y64996D01*
X83510Y64955D01*
X83496Y64911D01*
X83492Y64863D01*
X83496Y64815D01*
X83510Y64770D01*
X83532Y64730D01*
X83561Y64695D01*
X83596Y64666D01*
X83637Y64644D01*
X83682Y64630D01*
X83730Y64625D01*
X83777Y64630D01*
X83822Y64644D01*
X83862Y64666D01*
X83898Y64695D01*
X84053Y64540D01*
X83985Y64484D01*
X83908Y64441D01*
X83822Y64415D01*
X83730Y64406D01*
X83603Y64423D01*
X83490Y64473D01*
X83396Y64550D01*
X83325Y64649D01*
X82207D01*
Y64410D01*
X81913D01*
Y64650D01*
X81888Y64658D01*
X81866Y64675D01*
X81850Y64697D01*
X81842Y64722D01*
X81780Y65452D01*
X80221Y63864D01*
X80128Y63956D01*
X81765Y65622D01*
X81588Y67673D01*
X81746Y67690D01*
X82755Y66629D01*
X82843Y66535D01*
X82754Y66444D01*
X81926Y65601D01*
X81994Y64808D01*
X83276D01*
X83272Y64863D01*
X83303Y65029D01*
X83389Y65168D01*
X83517Y65268D01*
X83676Y65317D01*
X83689Y65457D01*
X82754Y66444D01*
X82843Y66535D01*
X83705Y65628D01*
X83884Y67546D01*
X83866D01*
Y67577D01*
X82843Y66535D01*
X82755Y66629D01*
X82665Y66538D01*
X81764Y67488D01*
X81912Y65771D01*
X82665Y66538D01*
X82755Y66629D01*
X83351Y67235D01*
X82510D01*
Y67553D01*
X83482D01*
Y67369D01*
X83866Y67760D01*
Y68100D01*
X83935D01*
X83958Y68340D01*
X81691D01*
X81746Y67690D01*
X81588Y67673D01*
X80031Y69316D01*
Y69497D01*
X81571Y67875D01*
X81531Y68347D01*
X81339D01*
Y68505D01*
X81508D01*
X81519Y68536D01*
X81572Y68627D01*
X81644Y68704D01*
X81741Y68585D01*
X81677Y68505D01*
X81835D01*
Y68650D01*
X81741Y68585D01*
X81644Y68704D01*
X81733Y68769D01*
X81835Y68824D01*
Y68929D01*
X82107D01*
Y68913D01*
X82322Y68951D01*
X82537Y68972D01*
Y69034D01*
X83317D01*
Y68644D01*
X82537D01*
Y68809D01*
X82695Y68803D01*
X83158D01*
Y68876D01*
X82695D01*
Y68803D01*
X82537Y68809D01*
X82322Y68786D01*
X82107Y68747D01*
Y68505D01*
X83951D01*
X83861Y68617D01*
X83712Y68699D01*
X83524Y68756D01*
X83317Y68792D01*
Y68954D01*
X83527Y68919D01*
X83726Y68863D01*
X83900Y68782D01*
X84033Y68670D01*
X84066Y68704D01*
X84106Y68730D01*
X84150Y68746D01*
X84200Y68751D01*
X84242Y68747D01*
X84282Y68735D01*
X84318Y68715D01*
X84349Y68690D01*
X84375Y68658D01*
X84395Y68622D01*
X84407Y68582D01*
X84411Y68540D01*
X84407Y68497D01*
X84395Y68458D01*
X84375Y68422D01*
X84349Y68390D01*
X84318Y68364D01*
X84282Y68345D01*
X84242Y68332D01*
X84200Y68328D01*
X84118Y68345D01*
X84095Y68100D01*
X84200D01*
X85594Y69518D01*
Y69337D01*
X84380Y68100D01*
X84405D01*
Y67546D01*
X84043D01*
X84056Y67689D01*
X84266D01*
Y67957D01*
X84239D01*
X84065Y67780D01*
X84056Y67689D01*
X84043Y67546D01*
X83850Y65475D01*
X85278Y63971D01*
X85184Y63881D01*
X84180Y64939D01*
G37*
G36*
X80517Y63827D02*X85116D01*
Y62707D01*
X80517D01*
Y63827D01*
G37*
G36*
X98965Y65499D02*X99182Y65484D01*
X99494Y65515D01*
X99784Y65606D01*
X100048Y65749D01*
X100277Y65938D01*
X100467Y66168D01*
X100610Y66431D01*
X100701Y66722D01*
X100732Y67033D01*
X100701Y67344D01*
X100610Y67635D01*
X100467Y67898D01*
X100277Y68128D01*
X100048Y68317D01*
X99784Y68461D01*
X99494Y68551D01*
X99182Y68583D01*
X98965Y68567D01*
Y69218D01*
X99182Y69228D01*
X99624Y69184D01*
X100036Y69056D01*
X100408Y68853D01*
X100734Y68584D01*
X101002Y68259D01*
X101205Y67886D01*
X101333Y67475D01*
X101378Y67033D01*
X101333Y66592D01*
X101205Y66180D01*
X101002Y65807D01*
X100734Y65482D01*
X100408Y65213D01*
X100036Y65011D01*
X99624Y64882D01*
X99182Y64838D01*
X98965Y64848D01*
Y65499D01*
G37*
G36*
X96921Y67368D02*X96843Y67620D01*
X96724Y67851D01*
X96570Y68057D01*
X96384Y68236D01*
X96172Y68381D01*
X95935Y68490D01*
X95679Y68559D01*
X95408Y68583D01*
X95191Y68567D01*
Y69218D01*
X95408Y69228D01*
X95850Y69184D01*
X96262Y69056D01*
X96635Y68853D01*
X96960Y68584D01*
X97228Y68259D01*
X97431Y67886D01*
X97559Y67475D01*
X97604Y67033D01*
X97559Y66592D01*
X97431Y66180D01*
X97228Y65807D01*
X96960Y65482D01*
X96635Y65213D01*
X96262Y65011D01*
X95850Y64882D01*
X95408Y64838D01*
X95191Y64848D01*
Y65499D01*
X95408Y65484D01*
X95679Y65507D01*
X95935Y65576D01*
X96172Y65685D01*
X96384Y65831D01*
X96570Y66009D01*
X96724Y66215D01*
X96843Y66446D01*
X96921Y66697D01*
X95653D01*
Y67368D01*
X96921D01*
G37*
G36*
X100328Y73329D02*X100437Y73809D01*
X100761Y73691D01*
X101222Y73634D01*
X101707Y73725D01*
X102094Y73987D01*
X102350Y74400D01*
X102443Y74949D01*
X102362Y75467D01*
X102124Y75890D01*
X101735Y76175D01*
X101200Y76279D01*
X100959Y76265D01*
X100756Y76228D01*
X100590Y76175D01*
X100459Y76112D01*
X100314Y76606D01*
X100680Y76730D01*
X101200Y76788D01*
X101611Y76752D01*
X101980Y76648D01*
X102302Y76483D01*
X102576Y76260D01*
X102794Y75987D01*
X102956Y75669D01*
X103055Y75311D01*
X103090Y74920D01*
X103058Y74534D01*
X102965Y74185D01*
X102815Y73878D01*
X102612Y73616D01*
X102358Y73405D01*
X102059Y73249D01*
X101718Y73152D01*
X101338Y73118D01*
X101005Y73139D01*
X100719Y73191D01*
X100490Y73259D01*
X100328Y73329D01*
G37*
G36*
X99652Y78357D02*Y73198D01*
X99013D01*
Y75320D01*
X99004Y75486D01*
X98969Y75625D01*
X98844Y75872D01*
X98652Y76076D01*
X98404Y76214D01*
X98112Y76265D01*
X97730Y76181D01*
X97478Y75954D01*
X97340Y75621D01*
X97298Y75218D01*
Y73198D01*
X96658D01*
Y75291D01*
X96692Y75704D01*
X96784Y76038D01*
X96922Y76300D01*
X97095Y76498D01*
X97290Y76639D01*
X97495Y76731D01*
X97698Y76780D01*
X97886Y76795D01*
X98232Y76745D01*
X98540Y76614D01*
X98805Y76415D01*
X98998Y76163D01*
X99013D01*
Y78357D01*
X99652D01*
G37*
G36*
X95692Y73198D02*X95052D01*
Y76715D01*
X95692D01*
Y73198D01*
G37*
G36*
X94980Y77703D02*X95007Y77861D01*
X95086Y77988D01*
X95210Y78072D01*
X95372Y78103D01*
X95532Y78072D01*
X95659Y77988D01*
X95742Y77861D01*
X95772Y77703D01*
X95743Y77550D01*
X95664Y77426D01*
X95542Y77342D01*
X95386Y77311D01*
X95215Y77342D01*
X95085Y77426D01*
X95004Y77550D01*
X94980Y77703D01*
G37*
G36*
X94064Y75567D02*Y71759D01*
X93432D01*
Y73670D01*
X93417D01*
X93225Y73437D01*
X92971Y73264D01*
X92670Y73156D01*
X92334Y73118D01*
X92028Y73148D01*
X91735Y73236D01*
X91465Y73383D01*
X91224Y73589D01*
X91023Y73854D01*
X90869Y74179D01*
X90771Y74563D01*
X90736Y75008D01*
X90765Y75391D01*
X90849Y75738D01*
X90983Y76043D01*
X91162Y76302D01*
X91380Y76511D01*
X91634Y76666D01*
X91917Y76762D01*
X92225Y76795D01*
X92626Y76749D01*
X92968Y76614D01*
X93250Y76400D01*
X93475Y76112D01*
X93246Y75820D01*
X93022Y76070D01*
X92740Y76230D01*
X92422Y76286D01*
X91973Y76181D01*
X91645Y75897D01*
X91444Y75480D01*
X91375Y74978D01*
X91447Y74426D01*
X91656Y73997D01*
X91992Y73718D01*
X92444Y73620D01*
X92770Y73674D01*
X93051Y73828D01*
X93268Y74064D01*
X93403Y74368D01*
X93432Y74630D01*
Y75233D01*
X93418Y75366D01*
X93388Y75494D01*
X93246Y75820D01*
X93475Y76112D01*
X93490D01*
X93519Y76715D01*
X94093D01*
X94073Y76185D01*
X94064Y75567D01*
G37*
G36*
X85841Y78042D02*X87321D01*
X88563Y75874D01*
X87467Y73198D01*
X85848D01*
X87119Y75845D01*
X85841Y78042D01*
G37*
G36*
X88605D02*X90046D01*
Y73198D01*
X88605D01*
Y78042D01*
G37*
G36*
X83918D02*X85359D01*
Y73198D01*
X83918D01*
Y78042D01*
G37*
G36*
X80842Y76650D02*X79742D01*
Y78042D01*
X83386D01*
Y76650D01*
X82282D01*
Y73198D01*
X80842D01*
Y76650D01*
G37*
G36*
X79512Y78025D02*Y77919D01*
X79310D01*
Y77383D01*
X79182D01*
Y77919D01*
X78977D01*
Y78025D01*
X79512D01*
G37*
G36*
X78155Y77383D02*X78204Y78025D01*
X78388D01*
X78500Y77707D01*
X78544Y77548D01*
X78547D01*
X78589Y77711D01*
X78700Y78025D01*
X78892D01*
X78939Y77383D01*
X78816D01*
X78793Y77760D01*
X78788Y77941D01*
X78780D01*
X78757Y77846D01*
X78736Y77758D01*
X78620Y77392D01*
X78488D01*
X78372Y77749D01*
X78318Y77941D01*
X78310D01*
X78306Y77760D01*
X78282Y77383D01*
X78155D01*
G37*
G36*
X92266Y71576D02*X92362Y72343D01*
X92492D01*
X92344Y71335D01*
X92216D01*
X92082Y71961D01*
X91947Y71335D01*
X91820D01*
X91671Y72343D01*
X91802D01*
X91898Y71531D01*
X92013Y72110D01*
X92153D01*
X92266Y71576D01*
G37*
G36*
X91444D02*X91540Y72343D01*
X91671D01*
X91522Y71335D01*
X91395D01*
X91260Y71961D01*
X91126Y71335D01*
X90999D01*
X90850Y72343D01*
X90981D01*
X91076Y71531D01*
X91191Y72110D01*
X91332D01*
X91444Y71576D01*
G37*
G36*
X90623D02*X90719Y72343D01*
X90850D01*
X90701Y71335D01*
X90574D01*
X90440Y71961D01*
X90305Y71335D01*
X90178D01*
X90029Y72343D01*
X90160D01*
X90256Y71531D01*
X90370Y72110D01*
X90511D01*
X90623Y71576D01*
G37*
G36*
X89728Y71448D02*X89723Y71399D01*
X89697Y71366D01*
X89621Y71335D01*
X89544Y71366D01*
X89527Y71398D01*
X89512Y71448D01*
X89544Y71530D01*
X89621Y71561D01*
X89697Y71530D01*
X89729Y71490D01*
X89728Y71448D01*
G37*
G36*
X88493Y71386D02*Y71522D01*
X88553Y71480D01*
X88597Y71461D01*
X88712Y71440D01*
X88836Y71459D01*
X88909Y71540D01*
X88959Y71659D01*
X88975Y71839D01*
X88967Y72010D01*
X88909Y72138D01*
X88831Y72207D01*
X88712Y72237D01*
X88664Y72228D01*
X88598Y72214D01*
X88493Y72145D01*
Y72291D01*
X88554Y72305D01*
X88598Y72330D01*
X88712Y72343D01*
X88887Y72307D01*
X89009Y72209D01*
X89091Y72046D01*
X89116Y71839D01*
X89094Y71619D01*
X89009Y71467D01*
X88886Y71368D01*
X88712Y71335D01*
X88663Y71337D01*
X88598Y71347D01*
X88493Y71386D01*
G37*
G36*
X88160Y71962D02*Y72343D01*
X88295D01*
Y71335D01*
X88160D01*
Y71857D01*
X87792D01*
Y71335D01*
X87656D01*
Y72343D01*
X87792D01*
Y71962D01*
X88160D01*
G37*
G36*
X86884Y72237D02*Y72343D01*
X87435D01*
Y72237D01*
X87226D01*
Y71440D01*
X87435D01*
Y71335D01*
X86884D01*
Y71440D01*
X87092D01*
Y72237D01*
X86884D01*
G37*
G36*
X86326Y72343D02*Y72237D01*
X86181Y72191D01*
X86152Y72132D01*
X86129Y72062D01*
X86145Y71981D01*
X86181Y71931D01*
X86326Y71885D01*
X86483D01*
Y72237D01*
X86326D01*
Y72343D01*
X86617D01*
Y71335D01*
X86483D01*
Y71780D01*
X86326D01*
X86187Y71791D01*
X86073Y71851D01*
X86018Y71936D01*
X85988Y72062D01*
X86017Y72182D01*
X86075Y72271D01*
X86185Y72325D01*
X86326Y72343D01*
G37*
G36*
X85700Y71895D02*Y72343D01*
X85836D01*
Y71335D01*
X85700D01*
Y71728D01*
X85597Y71839D01*
X85274Y71335D01*
X85110D01*
X85509Y71930D01*
X85123Y72343D01*
X85280D01*
X85700Y71895D01*
G37*
G36*
X84420Y72237D02*Y72343D01*
X84971D01*
Y72237D01*
X84763D01*
Y71440D01*
X84971D01*
Y71335D01*
X84420D01*
Y71440D01*
X84628D01*
Y72237D01*
X84420D01*
G37*
G36*
X83495D02*Y72343D01*
X84253D01*
Y72237D01*
X83940D01*
Y71335D01*
X83806D01*
Y72237D01*
X83495D01*
G37*
G36*
X83163Y71448D02*X83158Y71399D01*
X83131Y71366D01*
X83055Y71335D01*
X82979Y71366D01*
X82962Y71398D01*
X82947Y71448D01*
X82979Y71530D01*
X83055Y71561D01*
X83131Y71530D01*
X83164Y71490D01*
X83163Y71448D01*
G37*
G36*
X82048Y71513D02*X82384Y72343D01*
X82554D01*
Y71335D01*
X82424D01*
Y72165D01*
X82088Y71335D01*
X81918D01*
Y72343D01*
X82048D01*
Y71513D01*
G37*
G36*
X81105Y72237D02*Y72343D01*
X81694D01*
Y71335D01*
X81091D01*
Y71440D01*
X81560D01*
Y71857D01*
X81124D01*
Y71962D01*
X81560D01*
Y72237D01*
X81105D01*
G37*
G36*
X80214D02*Y72343D01*
X80972D01*
Y72237D01*
X80660D01*
Y71335D01*
X80526D01*
Y72237D01*
X80214D01*
G37*
M02*
