G04 start of page 9 for group -4079 idx -4079 *
G04 Title: (unknown), topsilk *
G04 Creator: pcb 1.99z *
G04 CreationDate: Mon Jul 22 15:03:28 2019 UTC *
G04 For: matt *
G04 Format: Gerber/RS-274X *
G04 PCB-Dimensions (mm): 152.40 127.00 *
G04 PCB-Coordinate-Origin: lower left *
%MOMM*%
%FSLAX43Y43*%
%LNTOPSILK*%
%ADD45C,0.300*%
%ADD44C,0.150*%
%ADD43C,0.002*%
%ADD42C,0.140*%
%ADD41C,0.150*%
G54D41*X59690Y57785D02*Y59690D01*
X72390D01*
Y57785D01*
X62230Y59690D02*Y57785D01*
G54D42*X84274Y80118D02*Y79702D01*
Y80118D02*X83899Y80160D01*
X83941Y80118D01*
X83982Y79994D01*
Y79869D01*
X83941Y79744D01*
X83858Y79661D01*
X83733Y79619D01*
X83650D02*X83733D01*
X83650D02*X83525Y79661D01*
X83442Y79744D01*
X83400Y79869D01*
Y79994D02*Y79869D01*
Y79994D02*X83442Y80118D01*
X83483Y80160D01*
X83566Y80202D01*
X81669Y79690D02*X81752Y79732D01*
X81793Y79857D01*
Y79940D02*Y79857D01*
Y79940D02*X81752Y80065D01*
X81627Y80148D01*
X81419Y80189D01*
X81211D02*X81419D01*
X81211D02*X81045Y80148D01*
X80961Y80065D01*
X80920Y79940D01*
Y79898D01*
X80961Y79773D01*
X81045Y79690D01*
X81170Y79649D01*
X81211D01*
X81336Y79690D01*
X81419Y79773D01*
X81460Y79898D01*
Y79940D02*Y79898D01*
Y79940D02*X81419Y80065D01*
X81336Y80148D01*
X81211Y80189D01*
X79274Y79564D02*X78400Y79980D01*
X79274Y80146D02*Y79564D01*
X73916Y79524D02*X73791Y79566D01*
X73708Y79649D01*
X73666Y79774D01*
Y79815D02*Y79774D01*
Y79815D02*X73708Y79940D01*
X73791Y80024D01*
X73916Y80065D01*
X73957D01*
X74082Y80024D01*
X74166Y79940D01*
X74207Y79815D01*
Y79774D01*
X74166Y79649D01*
X74082Y79566D01*
X73916Y79524D01*
X73708D02*X73916D01*
X73708D02*X73500Y79566D01*
X73375Y79649D01*
X73333Y79774D01*
Y79857D02*Y79774D01*
Y79857D02*X73375Y79982D01*
X73458Y80024D01*
X71725Y80027D02*X71767Y79944D01*
X71891Y79819D01*
X71018D02*X71891D01*
Y79307D02*X71850Y79432D01*
X71725Y79515D01*
X71517Y79557D01*
X71392D02*X71517D01*
X71392D02*X71184Y79515D01*
X71059Y79432D01*
X71018Y79307D01*
Y79224D01*
X71059Y79099D01*
X71184Y79016D01*
X71392Y78974D01*
X71517D01*
X71725Y79016D01*
X71850Y79099D01*
X71891Y79224D01*
Y79307D02*Y79224D01*
X68924Y80065D02*X68965Y79982D01*
X69090Y79857D01*
X68216D02*X69090D01*
X68924Y79595D02*X68965Y79512D01*
X69090Y79387D01*
X68216D02*X69090D01*
X72904Y80200D02*X72987D01*
X73112Y80158D01*
X73154Y80075D01*
Y79992D01*
X73112Y79909D01*
X72987Y79742D01*
X72946Y79659D01*
Y79576D01*
X72987Y79493D01*
X73071Y79451D01*
X72987Y80200D02*X73071Y80158D01*
X73112Y80075D01*
Y79992D01*
X73071Y79909D01*
X72946Y79742D01*
X72904Y79659D01*
Y79576D01*
X72946Y79493D01*
X73071Y79451D01*
X73154D01*
X70404Y80050D02*X70487D01*
X70612Y80008D01*
X70654Y79925D01*
Y79842D01*
X70612Y79759D01*
X70487Y79592D01*
X70446Y79509D01*
Y79426D01*
X70487Y79343D01*
X70571Y79301D01*
X70487Y80050D02*X70571Y80008D01*
X70612Y79925D01*
Y79842D01*
X70571Y79759D01*
X70446Y79592D01*
X70404Y79509D01*
Y79426D01*
X70446Y79343D01*
X70571Y79301D01*
X70654D01*
X59472Y76716D02*X60190D01*
X59472D02*X59328Y76668D01*
X59233Y76573D01*
X59184Y76429D01*
Y76333D01*
X59233Y76189D01*
X59328Y76093D01*
X59472Y76046D01*
X60190D01*
X60046Y75073D02*X60142Y75169D01*
X60190Y75313D01*
Y75505D02*Y75313D01*
Y75505D02*X60142Y75648D01*
X60046Y75744D01*
X59951D02*X60046D01*
X59951D02*X59855Y75696D01*
X59807Y75648D01*
X59759Y75552D01*
X59664Y75265D01*
X59616Y75169D01*
X59568Y75122D01*
X59472Y75073D01*
X59328D02*X59472D01*
X59328D02*X59233Y75169D01*
X59184Y75313D01*
Y75505D02*Y75313D01*
Y75505D02*X59233Y75648D01*
X59328Y75744D01*
X59184Y74772D02*X60190D01*
Y74149D01*
X59711Y74772D02*Y74389D01*
X59184Y74772D02*Y74149D01*
Y73847D02*X60190D01*
Y73416D01*
X60142Y73273D01*
X60095Y73225D01*
X59999Y73177D01*
X59903D02*X59999D01*
X59903D02*X59807Y73225D01*
X59759Y73273D01*
X59711Y73416D01*
Y73847D02*Y73416D01*
Y73512D02*X59184Y73177D01*
X77854Y80300D02*X77937D01*
X78062Y80258D01*
X78104Y80175D01*
Y80092D01*
X78062Y80009D01*
X77937Y79842D01*
X77896Y79759D01*
Y79676D01*
X77937Y79593D01*
X78021Y79551D01*
X77937Y80300D02*X78021Y80258D01*
X78062Y80175D01*
Y80092D01*
X78021Y80009D01*
X77896Y79842D01*
X77854Y79759D01*
Y79676D01*
X77896Y79593D01*
X78021Y79551D01*
X78104D01*
X75404Y80150D02*X75487D01*
X75612Y80108D01*
X75654Y80025D01*
Y79942D01*
X75612Y79859D01*
X75487Y79692D01*
X75446Y79609D01*
Y79526D01*
X75487Y79443D01*
X75571Y79401D01*
X75487Y80150D02*X75571Y80108D01*
X75612Y80025D01*
Y79942D01*
X75571Y79859D01*
X75446Y79692D01*
X75404Y79609D01*
Y79526D01*
X75446Y79443D01*
X75571Y79401D01*
X75654D01*
X76764Y79869D02*X76722Y79994D01*
X76639Y80036D01*
X76556D02*X76639D01*
X76556D02*X76473Y79994D01*
X76431Y79911D01*
X76390Y79744D01*
X76348Y79619D01*
X76265Y79536D01*
X76182Y79495D01*
X76057D02*X76182D01*
X76057D02*X75974Y79536D01*
X75932Y79578D01*
X75890Y79703D01*
Y79869D02*Y79703D01*
Y79869D02*X75932Y79994D01*
X75974Y80036D01*
X76057Y80077D01*
X76182D01*
X76265Y80036D01*
X76348Y79953D01*
X76390Y79828D01*
X76431Y79661D01*
X76473Y79578D01*
X76556Y79536D01*
X76639D01*
X76722Y79578D01*
X76764Y79703D01*
Y79869D02*Y79703D01*
X99553Y80091D02*Y79634D01*
X99220Y79883D01*
Y79758D01*
X99179Y79675D01*
X99137Y79634D01*
X99013Y79592D01*
X98930D02*X99013D01*
X98930D02*X98805Y79634D01*
X98721Y79717D01*
X98680Y79842D01*
Y79966D02*Y79842D01*
Y79966D02*X98721Y80091D01*
X98763Y80133D01*
X98846Y80174D01*
X98745Y79288D02*X98703Y79330D01*
X98662Y79288D01*
X98703Y79247D01*
X98745Y79288D01*
X99553Y78902D02*Y78444D01*
X99220Y78694D01*
Y78569D01*
X99179Y78486D01*
X99137Y78444D01*
X99013Y78402D01*
X98930D02*X99013D01*
X98930D02*X98805Y78444D01*
X98721Y78527D01*
X98680Y78652D01*
Y78777D02*Y78652D01*
Y78777D02*X98721Y78902D01*
X98763Y78943D01*
X98846Y78985D01*
X99553Y78140D02*X98680Y77807D01*
X99553Y77474D02*X98680Y77807D01*
X104724Y80163D02*X103850Y79831D01*
X104724Y79498D02*X103850Y79831D01*
X104432Y79028D02*X104391Y79111D01*
X104308Y79194D01*
X104183Y79235D01*
X104100D02*X104183D01*
X104100D02*X103975Y79194D01*
X103892Y79111D01*
X103850Y79028D01*
Y78903D01*
X103892Y78820D01*
X103975Y78737D01*
X104100Y78695D01*
X104183D01*
X104308Y78737D01*
X104391Y78820D01*
X104432Y78903D01*
Y79028D02*Y78903D01*
X104017Y78433D02*X104432D01*
X104017D02*X103892Y78391D01*
X103850Y78308D01*
Y78183D01*
X103892Y78100D01*
X104017Y77975D01*
X103850D02*X104432D01*
X104016Y77588D02*X104724D01*
X104016D02*X103892Y77547D01*
X103850Y77463D01*
Y77380D01*
X104432Y77713D02*Y77422D01*
X101912Y79509D02*X101995Y79551D01*
X102078Y79634D01*
X102120Y79717D01*
Y79884D02*Y79717D01*
Y79884D02*X102078Y79967D01*
X101995Y80050D01*
X101912Y80092D01*
X101787Y80133D01*
X101579D02*X101787D01*
X101579D02*X101454Y80092D01*
X101371Y80050D01*
X101288Y79967D01*
X101246Y79884D01*
Y79717D01*
X101288Y79634D01*
X101371Y79551D01*
X101454Y79509D01*
X101579D01*
Y79717D02*Y79509D01*
X101246Y79247D02*X102120D01*
X101246Y78665D01*
X102120D01*
X101246Y78403D02*X102120D01*
Y78111D01*
X102078Y77986D01*
X101995Y77903D01*
X101912Y77862D01*
X101787Y77820D01*
X101579D02*X101787D01*
X101579D02*X101454Y77862D01*
X101371Y77903D01*
X101288Y77986D01*
X101246Y78111D01*
Y78403D02*Y78111D01*
X97047Y79887D02*X97005Y80012D01*
X96881Y80095D01*
X96673Y80137D01*
X96548D02*X96673D01*
X96548D02*X96340Y80095D01*
X96215Y80012D01*
X96173Y79887D01*
Y79804D01*
X96215Y79679D01*
X96340Y79596D01*
X96548Y79554D01*
X96673D01*
X96881Y79596D01*
X97005Y79679D01*
X97047Y79804D01*
Y79887D02*Y79804D01*
X94292Y79993D02*X94334Y79910D01*
X94459Y79785D01*
X93585D02*X94459D01*
X91657Y80165D02*X91698D01*
X91781Y80124D01*
X91823Y80082D01*
X91865Y79999D01*
Y79833D01*
X91823Y79749D01*
X91781Y79708D01*
X91698Y79666D01*
X91615D02*X91698D01*
X91615D02*X91532Y79708D01*
X91407Y79791D01*
X90991Y80207D01*
Y79625D01*
X89354Y80115D02*Y79657D01*
X89021Y79907D01*
Y79782D01*
X88979Y79699D01*
X88938Y79657D01*
X88813Y79615D01*
X88730D02*X88813D01*
X88730D02*X88605Y79657D01*
X88522Y79740D01*
X88480Y79865D01*
Y79990D02*Y79865D01*
Y79990D02*X88522Y80115D01*
X88563Y80156D01*
X88646Y80198D01*
X86964Y79779D02*X86381Y80195D01*
Y79571D01*
X86090Y79779D02*X86964D01*
X85604Y80250D02*X85687D01*
X85812Y80208D01*
X85854Y80125D01*
Y80042D01*
X85812Y79959D01*
X85687Y79792D01*
X85646Y79709D01*
Y79626D01*
X85687Y79543D01*
X85771Y79501D01*
X85687Y80250D02*X85771Y80208D01*
X85812Y80125D01*
Y80042D01*
X85771Y79959D01*
X85646Y79792D01*
X85604Y79709D01*
Y79626D01*
X85646Y79543D01*
X85771Y79501D01*
X85854D01*
X88675Y73224D02*Y71985D01*
Y73224D02*X89147Y71985D01*
X89620Y73224D02*X89147Y71985D01*
X89620Y73224D02*Y71985D01*
X90818Y73224D02*X89992Y71985D01*
Y73224D02*X90818D01*
X89992Y71985D02*X90818D01*
X91747Y73224D02*Y71985D01*
X92455D01*
X92886Y72814D02*Y71988D01*
X92827Y73227D02*X92886Y73168D01*
X92945Y73227D01*
X92886Y73286D01*
X92827Y73227D01*
X93495Y73224D02*Y72221D01*
X93553Y72044D01*
X93671Y71985D01*
X93790D01*
X93317Y72811D02*X93730D01*
X94161Y72457D02*X94869D01*
Y72575D02*Y72457D01*
Y72575D02*X94810Y72693D01*
X94751Y72752D01*
X94633Y72811D01*
X94456D02*X94633D01*
X94456D02*X94338Y72752D01*
X94220Y72634D01*
X94161Y72457D01*
Y72339D01*
X94220Y72162D01*
X94338Y72044D01*
X94456Y71985D01*
X94633D01*
X94751Y72044D01*
X94869Y72162D01*
X53812Y61149D02*X52938Y61482D01*
X53812Y61149D02*X52938Y60816D01*
X53229Y61357D02*Y60941D01*
X53645Y60554D02*X53687Y60471D01*
X53812Y60346D01*
X52938D02*X53812D01*
X53604Y60043D02*X53645D01*
X53728Y60001D01*
X53770Y59960D01*
X53812Y59876D01*
Y59710D01*
X53770Y59627D01*
X53728Y59585D01*
X53645Y59544D01*
X53562D02*X53645D01*
X53562D02*X53479Y59585D01*
X53354Y59668D01*
X52938Y60084D01*
Y59502D01*
X56312Y60749D02*X55438Y61082D01*
X56312Y60749D02*X55438Y60416D01*
X55729Y60957D02*Y60541D01*
X56145Y60154D02*X56187Y60071D01*
X56312Y59946D01*
X55438D02*X56312D01*
X56145Y59684D02*X56187Y59601D01*
X56312Y59476D01*
X55438D02*X56312D01*
X58862Y61149D02*X57988Y61482D01*
X58862Y61149D02*X57988Y60816D01*
X58279Y61357D02*Y60941D01*
X58695Y60554D02*X58737Y60471D01*
X58862Y60346D01*
X57988D02*X58862D01*
Y59835D02*X58820Y59959D01*
X58695Y60043D01*
X58487Y60084D01*
X58363D02*X58487D01*
X58363D02*X58154Y60043D01*
X58030Y59959D01*
X57988Y59835D01*
Y59751D01*
X58030Y59627D01*
X58154Y59543D01*
X58363Y59502D01*
X58487D01*
X58695Y59543D01*
X58820Y59627D01*
X58862Y59751D01*
Y59835D02*Y59751D01*
X60488Y62417D02*X61362D01*
Y62043D01*
X61320Y61918D01*
X61278Y61876D01*
X61195Y61835D01*
X61112D02*X61195D01*
X61112D02*X61029Y61876D01*
X60987Y61918D01*
X60946Y62043D01*
Y62417D02*Y62043D01*
Y62126D02*X60488Y61835D01*
X61237Y60990D02*X61320Y61074D01*
X61362Y61198D01*
Y61365D02*Y61198D01*
Y61365D02*X61320Y61490D01*
X61237Y61573D01*
X61154D02*X61237D01*
X61154D02*X61070Y61532D01*
X61029Y61490D01*
X60987Y61406D01*
X60904Y61157D01*
X60862Y61074D01*
X60821Y61032D01*
X60738Y60990D01*
X60613D02*X60738D01*
X60613D02*X60530Y61074D01*
X60488Y61198D01*
Y61365D02*Y61198D01*
Y61365D02*X60530Y61490D01*
X60613Y61573D01*
X60488Y60437D02*X61362D01*
Y60728D02*Y60146D01*
X63962Y62734D02*Y62277D01*
X63629Y62526D01*
Y62401D01*
X63587Y62318D01*
X63546Y62277D01*
X63421Y62235D01*
X63338D02*X63421D01*
X63338D02*X63213Y62277D01*
X63130Y62360D01*
X63088Y62485D01*
Y62609D02*Y62485D01*
Y62609D02*X63130Y62734D01*
X63171Y62776D01*
X63254Y62817D01*
X63153Y61931D02*X63112Y61973D01*
X63070Y61931D01*
X63112Y61890D01*
X63153Y61931D01*
X63962Y61545D02*Y61087D01*
X63629Y61337D01*
Y61212D01*
X63587Y61129D01*
X63546Y61087D01*
X63421Y61045D01*
X63338D02*X63421D01*
X63338D02*X63213Y61087D01*
X63130Y61170D01*
X63088Y61295D01*
Y61420D02*Y61295D01*
Y61420D02*X63130Y61545D01*
X63171Y61586D01*
X63254Y61628D01*
X63962Y60783D02*X63088Y60450D01*
X63962Y60117D02*X63088Y60450D01*
X66204Y61843D02*X66287Y61885D01*
X66370Y61968D01*
X66412Y62051D01*
Y62218D02*Y62051D01*
Y62218D02*X66370Y62301D01*
X66287Y62384D01*
X66204Y62426D01*
X66079Y62467D01*
X65871D02*X66079D01*
X65871D02*X65746Y62426D01*
X65663Y62384D01*
X65580Y62301D01*
X65538Y62218D01*
Y62051D01*
X65580Y61968D01*
X65663Y61885D01*
X65746Y61843D01*
X65871D01*
Y62051D02*Y61843D01*
X65538Y61581D02*X66412D01*
X65538Y60999D01*
X66412D01*
X65538Y60737D02*X66412D01*
Y60445D01*
X66370Y60320D01*
X66287Y60237D01*
X66204Y60196D01*
X66079Y60154D01*
X65871D02*X66079D01*
X65871D02*X65746Y60196D01*
X65663Y60237D01*
X65580Y60320D01*
X65538Y60445D01*
Y60737D02*Y60445D01*
X68962Y61284D02*X68088Y61617D01*
X68962Y61284D02*X68088Y60951D01*
X68379Y61492D02*Y61076D01*
X68670Y60149D02*X68546Y60190D01*
X68463Y60273D01*
X68421Y60398D01*
Y60440D02*Y60398D01*
Y60440D02*X68463Y60565D01*
X68546Y60648D01*
X68670Y60689D01*
X68712D01*
X68837Y60648D01*
X68920Y60565D01*
X68962Y60440D01*
Y60398D01*
X68920Y60273D01*
X68837Y60190D01*
X68670Y60149D01*
X68463D02*X68670D01*
X68463D02*X68254Y60190D01*
X68130Y60273D01*
X68088Y60398D01*
Y60481D02*Y60398D01*
Y60481D02*X68130Y60606D01*
X68213Y60648D01*
X71512Y61334D02*X70638Y61667D01*
X71512Y61334D02*X70638Y61001D01*
X70929Y61542D02*Y61126D01*
X71512Y60531D02*X71470Y60656D01*
X71387Y60698D01*
X71304D02*X71387D01*
X71304D02*X71220Y60656D01*
X71179Y60573D01*
X71137Y60407D01*
X71096Y60282D01*
X71013Y60199D01*
X70929Y60157D01*
X70804D02*X70929D01*
X70804D02*X70721Y60199D01*
X70680Y60240D01*
X70638Y60365D01*
Y60531D02*Y60365D01*
Y60531D02*X70680Y60656D01*
X70721Y60698D01*
X70804Y60739D01*
X70929D01*
X71013Y60698D01*
X71096Y60615D01*
X71137Y60490D01*
X71179Y60323D01*
X71220Y60240D01*
X71304Y60199D01*
X71387D01*
X71470Y60240D01*
X71512Y60365D01*
Y60531D02*Y60365D01*
X59149Y67017D02*X60155D01*
Y66586D01*
X60107Y66442D01*
X60059Y66394D01*
X59963Y66346D01*
X59867D02*X59963D01*
X59867D02*X59771Y66394D01*
X59723Y66442D01*
X59675Y66586D01*
Y67017D02*Y66586D01*
Y66682D02*X59149Y66346D01*
Y66045D02*X60155D01*
Y65422D01*
X59675Y66045D02*Y65662D01*
X59149Y66045D02*Y65422D01*
X60011Y64450D02*X60107Y64546D01*
X60155Y64689D01*
Y64881D02*Y64689D01*
Y64881D02*X60107Y65025D01*
X60011Y65120D01*
X59915D02*X60011D01*
X59915D02*X59819Y65073D01*
X59771Y65025D01*
X59723Y64929D01*
X59628Y64641D01*
X59580Y64546D01*
X59532Y64498D01*
X59436Y64450D01*
X59292D02*X59436D01*
X59292D02*X59197Y64546D01*
X59149Y64689D01*
Y64881D02*Y64689D01*
Y64881D02*X59197Y65025D01*
X59292Y65120D01*
X59149Y64148D02*X60155D01*
Y63525D01*
X59675Y64148D02*Y63765D01*
X59149Y64148D02*Y63525D01*
Y62888D02*X60155D01*
Y63224D02*Y62553D01*
X74062Y60649D02*X73188Y60982D01*
X74062Y60649D02*X73188Y60316D01*
X73479Y60857D02*Y60441D01*
X74062Y59472D02*X73188Y59888D01*
X74062Y60054D02*Y59472D01*
X76662Y60599D02*X75788Y60932D01*
X76662Y60599D02*X75788Y60266D01*
X76079Y60807D02*Y60391D01*
X76537Y59505D02*X76620Y59547D01*
X76662Y59672D01*
Y59755D02*Y59672D01*
Y59755D02*X76620Y59880D01*
X76495Y59963D01*
X76287Y60004D01*
X76079D02*X76287D01*
X76079D02*X75913Y59963D01*
X75830Y59880D01*
X75788Y59755D01*
Y59713D01*
X75830Y59588D01*
X75913Y59505D01*
X76038Y59464D01*
X76079D01*
X76204Y59505D01*
X76287Y59588D01*
X76329Y59713D01*
Y59755D02*Y59713D01*
Y59755D02*X76287Y59880D01*
X76204Y59963D01*
X76079Y60004D01*
X79162Y60699D02*X78288Y61032D01*
X79162Y60699D02*X78288Y60366D01*
X78579Y60907D02*Y60491D01*
X79162Y60021D02*Y59605D01*
Y60021D02*X78787Y60063D01*
X78829Y60021D01*
X78870Y59896D01*
Y59771D01*
X78829Y59647D01*
X78746Y59564D01*
X78621Y59522D01*
X78538D02*X78621D01*
X78538D02*X78413Y59564D01*
X78330Y59647D01*
X78288Y59771D01*
Y59896D02*Y59771D01*
Y59896D02*X78330Y60021D01*
X78371Y60063D01*
X78454Y60104D01*
X82012Y60749D02*X81138Y61082D01*
X82012Y60749D02*X81138Y60416D01*
X81429Y60957D02*Y60541D01*
X82012Y59738D02*X81429Y60154D01*
Y59531D01*
X81138Y59738D02*X82012D01*
X84212Y60649D02*X83338Y60982D01*
X84212Y60649D02*X83338Y60316D01*
X83629Y60857D02*Y60441D01*
X84212Y59971D02*Y59514D01*
X83879Y59763D01*
Y59638D01*
X83837Y59555D01*
X83796Y59514D01*
X83671Y59472D01*
X83588D02*X83671D01*
X83588D02*X83463Y59514D01*
X83380Y59597D01*
X83338Y59722D01*
Y59846D02*Y59722D01*
Y59846D02*X83380Y59971D01*
X83421Y60013D01*
X83504Y60054D01*
X86762Y60649D02*X85888Y60982D01*
X86762Y60649D02*X85888Y60316D01*
X86179Y60857D02*Y60441D01*
X86554Y60013D02*X86595D01*
X86678Y59971D01*
X86720Y59930D01*
X86762Y59846D01*
Y59680D01*
X86720Y59597D01*
X86678Y59555D01*
X86595Y59514D01*
X86512D02*X86595D01*
X86512D02*X86429Y59555D01*
X86304Y59638D01*
X85888Y60054D01*
Y59472D01*
X89312Y60299D02*X88438Y60632D01*
X89312Y60299D02*X88438Y59966D01*
X88729Y60507D02*Y60091D01*
X89145Y59704D02*X89187Y59621D01*
X89312Y59496D01*
X88438D02*X89312D01*
X91862Y60699D02*X90988Y61032D01*
X91862Y60699D02*X90988Y60366D01*
X91279Y60907D02*Y60491D01*
X91862Y59855D02*X91820Y59979D01*
X91695Y60063D01*
X91487Y60104D01*
X91363D02*X91487D01*
X91363D02*X91154Y60063D01*
X91030Y59979D01*
X90988Y59855D01*
Y59771D01*
X91030Y59647D01*
X91154Y59564D01*
X91363Y59522D01*
X91487D01*
X91695Y59564D01*
X91820Y59647D01*
X91862Y59771D01*
Y59855D02*Y59771D01*
X93309Y60295D02*Y60254D01*
Y60295D02*X93351Y60378D01*
X93392Y60420D01*
X93476Y60462D01*
X93642D01*
X93725Y60420D01*
X93767Y60378D01*
X93808Y60295D01*
Y60212D01*
X93767Y60129D01*
X93684Y60004D01*
X93268Y59588D01*
X93850D01*
X94320Y60462D02*X94195Y60420D01*
X94154Y60337D01*
Y60254D01*
X94195Y60170D01*
X94278Y60129D01*
X94445Y60087D01*
X94570Y60046D01*
X94653Y59963D01*
X94695Y59879D01*
Y59754D01*
X94653Y59671D01*
X94611Y59630D01*
X94486Y59588D01*
X94320D02*X94486D01*
X94320D02*X94195Y59630D01*
X94154Y59671D01*
X94112Y59754D01*
Y59879D02*Y59754D01*
Y59879D02*X94154Y59963D01*
X94237Y60046D01*
X94362Y60087D01*
X94528Y60129D01*
X94611Y60170D01*
X94653Y60254D01*
Y60337D02*Y60254D01*
Y60337D02*X94611Y60420D01*
X94486Y60462D01*
X94320D02*X94486D01*
X95909Y60345D02*Y60304D01*
Y60345D02*X95951Y60428D01*
X95992Y60470D01*
X96076Y60512D01*
X96242D01*
X96325Y60470D01*
X96367Y60428D01*
X96408Y60345D01*
Y60262D01*
X96367Y60179D01*
X96284Y60054D01*
X95868Y59638D01*
X96450D01*
X97253Y60220D02*X97211Y60096D01*
X97128Y60013D01*
X97003Y59971D01*
X96962D02*X97003D01*
X96962D02*X96837Y60013D01*
X96754Y60096D01*
X96712Y60220D01*
Y60262D02*Y60220D01*
Y60262D02*X96754Y60387D01*
X96837Y60470D01*
X96962Y60512D01*
X97003D01*
X97128Y60470D01*
X97211Y60387D01*
X97253Y60220D01*
Y60013D01*
X97211Y59804D01*
X97128Y59680D01*
X97003Y59638D01*
X96920D02*X97003D01*
X96920D02*X96795Y59680D01*
X96754Y59763D01*
X99462Y62099D02*Y61642D01*
X99129Y61891D01*
Y61766D01*
X99087Y61683D01*
X99046Y61642D01*
X98921Y61600D01*
X98838D02*X98921D01*
X98838D02*X98713Y61642D01*
X98630Y61725D01*
X98588Y61850D01*
Y61974D02*Y61850D01*
Y61974D02*X98630Y62099D01*
X98671Y62141D01*
X98754Y62182D01*
X98653Y61296D02*X98612Y61338D01*
X98570Y61296D01*
X98612Y61255D01*
X98653Y61296D01*
X99462Y60910D02*Y60452D01*
X99129Y60702D01*
Y60577D01*
X99087Y60494D01*
X99046Y60452D01*
X98921Y60410D01*
X98838D02*X98921D01*
X98838D02*X98713Y60452D01*
X98630Y60535D01*
X98588Y60660D01*
Y60785D02*Y60660D01*
Y60785D02*X98630Y60910D01*
X98671Y60951D01*
X98754Y60993D01*
X99462Y60148D02*X98588Y59815D01*
X99462Y59482D02*X98588Y59815D01*
X101804Y61158D02*X101887Y61200D01*
X101970Y61283D01*
X102012Y61366D01*
Y61533D02*Y61366D01*
Y61533D02*X101970Y61616D01*
X101887Y61699D01*
X101804Y61741D01*
X101679Y61782D01*
X101471D02*X101679D01*
X101471D02*X101346Y61741D01*
X101263Y61699D01*
X101180Y61616D01*
X101138Y61533D01*
Y61366D01*
X101180Y61283D01*
X101263Y61200D01*
X101346Y61158D01*
X101471D01*
Y61366D02*Y61158D01*
X101138Y60896D02*X102012D01*
X101138Y60314D01*
X102012D01*
X101138Y60052D02*X102012D01*
Y59760D01*
X101970Y59635D01*
X101887Y59552D01*
X101804Y59511D01*
X101679Y59469D01*
X101471D02*X101679D01*
X101471D02*X101346Y59511D01*
X101263Y59552D01*
X101180Y59635D01*
X101138Y59760D01*
Y60052D02*Y59760D01*
X96009Y61712D02*Y60838D01*
X95718Y61712D02*X96300D01*
X96562D02*X97145Y60838D01*
Y61712D02*X96562Y60838D01*
X93268Y61762D02*Y60888D01*
Y61762D02*X93642D01*
X93767Y61720D01*
X93809Y61678D01*
X93850Y61595D01*
Y61512D01*
X93809Y61429D01*
X93767Y61387D01*
X93642Y61346D01*
X93268D02*X93642D01*
X93559D02*X93850Y60888D01*
X94112Y61762D02*X94695Y60888D01*
Y61762D02*X94112Y60888D01*
X104612Y61282D02*X103738Y60950D01*
X104612Y60616D02*X103738Y60950D01*
X103740Y60313D02*X104322D01*
X104614Y60354D02*X104572Y60313D01*
X104614Y60271D01*
X104655Y60313D01*
X104614Y60354D01*
X103738Y60009D02*X104320D01*
X104154D02*X104279Y59884D01*
X104320Y59801D01*
Y59676D01*
X104279Y59593D01*
X104154Y59551D01*
X103738D02*X104154D01*
X66360Y80239D02*X66402Y80156D01*
X66526Y80031D01*
X65653D02*X66526D01*
X66318Y79728D02*X66360D01*
X66443Y79686D01*
X66485Y79645D01*
X66526Y79561D01*
Y79395D01*
X66485Y79312D01*
X66443Y79270D01*
X66360Y79229D01*
X66277D02*X66360D01*
X66277D02*X66193Y79270D01*
X66069Y79353D01*
X65653Y79769D01*
Y79187D01*
X63871Y80139D02*X63912Y80056D01*
X64037Y79931D01*
X63163D02*X64037D01*
Y79586D02*Y79129D01*
X63704Y79378D01*
Y79253D01*
X63663Y79170D01*
X63621Y79129D01*
X63496Y79087D01*
X63413D02*X63496D01*
X63413D02*X63288Y79129D01*
X63205Y79212D01*
X63163Y79337D01*
Y79461D02*Y79337D01*
Y79461D02*X63205Y79586D01*
X63247Y79628D01*
X63330Y79669D01*
X61271Y80140D02*X61312Y80057D01*
X61437Y79932D01*
X60563D02*X61437D01*
Y79254D02*X60855Y79670D01*
Y79046D01*
X60563Y79254D02*X61437D01*
X58733Y80145D02*X58774Y80062D01*
X58899Y79937D01*
X58025D02*X58899D01*
Y79592D02*Y79176D01*
Y79592D02*X58525Y79633D01*
X58566Y79592D01*
X58608Y79467D01*
Y79342D01*
X58566Y79217D01*
X58483Y79134D01*
X58358Y79092D01*
X58275D02*X58358D01*
X58275D02*X58150Y79134D01*
X58067Y79217D01*
X58025Y79342D01*
Y79467D02*Y79342D01*
Y79467D02*X58067Y79592D01*
X58109Y79633D01*
X58192Y79675D01*
X56248Y80127D02*X56290Y80044D01*
X56414Y79919D01*
X55540D02*X56414D01*
X56290Y79158D02*X56373Y79199D01*
X56414Y79324D01*
Y79407D02*Y79324D01*
Y79407D02*X56373Y79532D01*
X56248Y79615D01*
X56040Y79657D01*
X55832D02*X56040D01*
X55832D02*X55665Y79615D01*
X55582Y79532D01*
X55540Y79407D01*
Y79366D01*
X55582Y79241D01*
X55665Y79158D01*
X55790Y79116D01*
X55832D01*
X55957Y79158D01*
X56040Y79241D01*
X56081Y79366D01*
Y79407D02*Y79366D01*
Y79407D02*X56040Y79532D01*
X55957Y79615D01*
X55832Y79657D01*
X53659Y80120D02*X53700Y80037D01*
X53825Y79912D01*
X52951D02*X53825D01*
Y79068D02*X52951Y79484D01*
X53825Y79650D02*Y79068D01*
X51114Y80077D02*X51156Y79994D01*
X51280Y79869D01*
X50407D02*X51280D01*
Y79399D02*X51239Y79524D01*
X51156Y79565D01*
X51072D02*X51156D01*
X51072D02*X50989Y79524D01*
X50947Y79441D01*
X50906Y79274D01*
X50864Y79149D01*
X50781Y79066D01*
X50698Y79025D01*
X50573D02*X50698D01*
X50573D02*X50490Y79066D01*
X50448Y79108D01*
X50407Y79233D01*
Y79399D02*Y79233D01*
Y79399D02*X50448Y79524D01*
X50490Y79565D01*
X50573Y79607D01*
X50698D01*
X50781Y79565D01*
X50864Y79482D01*
X50906Y79358D01*
X50947Y79191D01*
X50989Y79108D01*
X51072Y79066D01*
X51156D01*
X51239Y79108D01*
X51280Y79233D01*
Y79399D02*Y79233D01*
X48594Y80077D02*X48635Y79994D01*
X48760Y79869D01*
X47886D02*X48760D01*
X48469Y79066D02*X48344Y79108D01*
X48261Y79191D01*
X48219Y79316D01*
Y79358D02*Y79316D01*
Y79358D02*X48261Y79482D01*
X48344Y79566D01*
X48469Y79607D01*
X48511D01*
X48635Y79566D01*
X48719Y79482D01*
X48760Y79358D01*
Y79316D01*
X48719Y79191D01*
X48635Y79108D01*
X48469Y79066D01*
X48261D02*X48469D01*
X48261D02*X48053Y79108D01*
X47928Y79191D01*
X47886Y79316D01*
Y79399D02*Y79316D01*
Y79399D02*X47928Y79524D01*
X48011Y79566D01*
X46002Y80086D02*X46044D01*
X46127Y80044D01*
X46168Y80003D01*
X46210Y79919D01*
Y79753D01*
X46168Y79669D01*
X46127Y79628D01*
X46044Y79586D01*
X45960D02*X46044D01*
X45960D02*X45877Y79628D01*
X45752Y79711D01*
X45336Y80127D01*
Y79545D01*
X46210Y79033D02*X46168Y79158D01*
X46044Y79241D01*
X45836Y79283D01*
X45711D02*X45836D01*
X45711D02*X45503Y79241D01*
X45378Y79158D01*
X45336Y79033D01*
Y78950D01*
X45378Y78825D01*
X45503Y78742D01*
X45711Y78700D01*
X45836D01*
X46044Y78742D01*
X46168Y78825D01*
X46210Y78950D01*
Y79033D02*Y78950D01*
X43494Y80073D02*X43536D01*
X43619Y80032D01*
X43660Y79990D01*
X43702Y79907D01*
Y79741D01*
X43660Y79657D01*
X43619Y79616D01*
X43536Y79574D01*
X43452D02*X43536D01*
X43452D02*X43369Y79616D01*
X43244Y79699D01*
X42828Y80115D01*
Y79532D01*
X43536Y79270D02*X43577Y79187D01*
X43702Y79062D01*
X42828D02*X43702D01*
X40898Y80104D02*X40940D01*
X41023Y80063D01*
X41065Y80021D01*
X41106Y79938D01*
Y79772D01*
X41065Y79688D01*
X41023Y79647D01*
X40940Y79605D01*
X40856D02*X40940D01*
X40856D02*X40773Y79647D01*
X40648Y79730D01*
X40232Y80146D01*
Y79564D01*
X40898Y79260D02*X40940D01*
X41023Y79218D01*
X41065Y79177D01*
X41106Y79093D01*
Y78927D01*
X41065Y78844D01*
X41023Y78802D01*
X40940Y78761D01*
X40856D02*X40940D01*
X40856D02*X40773Y78802D01*
X40648Y78885D01*
X40232Y79301D01*
Y78719D01*
X35804Y79508D02*X35887Y79550D01*
X35970Y79633D01*
X36012Y79716D01*
Y79883D02*Y79716D01*
Y79883D02*X35970Y79966D01*
X35887Y80049D01*
X35804Y80091D01*
X35679Y80132D01*
X35471D02*X35679D01*
X35471D02*X35346Y80091D01*
X35263Y80049D01*
X35180Y79966D01*
X35138Y79883D01*
Y79716D01*
X35180Y79633D01*
X35263Y79550D01*
X35346Y79508D01*
X35471D01*
Y79716D02*Y79508D01*
X35138Y79246D02*X36012D01*
X35138Y78664D01*
X36012D01*
X35138Y78402D02*X36012D01*
Y78110D01*
X35970Y77985D01*
X35887Y77902D01*
X35804Y77861D01*
X35679Y77819D01*
X35471D02*X35679D01*
X35471D02*X35346Y77861D01*
X35263Y77902D01*
X35180Y77985D01*
X35138Y78110D01*
Y78402D02*Y78110D01*
X38396Y80104D02*X38437D01*
X38520Y80063D01*
X38562Y80021D01*
X38604Y79938D01*
Y79772D01*
X38562Y79688D01*
X38520Y79647D01*
X38437Y79605D01*
X38354D02*X38437D01*
X38354D02*X38271Y79647D01*
X38146Y79730D01*
X37730Y80146D01*
Y79564D01*
X38604Y79218D02*Y78761D01*
X38271Y79010D01*
Y78885D01*
X38229Y78802D01*
X38188Y78761D01*
X38063Y78719D01*
X37980D02*X38063D01*
X37980D02*X37855Y78761D01*
X37772Y78844D01*
X37730Y78969D01*
Y79093D02*Y78969D01*
Y79093D02*X37772Y79218D01*
X37813Y79260D01*
X37896Y79301D01*
X35754Y61308D02*X35837Y61350D01*
X35920Y61433D01*
X35962Y61516D01*
Y61683D02*Y61516D01*
Y61683D02*X35920Y61766D01*
X35837Y61849D01*
X35754Y61891D01*
X35629Y61932D01*
X35421D02*X35629D01*
X35421D02*X35296Y61891D01*
X35213Y61849D01*
X35130Y61766D01*
X35088Y61683D01*
Y61516D01*
X35130Y61433D01*
X35213Y61350D01*
X35296Y61308D01*
X35421D01*
Y61516D02*Y61308D01*
X35088Y61046D02*X35962D01*
X35088Y60464D01*
X35962D01*
X35088Y60202D02*X35962D01*
Y59910D01*
X35920Y59785D01*
X35837Y59702D01*
X35754Y59661D01*
X35629Y59619D01*
X35421D02*X35629D01*
X35421D02*X35296Y59661D01*
X35213Y59702D01*
X35130Y59785D01*
X35088Y59910D01*
Y60202D02*Y59910D01*
X37150Y61587D02*X37067Y61670D01*
X36942Y61712D01*
X36776D02*X36942D01*
X36776D02*X36651Y61670D01*
X36568Y61587D01*
Y61504D01*
X36609Y61420D01*
X36651Y61379D01*
X36734Y61337D01*
X36984Y61254D01*
X37067Y61212D01*
X37108Y61171D01*
X37150Y61088D01*
Y60963D01*
X37067Y60880D01*
X36942Y60838D01*
X36776D02*X36942D01*
X36776D02*X36651Y60880D01*
X36568Y60963D01*
X38036Y61504D02*X37995Y61587D01*
X37911Y61670D01*
X37828Y61712D01*
X37662D02*X37828D01*
X37662D02*X37579Y61670D01*
X37495Y61587D01*
X37454Y61504D01*
X37412Y61379D01*
Y61171D01*
X37454Y61046D01*
X37495Y60963D01*
X37579Y60880D01*
X37662Y60838D01*
X37828D01*
X37911Y60880D01*
X37995Y60963D01*
X38036Y61046D01*
X38298Y61712D02*Y60838D01*
X38881Y61712D02*X38298Y61129D01*
X38506Y61337D02*X38881Y60838D01*
X37259Y60295D02*Y60254D01*
Y60295D02*X37301Y60378D01*
X37342Y60420D01*
X37426Y60462D01*
X37592D01*
X37675Y60420D01*
X37717Y60378D01*
X37758Y60295D01*
Y60212D01*
X37717Y60129D01*
X37634Y60004D01*
X37218Y59588D01*
X37800D01*
X38478Y60462D02*X38062Y59879D01*
X38686D01*
X38478Y60462D02*Y59588D01*
X40100Y61687D02*X40017Y61770D01*
X39892Y61812D01*
X39726D02*X39892D01*
X39726D02*X39601Y61770D01*
X39518Y61687D01*
Y61604D01*
X39559Y61520D01*
X39601Y61479D01*
X39684Y61437D01*
X39934Y61354D01*
X40017Y61312D01*
X40058Y61271D01*
X40100Y61188D01*
Y61063D01*
X40017Y60980D01*
X39892Y60938D01*
X39726D02*X39892D01*
X39726D02*X39601Y60980D01*
X39518Y61063D01*
X40362Y61812D02*Y60938D01*
Y61812D02*X40654D01*
X40778Y61770D01*
X40862Y61687D01*
X40903Y61604D01*
X40945Y61479D01*
Y61271D01*
X40903Y61146D01*
X40862Y61063D01*
X40778Y60980D01*
X40654Y60938D01*
X40362D02*X40654D01*
X41207Y61812D02*X41425D01*
X41316D02*Y60938D01*
X41207D02*X41425D01*
X42450Y61587D02*X42367Y61670D01*
X42242Y61712D01*
X42076D02*X42242D01*
X42076D02*X41951Y61670D01*
X41868Y61587D01*
Y61504D01*
X41909Y61420D01*
X41951Y61379D01*
X42034Y61337D01*
X42284Y61254D01*
X42367Y61212D01*
X42408Y61171D01*
X42450Y61088D01*
Y60963D01*
X42367Y60880D01*
X42242Y60838D01*
X42076D02*X42242D01*
X42076D02*X41951Y60880D01*
X41868Y60963D01*
X42712Y61712D02*Y60838D01*
Y61712D02*X43004D01*
X43128Y61670D01*
X43212Y61587D01*
X43253Y61504D01*
X43295Y61379D01*
Y61171D01*
X43253Y61046D01*
X43212Y60963D01*
X43128Y60880D01*
X43004Y60838D01*
X42712D02*X43004D01*
X43806Y61712D02*X43723Y61670D01*
X43640Y61587D01*
X43598Y61504D01*
X43557Y61379D01*
Y61171D01*
X43598Y61046D01*
Y61046D02*X43640Y60963D01*
X43723Y60880D01*
X43806Y60838D01*
X43973D01*
X44056Y60880D01*
X44139Y60963D01*
X44181Y61046D01*
X44222Y61171D01*
Y61379D02*Y61171D01*
Y61379D02*X44181Y61504D01*
X44139Y61587D01*
X44056Y61670D01*
X43973Y61712D01*
X43806D02*X43973D01*
X39909Y60195D02*Y60154D01*
Y60195D02*X39951Y60278D01*
X39992Y60320D01*
X40076Y60362D01*
X40242D01*
X40325Y60320D01*
X40367Y60278D01*
X40408Y60195D01*
Y60112D01*
X40367Y60029D01*
X40284Y59904D01*
X39868Y59488D01*
X40450D01*
X40795Y60362D02*X41212D01*
X40795D02*X40754Y59987D01*
X40795Y60029D01*
X40920Y60070D01*
X41045D01*
X41170Y60029D01*
X41253Y59946D01*
X41295Y59821D01*
Y59738D01*
X41253Y59613D01*
X41170Y59530D01*
X41045Y59488D01*
X40920D02*X41045D01*
X40920D02*X40795Y59530D01*
X40754Y59571D01*
X40712Y59654D01*
X42509Y60145D02*Y60104D01*
Y60145D02*X42551Y60228D01*
X42592Y60270D01*
X42676Y60312D01*
X42842D01*
X42925Y60270D01*
X42967Y60228D01*
X43008Y60145D01*
Y60062D01*
X42967Y59979D01*
X42884Y59854D01*
X42468Y59438D01*
X43050D01*
X43811Y60187D02*X43770Y60270D01*
X43645Y60312D01*
X43562D02*X43645D01*
X43562D02*X43437Y60270D01*
X43354Y60145D01*
X43312Y59937D01*
Y59729D01*
X43354Y59563D01*
X43437Y59480D01*
X43562Y59438D01*
X43603D01*
X43728Y59480D01*
X43811Y59563D01*
X43853Y59688D01*
Y59729D02*Y59688D01*
Y59729D02*X43811Y59854D01*
X43728Y59937D01*
X43603Y59979D01*
X43562D02*X43603D01*
X43562D02*X43437Y59937D01*
X43354Y59854D01*
X43312Y59729D01*
X45109Y60245D02*Y60204D01*
Y60245D02*X45151Y60328D01*
X45192Y60370D01*
X45276Y60412D01*
X45442D01*
X45525Y60370D01*
X45567Y60328D01*
X45608Y60245D01*
Y60162D01*
X45567Y60079D01*
X45484Y59954D01*
X45068Y59538D01*
X45650D01*
X46495Y60412D02*X46078Y59538D01*
X45912Y60412D02*X46495D01*
X45600Y61587D02*X45517Y61670D01*
X45392Y61712D01*
X45226D02*X45392D01*
X45226D02*X45101Y61670D01*
X45018Y61587D01*
Y61504D01*
X45059Y61420D01*
X45101Y61379D01*
X45184Y61337D01*
X45434Y61254D01*
X45517Y61212D01*
X45558Y61171D01*
X45600Y61088D01*
Y60963D01*
X45517Y60880D01*
X45392Y60838D01*
X45226D02*X45392D01*
X45226D02*X45101Y60880D01*
X45018Y60963D01*
X46445Y61587D02*X46361Y61670D01*
X46237Y61712D01*
X46070D02*X46237D01*
X46070D02*X45945Y61670D01*
X45862Y61587D01*
Y61504D01*
X45904Y61420D01*
X45945Y61379D01*
X46029Y61337D01*
X46278Y61254D01*
X46361Y61212D01*
X46403Y61171D01*
X46445Y61088D01*
Y60963D01*
X46361Y60880D01*
X46237Y60838D01*
X46070D02*X46237D01*
X46070D02*X45945Y60880D01*
X45862Y60963D01*
X48612Y61199D02*X47738Y61532D01*
X48612Y61199D02*X47738Y60866D01*
X48029Y61407D02*Y60991D01*
X48445Y60604D02*X48487Y60521D01*
X48612Y60396D01*
X47738D02*X48612D01*
Y59718D02*X48029Y60134D01*
Y59510D01*
X47738Y59718D02*X48612D01*
X51212Y61149D02*X50338Y61482D01*
X51212Y61149D02*X50338Y60816D01*
X50629Y61357D02*Y60941D01*
X51045Y60554D02*X51087Y60471D01*
X51212Y60346D01*
X50338D02*X51212D01*
Y60001D02*Y59544D01*
X50879Y59793D01*
Y59668D01*
X50837Y59585D01*
X50796Y59544D01*
X50671Y59502D01*
X50588D02*X50671D01*
X50588D02*X50463Y59544D01*
X50380Y59627D01*
X50338Y59752D01*
Y59876D02*Y59752D01*
Y59876D02*X50380Y60001D01*
X50421Y60043D01*
X50504Y60084D01*
G54D43*G36*
X81343Y75165D02*X81364Y75144D01*
Y74570D01*
X81343Y74548D01*
X81340Y74548D01*
X80809Y74449D01*
X80806Y74449D01*
X80779Y74424D01*
X80778Y74421D01*
X80612Y74008D01*
X80611Y74005D01*
X80614Y73968D01*
X80616Y73965D01*
X80917Y73527D01*
X80919Y73524D01*
X80916Y73491D01*
X80518Y73093D01*
X80515Y73091D01*
X80483Y73088D01*
X80480Y73090D01*
X80049Y73386D01*
X80046Y73388D01*
X80010Y73389D01*
X80007Y73387D01*
X79817Y73286D01*
X79814Y73284D01*
X79787Y73294D01*
X79786Y73297D01*
X79394Y74245D01*
X79393Y74248D01*
X79403Y74278D01*
X79406Y74280D01*
X79453Y74309D01*
X79455Y74311D01*
X79481Y74330D01*
X79483Y74332D01*
X79515Y74352D01*
X79600Y74429D01*
X79690Y74552D01*
X79748Y74695D01*
X79769Y74814D01*
Y74885D01*
X79756Y74978D01*
X79720Y75095D01*
X79663Y75200D01*
X79587Y75291D01*
X79496Y75367D01*
X79391Y75424D01*
X79274Y75460D01*
X79181Y75472D01*
X79119D01*
X79025Y75460D01*
X78909Y75424D01*
X78804Y75367D01*
X78712Y75291D01*
X78637Y75200D01*
X78580Y75095D01*
X78544Y74978D01*
X78531Y74885D01*
Y74814D01*
X78552Y74695D01*
X78609Y74552D01*
X78700Y74429D01*
X78785Y74353D01*
X78817Y74332D01*
X78819Y74330D01*
X78844Y74311D01*
X78847Y74309D01*
X78894Y74280D01*
X78897Y74278D01*
X78907Y74248D01*
X78906Y74245D01*
X78514Y73297D01*
X78512Y73294D01*
X78485Y73284D01*
X78482Y73286D01*
X78292Y73387D01*
X78289Y73389D01*
X78254Y73388D01*
X78251Y73386D01*
X77820Y73090D01*
X77817Y73088D01*
X77784Y73091D01*
X77384Y73491D01*
X77381Y73524D01*
X77383Y73527D01*
X77684Y73966D01*
X77686Y73968D01*
X77689Y74005D01*
X77687Y74008D01*
X77522Y74421D01*
X77521Y74425D01*
X77494Y74449D01*
X77490Y74449D01*
X76960Y74548D01*
X76957Y74548D01*
X76936Y74570D01*
Y75144D01*
X76957Y75165D01*
X76960Y75166D01*
X77504Y75267D01*
X77507Y75267D01*
X77534Y75291D01*
X77536Y75294D01*
X77702Y75683D01*
X77704Y75686D01*
X77702Y75722D01*
X77700Y75725D01*
X77383Y76187D01*
X77381Y76190D01*
X77384Y76222D01*
X77386Y76224D01*
X77782Y76620D01*
X77784Y76622D01*
X77817Y76626D01*
X77820Y76624D01*
X78290Y76301D01*
X78292Y76299D01*
X78329Y76297D01*
X78332Y76298D01*
X78709Y76452D01*
X78712Y76454D01*
X78736Y76481D01*
X78736Y76484D01*
X78841Y77047D01*
X78842Y77050D01*
X78863Y77071D01*
X79437D01*
X79458Y77050D01*
X79459Y77047D01*
X79563Y76484D01*
X79564Y76481D01*
X79588Y76454D01*
X79591Y76452D01*
X79968Y76298D01*
X79971Y76297D01*
X80007Y76299D01*
X80010Y76301D01*
X80480Y76624D01*
X80483Y76626D01*
X80515Y76622D01*
X80913Y76224D01*
X80916Y76222D01*
X80919Y76190D01*
X80917Y76187D01*
X80600Y75725D01*
X80598Y75722D01*
X80596Y75686D01*
X80597Y75683D01*
X80764Y75294D01*
X80765Y75291D01*
X80793Y75267D01*
X80796Y75267D01*
X81340Y75166D01*
X81343Y75165D01*
G37*
G36*
X80210Y71144D02*X80208D01*
X80181Y71214D01*
X80204Y71245D01*
X80210Y71286D01*
Y71344D01*
X80048D01*
X79990Y71324D01*
X79964Y71285D01*
Y71259D01*
X79990Y71220D01*
X80055Y71197D01*
X80093D01*
X80140Y71200D01*
X80181Y71214D01*
X80208Y71144D01*
X80202Y71134D01*
X80156Y71099D01*
X80085Y71085D01*
X80039D01*
X79973Y71099D01*
X79907Y71137D01*
X79866Y71195D01*
X79852Y71248D01*
Y71283D01*
X79864Y71334D01*
X79901Y71390D01*
X79961Y71428D01*
X80024Y71442D01*
X80210D01*
Y71519D01*
X80182Y71563D01*
X80112Y71580D01*
X80071D01*
X80017Y71570D01*
X79981Y71543D01*
X79976Y71534D01*
X79882Y71606D01*
X79894Y71622D01*
X79966Y71673D01*
X80054Y71693D01*
X80108D01*
X80183Y71683D01*
X80261Y71650D01*
X80312Y71589D01*
X80330Y71520D01*
Y71092D01*
X80210D01*
Y71144D01*
G37*
G36*
X80461Y71686D02*X80581D01*
Y71622D01*
X80583D01*
X80592Y71634D01*
X80651Y71675D01*
X80716Y71693D01*
X80766D01*
X80853Y71654D01*
X80862Y71647D01*
X80775Y71544D01*
X80768Y71549D01*
X80716Y71573D01*
X80677D01*
X80617Y71544D01*
X80581Y71473D01*
Y71092D01*
X80461D01*
Y71686D01*
G37*
G36*
X80983Y71344D02*Y71442D01*
X81234D01*
X81233Y71464D01*
X81196Y71545D01*
X81131Y71580D01*
X81087D01*
X81021Y71545D01*
X80984Y71464D01*
X80983Y71442D01*
Y71316D01*
X81024Y71234D01*
X81100Y71197D01*
X81142D01*
X81194Y71212D01*
X81246Y71246D01*
X81255Y71254D01*
X81342Y71181D01*
X81327Y71164D01*
X81242Y71107D01*
X81156Y71085D01*
X81104D01*
X81035Y71098D01*
X80950Y71145D01*
X80888Y71237D01*
X80864Y71350D01*
Y71423D01*
X80886Y71532D01*
X80943Y71626D01*
X81022Y71677D01*
X81087Y71693D01*
X81132D01*
X81202Y71675D01*
X81280Y71625D01*
X81334Y71546D01*
X81354Y71468D01*
Y71344D01*
X80983D01*
G37*
G36*
X81628Y72282D02*Y72380D01*
X81879D01*
X81878Y72402D01*
X81841Y72483D01*
X81775Y72518D01*
X81731D01*
X81665Y72483D01*
X81628Y72402D01*
X81628Y72380D01*
Y72254D01*
X81668Y72172D01*
X81744Y72135D01*
X81787D01*
X81838Y72150D01*
X81891Y72184D01*
X81900Y72192D01*
X81986Y72119D01*
X81972Y72102D01*
X81887Y72045D01*
X81801Y72023D01*
X81749D01*
X81679Y72036D01*
X81594Y72082D01*
X81532Y72175D01*
X81508Y72288D01*
Y72361D01*
X81530Y72470D01*
X81588Y72564D01*
X81666Y72615D01*
X81732Y72631D01*
X81777D01*
X81847Y72613D01*
X81925Y72563D01*
X81978Y72484D01*
X81998Y72406D01*
Y72282D01*
X81628D01*
G37*
G36*
X81478Y72126D02*X81465Y72111D01*
X81386Y72052D01*
X81295Y72023D01*
X81240D01*
X81165Y72040D01*
X81079Y72093D01*
X81018Y72187D01*
X80996Y72292D01*
Y72361D01*
X81018Y72466D01*
X81079Y72560D01*
X81165Y72614D01*
X81240Y72631D01*
X81295D01*
X81386Y72602D01*
X81465Y72542D01*
X81478Y72528D01*
X81390Y72449D01*
X81383Y72458D01*
X81337Y72494D01*
X81287Y72511D01*
X81253D01*
X81204Y72501D01*
X81156Y72468D01*
X81125Y72410D01*
X81115Y72347D01*
Y72305D01*
X81126Y72243D01*
X81156Y72186D01*
X81204Y72153D01*
X81253Y72142D01*
X81287D01*
X81337Y72160D01*
X81383Y72195D01*
X81390Y72204D01*
X81478Y72126D01*
G37*
G36*
X79412Y72363D02*X79427Y72470D01*
X79465Y72542D01*
X79477Y72554D01*
X79485Y72564D01*
X79544Y72606D01*
X79629Y72631D01*
X79685D01*
X79770Y72606D01*
X79829Y72564D01*
X79837Y72554D01*
X79849Y72542D01*
X79887Y72470D01*
X79902Y72363D01*
Y72291D01*
X79887Y72184D01*
X79849Y72112D01*
X79837Y72099D01*
X79829Y72090D01*
X79770Y72047D01*
X79685Y72023D01*
X79629D01*
X79544Y72047D01*
X79485Y72090D01*
X79477Y72099D01*
X79465Y72112D01*
X79427Y72184D01*
X79412Y72291D01*
Y72327D01*
X79532D01*
Y72304D01*
X79538Y72236D01*
X79555Y72194D01*
X79561Y72186D01*
X79565Y72180D01*
X79600Y72155D01*
X79643Y72142D01*
X79671D01*
X79714Y72155D01*
X79749Y72180D01*
X79753Y72186D01*
X79759Y72194D01*
X79776Y72236D01*
X79782Y72304D01*
Y72349D01*
X79776Y72418D01*
X79759Y72460D01*
X79753Y72468D01*
X79749Y72474D01*
X79714Y72499D01*
X79671Y72511D01*
X79643D01*
X79600Y72499D01*
X79565Y72474D01*
X79561Y72468D01*
X79555Y72460D01*
X79538Y72418D01*
X79532Y72350D01*
Y72327D01*
X79412D01*
Y72363D01*
G37*
G36*
X78920Y72211D02*X78933Y72199D01*
X79003Y72154D01*
X79082Y72135D01*
X79128D01*
X79192Y72154D01*
X79225Y72197D01*
Y72222D01*
X79204Y72255D01*
X79162Y72269D01*
X79152Y72270D01*
X79047Y72279D01*
X79029Y72281D01*
X78978Y72295D01*
X78924Y72328D01*
X78888Y72380D01*
X78876Y72431D01*
Y72468D01*
X78893Y72527D01*
X78939Y72584D01*
X79010Y72619D01*
X79075Y72630D01*
X79130D01*
X79231Y72609D01*
X79316Y72562D01*
X79330Y72550D01*
X79256Y72463D01*
X79245Y72471D01*
X79183Y72503D01*
X79119Y72518D01*
X79077D01*
X79018Y72498D01*
X78995Y72460D01*
Y72438D01*
X79012Y72411D01*
X79059Y72392D01*
X79074Y72390D01*
X79172Y72384D01*
X79192Y72382D01*
X79251Y72366D01*
X79304Y72327D01*
X79335Y72272D01*
X79344Y72222D01*
Y72186D01*
X79325Y72128D01*
X79273Y72071D01*
X79195Y72035D01*
X79122Y72023D01*
X79064D01*
X78960Y72049D01*
X78856Y72112D01*
X78837Y72129D01*
X78920Y72211D01*
G37*
G36*
X78040Y72624D02*X78159D01*
Y72560D01*
X78162D01*
X78171Y72572D01*
X78229Y72613D01*
X78294Y72631D01*
X78334D01*
X78386Y72617D01*
X78450Y72578D01*
X78496Y72514D01*
X78514Y72447D01*
Y72030D01*
X78395D01*
Y72407D01*
X78361Y72478D01*
X78298Y72511D01*
X78256D01*
X78193Y72478D01*
X78159Y72407D01*
Y72030D01*
X78040D01*
Y72624D01*
G37*
G36*
X77568Y72282D02*Y72380D01*
X77818D01*
X77817Y72402D01*
X77781Y72483D01*
X77715Y72518D01*
X77671D01*
X77605Y72483D01*
X77568Y72402D01*
X77568Y72380D01*
Y72254D01*
X77608Y72172D01*
X77684Y72135D01*
X77727D01*
X77778Y72150D01*
X77831Y72184D01*
X77839Y72192D01*
X77926Y72119D01*
X77911Y72102D01*
X77827Y72045D01*
X77740Y72023D01*
X77688D01*
X77619Y72036D01*
X77534Y72082D01*
X77472Y72175D01*
X77448Y72288D01*
Y72361D01*
X77470Y72470D01*
X77527Y72564D01*
X77606Y72615D01*
X77671Y72631D01*
X77716D01*
X77786Y72613D01*
X77864Y72563D01*
X77918Y72484D01*
X77938Y72406D01*
Y72282D01*
X77568D01*
G37*
G36*
X77012Y71092D02*X76893D01*
Y72624D01*
X77013D01*
Y72561D01*
X77022Y72572D01*
X77081Y72612D01*
X77145Y72631D01*
X77190D01*
X77260Y72609D01*
X77317Y72564D01*
X77326Y72553D01*
X77331Y72546D01*
X77346Y72521D01*
X77359Y72479D01*
X77366Y72417D01*
X77368Y72349D01*
Y72303D01*
X77366Y72235D01*
X77359Y72174D01*
X77346Y72133D01*
X77331Y72108D01*
X77326Y72100D01*
X77317Y72089D01*
X77260Y72045D01*
X77190Y72023D01*
X77145D01*
X77083Y72042D01*
X77024Y72082D01*
X77013Y72093D01*
X77065Y72159D01*
X77114Y72142D01*
X77146D01*
X77196Y72158D01*
X77231Y72200D01*
X77245Y72259D01*
X77248Y72309D01*
Y72343D01*
X77245Y72394D01*
X77231Y72453D01*
X77196Y72495D01*
X77146Y72511D01*
X77114D01*
X77065Y72494D01*
X77029Y72451D01*
X77015Y72392D01*
X77013Y72343D01*
Y72310D01*
X77015Y72261D01*
X77029Y72202D01*
X77065Y72159D01*
X77013Y72093D01*
X77012Y71622D01*
X77022Y71634D01*
X77082Y71675D01*
X77147Y71693D01*
X77186D01*
X77239Y71680D01*
X77303Y71640D01*
X77349Y71576D01*
X77367Y71509D01*
Y71092D01*
X77248D01*
Y71469D01*
X77214Y71540D01*
X77151Y71573D01*
X77109D01*
X77046Y71540D01*
X77012Y71469D01*
Y71092D01*
G37*
G36*
X76302Y72363D02*X76317Y72470D01*
X76355Y72542D01*
X76366Y72554D01*
X76374Y72564D01*
X76434Y72606D01*
X76518Y72631D01*
X76574D01*
X76659Y72606D01*
X76718Y72564D01*
X76727Y72554D01*
X76738Y72542D01*
X76776Y72470D01*
X76791Y72363D01*
Y72291D01*
X76776Y72184D01*
X76738Y72112D01*
X76727Y72099D01*
X76718Y72090D01*
X76659Y72047D01*
X76574Y72023D01*
X76546D01*
Y72142D01*
X76561D01*
X76603Y72155D01*
X76638Y72180D01*
X76643Y72186D01*
X76648Y72194D01*
X76666Y72236D01*
X76672Y72304D01*
Y72349D01*
X76666Y72418D01*
X76648Y72460D01*
X76643Y72468D01*
X76638Y72474D01*
X76603Y72499D01*
X76561Y72511D01*
X76532D01*
X76490Y72499D01*
X76455Y72474D01*
X76450Y72468D01*
X76445Y72460D01*
X76427Y72418D01*
X76421Y72350D01*
Y72304D01*
X76427Y72236D01*
X76445Y72194D01*
X76450Y72186D01*
X76455Y72180D01*
X76490Y72155D01*
X76532Y72142D01*
X76546D01*
Y72023D01*
X76518D01*
X76434Y72047D01*
X76374Y72090D01*
X76366Y72099D01*
X76355Y72112D01*
X76317Y72184D01*
X76302Y72291D01*
Y72363D01*
G37*
G36*
X78818Y71154D02*X78809Y71144D01*
X78750Y71104D01*
X78686Y71085D01*
X78641D01*
X78571Y71107D01*
X78514Y71151D01*
X78506Y71162D01*
X78500Y71170D01*
X78485Y71195D01*
X78472Y71237D01*
X78465Y71298D01*
X78464Y71366D01*
Y71412D01*
X78465Y71480D01*
X78472Y71541D01*
X78485Y71583D01*
X78500Y71608D01*
X78506Y71615D01*
X78514Y71626D01*
X78571Y71671D01*
X78641Y71693D01*
X78686D01*
X78748Y71673D01*
X78807Y71633D01*
X78818Y71622D01*
X78766Y71556D01*
X78717Y71573D01*
X78685D01*
X78635Y71557D01*
X78600Y71516D01*
X78585Y71457D01*
X78583Y71406D01*
Y71372D01*
X78585Y71321D01*
X78600Y71262D01*
X78635Y71220D01*
X78685Y71204D01*
X78717D01*
X78766Y71221D01*
X78801Y71264D01*
X78816Y71324D01*
X78818Y71373D01*
Y71406D01*
X78816Y71454D01*
X78801Y71513D01*
X78766Y71556D01*
X78818Y71622D01*
Y71926D01*
X78938D01*
Y71092D01*
X78818D01*
Y71154D01*
G37*
G36*
X77810Y71144D02*X77807D01*
X77780Y71214D01*
X77803Y71245D01*
X77810Y71286D01*
Y71344D01*
X77647D01*
X77589Y71324D01*
X77564Y71285D01*
Y71259D01*
X77590Y71220D01*
X77655Y71197D01*
X77692D01*
X77739Y71200D01*
X77780Y71214D01*
X77807Y71144D01*
X77801Y71134D01*
X77755Y71099D01*
X77684Y71085D01*
X77639D01*
X77572Y71099D01*
X77506Y71137D01*
X77465Y71195D01*
X77451Y71248D01*
Y71283D01*
X77464Y71334D01*
X77500Y71390D01*
X77560Y71428D01*
X77624Y71442D01*
X77810D01*
Y71519D01*
X77781Y71563D01*
X77711Y71580D01*
X77670D01*
X77616Y71570D01*
X77581Y71543D01*
X77576Y71534D01*
X77482Y71606D01*
X77493Y71622D01*
X77566Y71673D01*
X77653Y71693D01*
X77707D01*
X77782Y71683D01*
X77860Y71650D01*
X77911Y71589D01*
X77929Y71520D01*
Y71092D01*
X77810D01*
Y71144D01*
G37*
G36*
X79424Y71508D02*X79421D01*
X79297Y71092D01*
X79191D01*
X79002Y71686D01*
X79128D01*
X79242Y71270D01*
X79244D01*
X79379Y71686D01*
X79466D01*
X79600Y71270D01*
X79603D01*
X79716Y71686D01*
X79843D01*
X79653Y71092D01*
X79548D01*
X79424Y71508D01*
G37*
G36*
X80004Y72624D02*X80123D01*
Y72246D01*
X80157Y72176D01*
X80220Y72142D01*
X80262D01*
X80325Y72176D01*
X80359Y72246D01*
Y72624D01*
X80478D01*
Y72030D01*
X80359D01*
Y72093D01*
X80356D01*
X80347Y72081D01*
X80289Y72040D01*
X80224Y72023D01*
X80185D01*
X80132Y72036D01*
X80068Y72075D01*
X80022Y72140D01*
X80004Y72207D01*
Y72624D01*
G37*
G36*
X80609D02*X80729D01*
Y72560D01*
X80731D01*
X80740Y72572D01*
X80799Y72613D01*
X80864Y72631D01*
X80914D01*
X81001Y72592D01*
X81010Y72585D01*
X80923Y72482D01*
X80916Y72487D01*
X80864Y72511D01*
X80825D01*
X80765Y72482D01*
X80729Y72411D01*
Y72030D01*
X80609D01*
Y72624D01*
G37*
G36*
X78060Y71686D02*X78180D01*
Y71622D01*
X78182D01*
X78192Y71634D01*
X78250Y71675D01*
X78315Y71693D01*
X78366D01*
X78452Y71654D01*
X78461Y71647D01*
X78374Y71544D01*
X78367Y71549D01*
X78316Y71573D01*
X78276D01*
X78216Y71544D01*
X78180Y71473D01*
Y71092D01*
X78060D01*
Y71686D01*
G37*
G36*
X83661Y74053D02*X83731Y73746D01*
X83627Y73702D01*
X83481Y73658D01*
X83298Y73624D01*
X83084Y73611D01*
X82841Y73633D01*
X82623Y73695D01*
X82431Y73795D01*
X82269Y73930D01*
X82139Y74097D01*
X82043Y74294D01*
X81984Y74517D01*
X81964Y74764D01*
X81985Y75015D01*
X82049Y75244D01*
X82152Y75447D01*
X82292Y75622D01*
X82467Y75764D01*
X82674Y75871D01*
X82910Y75937D01*
X83173Y75960D01*
X83505Y75923D01*
X83740Y75844D01*
X83647Y75527D01*
X83563Y75568D01*
X83457Y75602D01*
X83327Y75625D01*
X83173Y75634D01*
X82830Y75567D01*
X82581Y75385D01*
X82429Y75114D01*
X82377Y74783D01*
X82436Y74432D01*
X82600Y74167D01*
X82848Y74000D01*
X83159Y73941D01*
X83453Y73978D01*
X83661Y74053D01*
G37*
G36*
X84163Y73662D02*Y76964D01*
X84573D01*
Y75560D01*
X84582D01*
X84706Y75722D01*
X84875Y75848D01*
X85072Y75932D01*
X85293Y75964D01*
X85414Y75955D01*
X85544Y75923D01*
X85675Y75865D01*
X85800Y75774D01*
X85910Y75648D01*
X85999Y75480D01*
X86058Y75266D01*
X86079Y75002D01*
Y73662D01*
X85670D01*
Y74955D01*
X85643Y75213D01*
X85554Y75426D01*
X85393Y75571D01*
X85149Y75625D01*
X84962Y75592D01*
X84803Y75504D01*
X84680Y75374D01*
X84600Y75216D01*
X84578Y75127D01*
X84573Y75020D01*
Y73662D01*
X84163D01*
G37*
G36*
X87107D02*X86698D01*
Y75913D01*
X87107D01*
Y73662D01*
G37*
G36*
X87136Y76647D02*X87154Y76546D01*
X87138Y76448D01*
X87086Y76368D01*
X87003Y76314D01*
X86893Y76295D01*
X86794Y76314D01*
X86716Y76368D01*
X86665Y76448D01*
X86647Y76546D01*
X86666Y76647D01*
X86719Y76728D01*
X86800Y76782D01*
X86903Y76802D01*
X87006Y76782D01*
X87086Y76728D01*
X87136Y76647D01*
G37*
G36*
X87740Y72742D02*Y75178D01*
X87734Y75574D01*
X87721Y75913D01*
X88089D01*
X88107Y75527D01*
X88116D01*
X88263Y75341D01*
X88172Y75132D01*
X88153Y75050D01*
X88144Y74965D01*
Y74579D01*
X88163Y74411D01*
X88249Y74217D01*
X88388Y74065D01*
X88568Y73967D01*
X88777Y73932D01*
X89066Y73995D01*
X89281Y74174D01*
X89415Y74448D01*
X89460Y74802D01*
X89417Y75123D01*
X89288Y75389D01*
X89078Y75572D01*
X88791Y75639D01*
X88588Y75603D01*
X88406Y75500D01*
X88263Y75341D01*
X88116Y75527D01*
X88260Y75711D01*
X88441Y75849D01*
X88660Y75935D01*
X88916Y75964D01*
X89114Y75943D01*
X89295Y75882D01*
X89457Y75783D01*
X89597Y75649D01*
X89712Y75483D01*
X89797Y75288D01*
X89851Y75066D01*
X89870Y74820D01*
X89848Y74536D01*
X89784Y74290D01*
X89686Y74082D01*
X89557Y73912D01*
X89403Y73780D01*
X89230Y73686D01*
X89043Y73630D01*
X88847Y73611D01*
X88632Y73635D01*
X88439Y73704D01*
X88277Y73815D01*
X88154Y73965D01*
X88144D01*
Y72742D01*
X87740D01*
G37*
G36*
X92055Y76762D02*X93002D01*
X92185Y75356D01*
X92998Y73662D01*
X91962D01*
X91260Y75375D01*
X92055Y76762D01*
G37*
G36*
X90311D02*X91233D01*
Y73662D01*
X90311D01*
Y76762D01*
G37*
G36*
X93311D02*X94233D01*
Y73662D01*
X93311D01*
Y76762D01*
G37*
G36*
X96906Y75872D02*X96202D01*
Y73662D01*
X95280D01*
Y75872D01*
X94574D01*
Y76762D01*
X96906D01*
Y75872D01*
G37*
G36*
X97396Y76752D02*Y76684D01*
X97264D01*
Y76340D01*
X97182D01*
Y76684D01*
X97053D01*
Y76752D01*
X97396D01*
G37*
G36*
X97840Y76340D02*X97825Y76582D01*
X97822Y76698D01*
X97817D01*
X97783Y76575D01*
X97709Y76347D01*
X97624D01*
X97550Y76581D01*
X97536Y76637D01*
X97521Y76698D01*
X97517D01*
X97513Y76582D01*
X97498Y76340D01*
X97420D01*
X97450Y76752D01*
X97572D01*
X97644Y76551D01*
X97671Y76447D01*
X97672D01*
X97701Y76548D01*
X97772Y76752D01*
X97890D01*
X97922Y76340D01*
X97840D01*
G37*
G54D41*X69850Y63650D02*X70850D01*
Y62050D01*
X69850Y63650D02*Y62050D01*
X70850D01*
X59150Y71100D02*Y68600D01*
X57650D02*X59150D01*
X57650Y71100D02*Y68600D01*
Y71100D02*X59150D01*
X57650Y68600D02*Y68350D01*
X59150D01*
Y68600D01*
X56750Y71100D02*Y68600D01*
X55250D02*X56750D01*
X55250Y71100D02*Y68600D01*
Y71100D02*X56750D01*
X55250Y68600D02*Y68350D01*
X56750D01*
Y68600D01*
X59650Y70650D02*X60650D01*
Y69050D01*
X59650Y70650D02*Y69050D01*
X60650D01*
X67850Y76200D02*X68850D01*
X67850Y77800D02*Y76200D01*
X68850Y77800D02*Y76200D01*
X67850Y77800D02*X68850D01*
X70350Y76200D02*X71350D01*
X70350Y77800D02*Y76200D01*
X71350Y77800D02*Y76200D01*
X70350Y77800D02*X71350D01*
X75104Y64596D02*Y75104D01*
X64596D01*
Y64596D01*
X75104D01*
X64596Y75104D02*X64215Y75485D01*
X66850Y63650D02*X67850D01*
Y62050D01*
X66850Y63650D02*Y62050D01*
X67850D01*
G54D44*X79350Y60900D02*X80900D01*
Y62450D02*Y60900D01*
G54D41*X75650Y62150D02*X76650D01*
X75650Y63750D02*Y62150D01*
X76650Y63750D02*Y62150D01*
X75650Y63750D02*X76650D01*
X76250Y68850D02*Y69850D01*
X77850D02*X76250D01*
X77850Y68850D02*X76250D01*
X77850Y69850D02*Y68850D01*
X60650Y69050D02*X61650D01*
X60650Y70650D02*Y69050D01*
X61650Y70650D02*Y69050D01*
X60650Y70650D02*X61650D01*
X76250Y66350D02*Y67350D01*
X77850D02*X76250D01*
X77850Y66350D02*X76250D01*
X77850Y67350D02*Y66350D01*
X61650Y70650D02*X62650D01*
Y69050D01*
X61650Y70650D02*Y69050D01*
X62650D01*
X52180Y66200D02*Y66600D01*
X57040D01*
Y66200D01*
Y63340D02*Y62940D01*
X52180D02*X57040D01*
X52180Y63340D02*Y62940D01*
G54D45*X55950Y64780D02*G75*G03X54610Y66120I-1340J0D01*G01*
X54590Y63420D02*G75*G03X55950Y64780I0J1360D01*G01*
X53270Y64760D02*G75*G03X54610Y63420I1340J0D01*G01*
X54630Y66120D02*G75*G03X53270Y64760I0J-1360D01*G01*
G54D41*X100535Y64266D02*Y62766D01*
X103535Y64266D02*Y62766D01*
X100535Y64266D02*X101635D01*
X100535Y62766D02*X101635D01*
X102435Y64266D02*X103535D01*
X102435Y62766D02*X103535D01*
X104909Y73750D02*X106029D01*
X104909Y65950D02*X106029D01*
Y73750D02*Y65950D01*
X100194D02*X102849D01*
X100194Y73750D02*Y65950D01*
Y73750D02*X102849D01*
X92050Y67250D02*Y62250D01*
X89550D02*X92050D01*
X89550Y67250D02*Y62250D01*
Y67250D02*X92050D01*
G54D44*X91900Y70650D02*Y68650D01*
X88400D01*
Y70650D01*
X91900D02*X88400D01*
G54D41*X82550Y67450D02*X89050D01*
Y63950D01*
X82550D02*X89050D01*
X82550Y67450D02*Y63950D01*
X92450Y68600D02*X97450D01*
Y66100D01*
X92450D02*X97450D01*
X92450Y68600D02*Y66100D01*
X93650Y63850D02*Y62150D01*
X96150D01*
Y63850D01*
X93650D01*
X94150D02*Y62150D01*
X93650Y65800D02*Y64100D01*
X96150D01*
Y65800D02*Y64100D01*
X93650Y65800D02*X96150D01*
X94150D02*Y64100D01*
X53700Y70650D02*X54700D01*
Y69050D01*
X53700Y70650D02*Y69050D01*
X54700D01*
G54D44*X50950Y71600D02*X52950D01*
Y68100D01*
X50950D02*X52950D01*
X50950Y71600D02*Y68100D01*
G54D41*X34325Y62480D02*X35575D01*
X38075D02*X47225D01*
X49525Y66030D02*Y62480D01*
X48665Y73740D02*Y67530D01*
X34325Y63700D02*Y62480D01*
X34905Y63850D02*X35525Y66000D01*
X37065Y75050D02*Y66000D01*
X34325Y76930D02*Y75050D01*
X49525Y76940D02*Y75390D01*
X35525Y66000D02*X45225D01*
X34325Y75050D02*X45225D01*
Y66000D01*
X35525D02*X34325Y64800D01*
Y63610D01*
Y63850D02*X34905D01*
X35575Y76930D02*Y75050D01*
X34325Y76940D02*X35575D01*
X38155D02*X49525D01*
X49650Y70650D02*X50650D01*
Y69050D01*
X49650Y70650D02*Y69050D01*
X50650D01*
X52180Y76360D02*Y76760D01*
X57040D01*
Y76360D01*
Y73500D02*Y73100D01*
X52180D02*X57040D01*
X52180Y73500D02*Y73100D01*
G54D45*X55950Y74940D02*G75*G03X54610Y76280I-1340J0D01*G01*
X54590Y73580D02*G75*G03X55950Y74940I0J1360D01*G01*
X53270Y74920D02*G75*G03X54610Y73580I1340J0D01*G01*
X54630Y76280D02*G75*G03X53270Y74920I0J-1360D01*G01*
M02*
