G04 start of page 8 for group -4062 idx -4062 *
G04 Title: (unknown), soldermask *
G04 Creator: pcb 1.99z *
G04 CreationDate: Sun Aug  4 21:18:56 2019 UTC *
G04 For: matt *
G04 Format: Gerber/RS-274X *
G04 PCB-Dimensions (mm): 152.40 127.00 *
G04 PCB-Coordinate-Origin: lower left *
%MOMM*%
%FSLAX43Y43*%
%LNBOTTOMMASK*%
%ADD40C,0.761*%
%ADD39C,0.752*%
%ADD38C,1.752*%
G54D38*X45720Y81280D03*
X43180D03*
X40640D03*
X38100D03*
X53340D03*
X50800D03*
X48260D03*
X35560D03*
X53340Y58420D03*
X50800D03*
X48260D03*
X45720D03*
X43180D03*
X40640D03*
X38100D03*
X35560D03*
X66040Y81280D03*
X63500D03*
X60960D03*
X58420D03*
X55880D03*
X76200Y58420D03*
X73660D03*
X71120D03*
X68580D03*
X66040D03*
X63500D03*
X60960D03*
X58420D03*
X55880D03*
G54D39*X67850Y69850D03*
X66850D03*
X67850Y68850D03*
X66850D03*
X69850Y66850D03*
X68850D03*
X70850D03*
X67850Y67850D03*
X66850D03*
X67850Y66850D03*
X66850D03*
X70850Y67850D03*
X71850D03*
X72850D03*
X71850Y66850D03*
X72850D03*
X69850Y70900D03*
X68850D03*
X69850Y71850D03*
X68850D03*
X69850Y72850D03*
X68850D03*
X70850Y70900D03*
X71850D03*
X72850D03*
X67850D03*
X66850D03*
X67850Y71850D03*
X66850D03*
X67850Y72850D03*
X66850D03*
X70850Y71850D03*
Y72850D03*
X71850D03*
X72850D03*
X71850Y71850D03*
X72850D03*
G54D38*X78740Y81280D03*
Y58420D03*
X81280D03*
G54D39*X70850Y69850D03*
X71850D03*
X72850D03*
X69850D03*
X68850D03*
X69850Y68850D03*
X68850D03*
X69850Y67850D03*
X68850D03*
X70850Y68850D03*
X71850D03*
X72850D03*
G54D38*X104140Y81280D03*
X101600D03*
X99060D03*
X96520D03*
X93980D03*
X91440D03*
X88900D03*
X86360D03*
X83820D03*
X104140Y58420D03*
X101600D03*
X99060D03*
X96520D03*
X93980D03*
X91440D03*
X88900D03*
X86360D03*
X83820D03*
X76200Y81280D03*
X73660D03*
X71120D03*
X68580D03*
X81280D03*
G54D40*X68580Y60325D02*Y60320D01*
X66040Y60325D02*Y60320D01*
X63500Y60325D02*Y60320D01*
X60960Y60325D02*Y60320D01*
X58420Y60325D02*Y60320D01*
X55880Y60325D02*Y60320D01*
X53340Y60325D02*Y60320D01*
X50800Y60325D02*Y60320D01*
X48260Y60325D02*Y60320D01*
X45720Y60325D02*Y60320D01*
X43180Y60325D02*Y60320D01*
X40640Y60325D02*Y60320D01*
X38100Y60325D02*Y60320D01*
X35560Y60325D02*Y60320D01*
X58420Y79375D02*Y79370D01*
X55880Y79375D02*Y79370D01*
X53340Y79375D02*Y79370D01*
X50800Y79375D02*Y79370D01*
X48260Y79375D02*Y79370D01*
X45720Y79375D02*Y79370D01*
X43180Y79375D02*Y79370D01*
X40640Y79375D02*Y79370D01*
X38100Y79375D02*Y79370D01*
X35560Y79375D02*Y79370D01*
X104140Y79375D02*Y79370D01*
X101600Y79375D02*Y79370D01*
X99060Y79360D02*Y79355D01*
X96520Y79375D02*Y79370D01*
X93980Y79375D02*Y79370D01*
X91440Y79375D02*Y79370D01*
X88900Y79375D02*Y79370D01*
X86360Y79375D02*Y79370D01*
X104140Y60325D02*Y60320D01*
X101600Y60325D02*Y60320D01*
X99060Y60325D02*Y60320D01*
X96520Y60325D02*Y60320D01*
X91440Y60325D02*Y60320D01*
X93980Y60325D02*Y60320D01*
X83820Y79375D02*Y79370D01*
X81280Y79375D02*Y79370D01*
X78740Y79375D02*Y79370D01*
X76200Y79375D02*Y79370D01*
X73660Y79375D02*Y79370D01*
X71120Y79375D02*Y79370D01*
X68580Y79375D02*Y79370D01*
X66040Y79375D02*Y79370D01*
X63500Y79375D02*Y79370D01*
X60960Y79375D02*Y79370D01*
X88900Y60325D02*Y60320D01*
X86360Y60325D02*Y60320D01*
X83820Y60325D02*Y60320D01*
X81280Y60325D02*Y60320D01*
X78740Y60325D02*Y60320D01*
X76200Y60325D02*Y60320D01*
X73660Y60325D02*Y60320D01*
X71120Y60325D02*Y60320D01*
M02*
