G04 start of page 7 for group -4063 idx -4063 *
G04 Title: (unknown), componentmask *
G04 Creator: pcb 1.99z *
G04 CreationDate: Sun Aug  4 21:18:56 2019 UTC *
G04 For: matt *
G04 Format: Gerber/RS-274X *
G04 PCB-Dimensions (mm): 152.40 127.00 *
G04 PCB-Coordinate-Origin: lower left *
%MOMM*%
%FSLAX43Y43*%
%LNTOPMASK*%
%ADD37C,0.002*%
%ADD36C,0.752*%
%ADD35C,1.752*%
G54D35*X45720Y81280D03*
X43180D03*
X40640D03*
X38100D03*
X53340D03*
X50800D03*
X48260D03*
X35560D03*
X53340Y58420D03*
X50800D03*
X48260D03*
X45720D03*
X43180D03*
X40640D03*
X38100D03*
X35560D03*
X66040Y81280D03*
X63500D03*
X60960D03*
X58420D03*
X55880D03*
X76200Y58420D03*
X73660D03*
X71120D03*
X68580D03*
X66040D03*
X63500D03*
X60960D03*
X58420D03*
X55880D03*
G54D36*X67850Y69850D03*
X66850D03*
X67850Y68850D03*
X66850D03*
X69850Y66850D03*
X68850D03*
X70850D03*
X67850Y67850D03*
X66850D03*
X67850Y66850D03*
X66850D03*
X70850Y67850D03*
X71850D03*
X72850D03*
X71850Y66850D03*
X72850D03*
X69850Y70900D03*
X68850D03*
X69850Y71850D03*
X68850D03*
X69850Y72850D03*
X68850D03*
X70850Y70900D03*
X71850D03*
X72850D03*
X67850D03*
X66850D03*
X67850Y71850D03*
X66850D03*
X67850Y72850D03*
X66850D03*
X70850Y71850D03*
Y72850D03*
X71850D03*
X72850D03*
X71850Y71850D03*
X72850D03*
G54D35*X78740Y81280D03*
Y58420D03*
X81280D03*
G54D36*X70850Y69850D03*
X71850D03*
X72850D03*
X69850D03*
X68850D03*
X69850Y68850D03*
X68850D03*
X69850Y67850D03*
X68850D03*
X70850Y68850D03*
X71850D03*
X72850D03*
G54D35*X104140Y81280D03*
X101600D03*
X99060D03*
X96520D03*
X93980D03*
X91440D03*
X88900D03*
X86360D03*
X83820D03*
X104140Y58420D03*
X101600D03*
X99060D03*
X96520D03*
X93980D03*
X91440D03*
X88900D03*
X86360D03*
X83820D03*
X76200Y81280D03*
X73660D03*
X71120D03*
X68580D03*
X81280D03*
G54D37*G36*
X35500Y70495D02*Y69545D01*
X36890D01*
Y70495D01*
X35500D01*
G37*
G36*
Y71595D02*Y70645D01*
X36890D01*
Y71595D01*
X35500D01*
G37*
G36*
Y72695D02*Y71745D01*
X36890D01*
Y72695D01*
X35500D01*
G37*
G36*
Y73795D02*Y72845D01*
X36890D01*
Y73795D01*
X35500D01*
G37*
G36*
Y74895D02*Y73945D01*
X36890D01*
Y74895D01*
X35500D01*
G37*
G36*
Y77415D02*Y76115D01*
X38150D01*
Y77415D01*
X35500D01*
G37*
G36*
Y63125D02*Y61825D01*
X38150D01*
Y63125D01*
X35500D01*
G37*
G36*
X64821Y70269D02*Y69931D01*
X65779D01*
Y70269D01*
X64821D01*
G37*
G36*
Y69769D02*Y69431D01*
X65779D01*
Y69769D01*
X64821D01*
G37*
G36*
Y69269D02*Y68931D01*
X65779D01*
Y69269D01*
X64821D01*
G37*
G36*
Y68769D02*Y68431D01*
X65779D01*
Y68769D01*
X64821D01*
G37*
G36*
Y68269D02*Y67931D01*
X65779D01*
Y68269D01*
X64821D01*
G37*
G36*
Y67769D02*Y67431D01*
X65779D01*
Y67769D01*
X64821D01*
G37*
G36*
Y67269D02*Y66931D01*
X65779D01*
Y67269D01*
X64821D01*
G37*
G36*
Y66769D02*Y66431D01*
X65779D01*
Y66769D01*
X64821D01*
G37*
G36*
Y66269D02*Y65931D01*
X65779D01*
Y66269D01*
X64821D01*
G37*
G36*
X66269Y65779D02*X65931D01*
Y64821D01*
X66269D01*
Y65779D01*
G37*
G36*
X66769D02*X66431D01*
Y64821D01*
X66769D01*
Y65779D01*
G37*
G36*
X67269D02*X66931D01*
Y64821D01*
X67269D01*
Y65779D01*
G37*
G36*
X67769D02*X67431D01*
Y64821D01*
X67769D01*
Y65779D01*
G37*
G36*
X68269D02*X67931D01*
Y64821D01*
X68269D01*
Y65779D01*
G37*
G36*
X68769D02*X68431D01*
Y64821D01*
X68769D01*
Y65779D01*
G37*
G36*
X56335Y66245D02*Y64995D01*
X58035D01*
Y66245D01*
X56335D01*
G37*
G36*
Y64545D02*Y63295D01*
X58035D01*
Y64545D01*
X56335D01*
G37*
G36*
X51185Y66245D02*Y64995D01*
X52885D01*
Y66245D01*
X51185D01*
G37*
G36*
Y64545D02*Y63295D01*
X52885D01*
Y64545D01*
X51185D01*
G37*
G36*
X51160Y69640D02*Y68260D01*
X52740D01*
Y69640D01*
X51160D01*
G37*
G36*
X64821Y70769D02*Y70431D01*
X65779D01*
Y70769D01*
X64821D01*
G37*
G36*
X68769Y74879D02*X68431D01*
Y73921D01*
X68769D01*
Y74879D01*
G37*
G36*
X68269D02*X67931D01*
Y73921D01*
X68269D01*
Y74879D01*
G37*
G36*
X67769D02*X67431D01*
Y73921D01*
X67769D01*
Y74879D01*
G37*
G36*
X67269D02*X66931D01*
Y73921D01*
X67269D01*
Y74879D01*
G37*
G36*
X66769D02*X66431D01*
Y73921D01*
X66769D01*
Y74879D01*
G37*
G36*
X66269D02*X65931D01*
Y73921D01*
X66269D01*
Y74879D01*
G37*
G36*
X56335Y76405D02*Y75155D01*
X58035D01*
Y76405D01*
X56335D01*
G37*
G36*
Y74705D02*Y73455D01*
X58035D01*
Y74705D01*
X56335D01*
G37*
G36*
X51185Y76405D02*Y75155D01*
X52885D01*
Y76405D01*
X51185D01*
G37*
G36*
Y74705D02*Y73455D01*
X52885D01*
Y74705D01*
X51185D01*
G37*
G36*
X51160Y71440D02*Y70060D01*
X52740D01*
Y71440D01*
X51160D01*
G37*
G36*
X35500Y67195D02*Y66245D01*
X36890D01*
Y67195D01*
X35500D01*
G37*
G36*
Y68295D02*Y67345D01*
X36890D01*
Y68295D01*
X35500D01*
G37*
G36*
Y69395D02*Y68445D01*
X36890D01*
Y69395D01*
X35500D01*
G37*
G36*
X92425Y63375D02*Y62625D01*
X93675D01*
Y63375D01*
X92425D01*
G37*
G36*
X96125D02*Y62625D01*
X97375D01*
Y63375D01*
X96125D01*
G37*
G36*
X91740Y70440D02*X90360D01*
Y68860D01*
X91740D01*
Y70440D01*
G37*
G36*
X89940D02*X88560D01*
Y68860D01*
X89940D01*
Y70440D01*
G37*
G36*
X47150Y63125D02*Y61825D01*
X49600D01*
Y63125D01*
X47150D01*
G37*
G36*
X49600Y67605D02*X48310D01*
Y65965D01*
X49600D01*
Y67605D01*
G37*
G36*
X49749Y70551D02*Y69949D01*
X50551D01*
Y70551D01*
X49749D01*
G37*
G36*
Y69751D02*Y69149D01*
X50551D01*
Y69751D01*
X49749D01*
G37*
G36*
X49600Y75385D02*X48310D01*
Y73745D01*
X49600D01*
Y75385D01*
G37*
G36*
X57835Y70940D02*Y70060D01*
X58965D01*
Y70940D01*
X57835D01*
G37*
G36*
X55435D02*Y70060D01*
X56565D01*
Y70940D01*
X55435D01*
G37*
G36*
X53800Y70551D02*Y69949D01*
X54601D01*
Y70551D01*
X53800D01*
G37*
G36*
Y69751D02*Y69149D01*
X54601D01*
Y69751D01*
X53800D01*
G37*
G36*
X103235Y63982D02*X102385D01*
Y63052D01*
X103235D01*
Y63982D01*
G37*
G36*
X104855Y68151D02*X102903D01*
Y65724D01*
X104855D01*
Y68151D01*
G37*
G36*
X102903Y69626D02*Y68399D01*
X104855D01*
Y69626D01*
X102903D01*
G37*
G36*
Y71301D02*Y70074D01*
X104855D01*
Y71301D01*
X102903D01*
G37*
G36*
X104855Y73976D02*X102903D01*
Y71549D01*
X104855D01*
Y73976D01*
G37*
G36*
X101688Y63984D02*X100833D01*
Y63049D01*
X101688D01*
Y63984D01*
G37*
G36*
X100503Y70121D02*Y69579D01*
X101935D01*
Y70121D01*
X100503D01*
G37*
G36*
Y69471D02*Y68929D01*
X101935D01*
Y69471D01*
X100503D01*
G37*
G36*
Y68821D02*Y68279D01*
X101935D01*
Y68821D01*
X100503D01*
G37*
G36*
Y68151D02*Y66624D01*
X102655D01*
Y68151D01*
X100503D01*
G37*
G36*
Y70771D02*Y70229D01*
X101935D01*
Y70771D01*
X100503D01*
G37*
G36*
Y71421D02*Y70879D01*
X101935D01*
Y71421D01*
X100503D01*
G37*
G36*
Y73076D02*Y71549D01*
X102655D01*
Y73076D01*
X100503D01*
G37*
G36*
X89810Y66940D02*Y65560D01*
X91790D01*
Y66940D01*
X89810D01*
G37*
G36*
Y63940D02*Y62560D01*
X91790D01*
Y63940D01*
X89810D01*
G37*
G36*
X67949Y76901D02*Y76300D01*
X68751D01*
Y76901D01*
X67949D01*
G37*
G36*
Y77701D02*Y77099D01*
X68751D01*
Y77701D01*
X67949D01*
G37*
G36*
X70449Y76901D02*Y76299D01*
X71251D01*
Y76901D01*
X70449D01*
G37*
G36*
Y77701D02*Y77099D01*
X71251D01*
Y77701D01*
X70449D01*
G37*
G36*
X59749Y70551D02*Y69949D01*
X60551D01*
Y70551D01*
X59749D01*
G37*
G36*
Y69751D02*Y69149D01*
X60551D01*
Y69751D01*
X59749D01*
G37*
G36*
X60749D02*Y69149D01*
X61551D01*
Y69751D01*
X60749D01*
G37*
G36*
Y70551D02*Y69949D01*
X61551D01*
Y70551D01*
X60749D01*
G37*
G36*
X61749D02*Y69949D01*
X62551D01*
Y70551D01*
X61749D01*
G37*
G36*
Y69751D02*Y69149D01*
X62551D01*
Y69751D01*
X61749D01*
G37*
G36*
X69769Y65779D02*X69431D01*
Y64821D01*
X69769D01*
Y65779D01*
G37*
G36*
X70269D02*X69931D01*
Y64821D01*
X70269D01*
Y65779D01*
G37*
G36*
X70769D02*X70431D01*
Y64821D01*
X70769D01*
Y65779D01*
G37*
G36*
X75749Y62851D02*Y62249D01*
X76551D01*
Y62851D01*
X75749D01*
G37*
G36*
Y63651D02*Y63049D01*
X76551D01*
Y63651D01*
X75749D01*
G37*
G36*
X76951Y69751D02*X76349D01*
Y68949D01*
X76951D01*
Y69751D01*
G37*
G36*
X77750D02*X77149D01*
Y68949D01*
X77750D01*
Y69751D01*
G37*
G36*
X57835Y69640D02*Y68760D01*
X58965D01*
Y69640D01*
X57835D01*
G37*
G36*
X55435D02*Y68760D01*
X56565D01*
Y69640D01*
X55435D01*
G37*
G36*
X76951Y67251D02*X76349D01*
Y66449D01*
X76951D01*
Y67251D01*
G37*
G36*
X77751D02*X77149D01*
Y66449D01*
X77751D01*
Y67251D01*
G37*
G36*
X69949Y63551D02*Y62949D01*
X70751D01*
Y63551D01*
X69949D01*
G37*
G36*
Y62751D02*Y62150D01*
X70751D01*
Y62751D01*
X69949D01*
G37*
G36*
X66949Y63550D02*Y62949D01*
X67751D01*
Y63550D01*
X66949D01*
G37*
G36*
Y62751D02*Y62149D01*
X67751D01*
Y62751D01*
X66949D01*
G37*
G36*
X69269Y65779D02*X68931D01*
Y64821D01*
X69269D01*
Y65779D01*
G37*
G36*
X71269D02*X70931D01*
Y64821D01*
X71269D01*
Y65779D01*
G37*
G36*
X71769D02*X71431D01*
Y64821D01*
X71769D01*
Y65779D01*
G37*
G36*
X64821Y73769D02*Y73431D01*
X65779D01*
Y73769D01*
X64821D01*
G37*
G36*
Y73269D02*Y72931D01*
X65779D01*
Y73269D01*
X64821D01*
G37*
G36*
Y72769D02*Y72431D01*
X65779D01*
Y72769D01*
X64821D01*
G37*
G36*
Y72269D02*Y71931D01*
X65779D01*
Y72269D01*
X64821D01*
G37*
G36*
Y71769D02*Y71431D01*
X65779D01*
Y71769D01*
X64821D01*
G37*
G36*
Y71269D02*Y70931D01*
X65779D01*
Y71269D01*
X64821D01*
G37*
G36*
X71769Y74879D02*X71431D01*
Y73921D01*
X71769D01*
Y74879D01*
G37*
G36*
X71269D02*X70931D01*
Y73921D01*
X71269D01*
Y74879D01*
G37*
G36*
X70769D02*X70431D01*
Y73921D01*
X70769D01*
Y74879D01*
G37*
G36*
X70269D02*X69931D01*
Y73921D01*
X70269D01*
Y74879D01*
G37*
G36*
X69769D02*X69431D01*
Y73921D01*
X69769D01*
Y74879D01*
G37*
G36*
X69269D02*X68931D01*
Y73921D01*
X69269D01*
Y74879D01*
G37*
G36*
X72269Y65779D02*X71931D01*
Y64821D01*
X72269D01*
Y65779D01*
G37*
G36*
X72769D02*X72431D01*
Y64821D01*
X72769D01*
Y65779D01*
G37*
G36*
X73269D02*X72931D01*
Y64821D01*
X73269D01*
Y65779D01*
G37*
G36*
X73769D02*X73431D01*
Y64821D01*
X73769D01*
Y65779D01*
G37*
G36*
X73921Y66269D02*Y65931D01*
X74879D01*
Y66269D01*
X73921D01*
G37*
G36*
X94140Y68340D02*X92760D01*
Y66360D01*
X94140D01*
Y68340D01*
G37*
G36*
X84145Y69725D02*Y67775D01*
X87455D01*
Y69725D01*
X84145D01*
G37*
G36*
X97140Y68340D02*X95760D01*
Y66360D01*
X97140D01*
Y68340D01*
G37*
G36*
X92425Y65325D02*Y64575D01*
X93675D01*
Y65325D01*
X92425D01*
G37*
G36*
X96125D02*Y64575D01*
X97375D01*
Y65325D01*
X96125D01*
G37*
G36*
X73921Y66769D02*Y66431D01*
X74879D01*
Y66769D01*
X73921D01*
G37*
G36*
Y67269D02*Y66931D01*
X74879D01*
Y67269D01*
X73921D01*
G37*
G36*
Y67769D02*Y67431D01*
X74879D01*
Y67769D01*
X73921D01*
G37*
G36*
Y68269D02*Y67931D01*
X74879D01*
Y68269D01*
X73921D01*
G37*
G36*
Y68769D02*Y68431D01*
X74879D01*
Y68769D01*
X73921D01*
G37*
G36*
Y69269D02*Y68931D01*
X74879D01*
Y69269D01*
X73921D01*
G37*
G36*
Y69769D02*Y69431D01*
X74879D01*
Y69769D01*
X73921D01*
G37*
G36*
Y70269D02*Y69931D01*
X74879D01*
Y70269D01*
X73921D01*
G37*
G36*
Y70769D02*Y70431D01*
X74879D01*
Y70769D01*
X73921D01*
G37*
G36*
Y71269D02*Y70931D01*
X74879D01*
Y71269D01*
X73921D01*
G37*
G36*
Y71769D02*Y71431D01*
X74879D01*
Y71769D01*
X73921D01*
G37*
G36*
Y72269D02*Y71931D01*
X74879D01*
Y72269D01*
X73921D01*
G37*
G36*
X66075Y73625D02*Y66075D01*
X73625D01*
Y73625D01*
X66075D01*
G37*
G36*
X73921Y72769D02*Y72431D01*
X74879D01*
Y72769D01*
X73921D01*
G37*
G36*
Y73269D02*Y72931D01*
X74879D01*
Y73269D01*
X73921D01*
G37*
G36*
Y73769D02*Y73431D01*
X74879D01*
Y73769D01*
X73921D01*
G37*
G36*
X73769Y74879D02*X73431D01*
Y73921D01*
X73769D01*
Y74879D01*
G37*
G36*
X73269D02*X72931D01*
Y73921D01*
X73269D01*
Y74879D01*
G37*
G36*
X72769D02*X72431D01*
Y73921D01*
X72769D01*
Y74879D01*
G37*
G36*
X72269D02*X71931D01*
Y73921D01*
X72269D01*
Y74879D01*
G37*
G36*
X84005Y63625D02*X82995D01*
Y61675D01*
X84005D01*
Y63625D01*
G37*
G36*
X86305D02*X85295D01*
Y61675D01*
X86305D01*
Y63625D01*
G37*
G36*
X88605D02*X87595D01*
Y61675D01*
X88605D01*
Y63625D01*
G37*
G36*
X77425Y62375D02*Y61425D01*
X78475D01*
Y62375D01*
X77425D01*
G37*
G36*
Y64475D02*Y63525D01*
X78475D01*
Y64475D01*
X77425D01*
G37*
G36*
X79325Y62375D02*Y61425D01*
X80375D01*
Y62375D01*
X79325D01*
G37*
G36*
Y64475D02*Y63525D01*
X80375D01*
Y64475D01*
X79325D01*
G37*
M02*
